<?xml version="1.0" standalone="no"?>
<!DOCTYPE svg PUBLIC "-//W3C//DTD SVG 1.1//EN" "http://www.w3.org/Graphics/SVG/1.1/DTD/svg11.dtd" >
<svg>
<metadata>
Created by FontForge 20090914 at Thu Jun 30 14:39:02 2022
 By www-data
</metadata>
<defs>
<font id="AmadorGothicC" horiz-adv-x="386" >
  <font-face 
    font-family="Amador GothicC"
    font-weight="400"
    font-stretch="normal"
    units-per-em="1000"
    panose-1="2 0 0 0 0 0 0 0 0 0"
    ascent="800"
    descent="-200"
    x-height="576.999"
    cap-height="741.003"
    bbox="-35.999 -240.998 1136.99 908.997"
    underline-thickness="20"
    underline-position="-133"
    unicode-range="U+0020-U+2122"
  />
<missing-glyph horiz-adv-x="246" 
 />
    <glyph glyph-name=".notdef" horiz-adv-x="246" 
 />
    <glyph glyph-name="space" unicode=" " horiz-adv-x="246" 
 />
    <glyph glyph-name="exclam" unicode="!" horiz-adv-x="246" 
d="M189 667c-11.333 -55.333 -20.665 -118.501 -27.998 -189.501s-12.666 -150.833 -15.999 -239.5c-4.66699 -2 -10.334 -5.16699 -17.001 -9.5s-12.334 -8.16602 -17.001 -11.499l-7 -5l-4 2c-3.33301 82 -9.33301 161 -18 237c-4.66699 38 -8.83398 70.333 -12.501 97
s-7.16699 47.667 -10.5 63c38 10.667 79.667 31 125 61zM196.001 62.999c-20 -18 -44.667 -41.666 -74 -70.999l-72 71l32 30c12 11.333 25.333 24.666 40 39.999z" />
    <glyph glyph-name="quotedbl" unicode="&#x22;" horiz-adv-x="332" 
d="M302 739c-18 -29.333 -34 -90.332 -48 -182.999h-32c-12 90.667 -27.333 151.667 -46 183c6.66699 5.33301 15.167 13.166 25.5 23.499l36.5 37.5zM156 739.001c-18 -29.333 -34 -90.332 -48 -182.999h-32c-12 90.667 -27.333 151.667 -46 183
c6.66699 5.33301 15.167 13.166 25.5 23.499l36.5 37.5z" />
    <glyph glyph-name="numbersign" unicode="#" horiz-adv-x="515" 
d="M389 404h86l-17 -48h-87l-43 -124h95l-16 -48h-96l-66 -183h-53l66 183h-87l-66 -183h-53l66 183h-78l18 48h77l43 124h-87l17 48h88l66 186h54l-67 -186h88l65 186h53zM275 232l45 124h-87l-45 -124h87z" />
    <glyph glyph-name="dollar" unicode="$" horiz-adv-x="388" 
d="M358 523l-70.998 -73.002c-28.667 8 -55.334 19 -80.001 33v-125c0.666992 -0.666992 2.83398 -2.16699 6.50098 -4.5s6.83398 -4.16602 9.50098 -5.49902c48 -28.667 82.333 -54.667 103 -78c20.667 -21.333 31 -50.666 31 -87.999c0 -32 -12.5 -60.667 -37.5 -86
s-62.5 -50.666 -112.5 -75.999v-93h-31v78l-10 -5c-30.667 26 -59.167 43.667 -85.5 53s-45.5 12.666 -57.5 9.99902l-3 4l72 73c14 -3.33301 28 -7.83301 42 -13.5s28 -12.834 42 -21.501v155c-0.666992 0.666992 -2.83398 2.16699 -6.50098 4.5
s-6.83398 4.16602 -9.50098 5.49902c-74.667 44 -112 96.667 -112 158c0 32 10.833 59.333 32.5 82s53.5 45 95.5 67v93h31v-83c15.333 -10.667 29.5 -19.667 42.5 -27l34.5 -19c20 -9.33301 34.667 -14.166 44 -14.499s18.666 -0.166016 27.999 0.500977zM176.002 501.998
c-8 5.33301 -15.333 10.5 -22 15.5s-12.667 9.83301 -18 14.5c-13.333 -12 -20 -29.333 -20 -52c0 -36 20 -69.333 60 -100v122zM268.002 132.998c0 40 -20.333 75.334 -61 106.001v-154c6 -4.66699 11.5 -9.33398 16.5 -14.001l14.5 -14c20 12 30 37.333 30 76z" />
    <glyph glyph-name="percent" unicode="%" horiz-adv-x="621" 
d="M581 82c-16 -8.66699 -35.165 -19.666 -57.498 -32.999s-47.833 -29.666 -76.5 -48.999c-32.667 13.333 -55.834 30.166 -69.501 50.499s-20.5 49.5 -20.5 87.5v130c18.667 9.33301 39.167 21 61.5 35l72.5 47c37.333 -16.667 61.666 -33.334 72.999 -50.001
s17 -47 17 -91v-127zM451.002 590.001h50l-345 -608h-51zM264.002 322.001c-16 -8.66699 -35.165 -19.666 -57.498 -32.999s-47.833 -29.666 -76.5 -48.999c-32.667 13.333 -55.834 30.166 -69.501 50.499s-20.5 49.5 -20.5 87.5v130c18.667 9.33301 39.167 21 61.5 35
l72.5 47c37.333 -16.667 61.666 -33.334 72.999 -50.001s17 -47 17 -91v-127zM508.004 53.002v145.001c0 35.333 -4.66699 58.666 -14 69.999c-8.66699 11.333 -28.667 22.666 -60 33.999l-5 -5v-149c0 -28.667 5 -50.667 15 -66s29.667 -26.666 59 -33.999z
M192.004 293.003v145.001c0 35.333 -4.66699 58.666 -14 69.999c-8.66699 11.333 -28.667 22.666 -60 33.999l-6 -5v-149c0 -28.667 5 -50.667 15 -66s29.667 -26.666 59 -33.999z" />
    <glyph glyph-name="ampersand" unicode="&#x26;" horiz-adv-x="647" 
d="M637 101l-123.002 -110.001c-58 42 -110 85.333 -156 130l-92 -72.5l-80 -58.5c-26 19.333 -55 46 -87 80c-30 32 -55 62.667 -75 92l161 154c-41.333 46.667 -72.666 99.667 -93.999 159l192 180c46.667 -31.333 95.334 -78.333 146.001 -141v-5l-147 -139
c27.333 -38 72.666 -89.667 135.999 -155c66 62 110 119.333 132 172c32.667 -11.333 55.667 -17.333 69 -18l2 -4l-102.5 -92.5l-80.5 -77.5c21.333 -21.333 40 -38.666 56 -51.999s28.667 -23.333 38 -30c18.667 -12 36.334 -18 53.001 -18c17.333 0 31.333 5.33301 42 16
zM337.998 460.999c-34.667 46 -74 81.666 -118 106.999l-37 -37c16 -32.667 30.833 -60.667 44.5 -84s26.167 -41.666 37.5 -54.999zM336.998 139.998c-34.667 34 -79.667 84.667 -135 152l-76 -70c12.667 -22 32.667 -47 60 -75c28 -28 52.333 -50 73 -66z" />
    <glyph glyph-name="quotesingle" unicode="'" horiz-adv-x="186" 
d="M156 739c-18 -29.333 -33.999 -90.332 -47.999 -182.999h-31c-10.667 88 -26.334 149 -47.001 183c6.66699 5.33301 15.167 13.166 25.5 23.499l36.5 37.5z" />
    <glyph glyph-name="parenleft" unicode="(" horiz-adv-x="377" 
d="M343 -142c-175.333 128 -263 284.667 -263 470c0 97.333 24 185.666 72 264.999c24.667 40 52.667 77 84 111s67 65.333 107 94l24 -30c-63.333 -48 -112.333 -111.333 -147 -190c-34 -79.333 -51 -162.666 -51 -249.999c0 -182 66 -329 198 -441z" />
    <glyph glyph-name="parenright" unicode=")" horiz-adv-x="377" 
d="M297 328c0 -185.333 -87.667 -342 -263 -470l-24 29c132 112 198 259 198 441c0 88.667 -17.333 172 -52 250c-33.333 78 -82 141.333 -146 190l24 30c78 -56 141.333 -124.333 190 -205c48.667 -78.667 73 -167 73 -265z" />
    <glyph glyph-name="asterisk" unicode="*" horiz-adv-x="420" 
d="M343 732l27 -79l-124 -21l89 -88l-67 -50l-59 111l-57 -111l-67 50l88 88l-123 21l27 79l110 -56l-16 124h78l-17 -124z" />
    <glyph glyph-name="plus" unicode="+" horiz-adv-x="457" 
d="M417 336l-40.998 -70.999h-16.5c-7.66699 0 -17.834 0.333008 -30.501 1s-24 1.16699 -34 1.5s-19 0.5 -27 0.5c2 -52 3 -91.333 3 -118l-71 -35l-3 2c3.33301 10 5 18.667 5 26c0 27.333 -1 69.666 -3 126.999c-59.333 2 -103 3 -131 3c-7.33301 0 -16 -1.66699 -26 -5
l-2 3l35 72c27.333 0 68 -1 122 -3c0 8 -0.166992 17.167 -0.5 27.5s-0.833008 21.833 -1.5 34.5c-0.666992 13.333 -1 24 -1 32v17l71 41l2 -3c-1.33301 -8.66699 -2.5 -15.5 -3.5 -20.5s-1.5 -8.5 -1.5 -10.5c0 -4 0.333008 -16 1 -36s1.66699 -48 3 -84
c34.667 -1.33301 61.667 -2.33301 81 -3s31.333 -1 36 -1c3.33301 0 7.66602 0.333008 12.999 1s11.333 1.66699 18 3z" />
    <glyph glyph-name="comma" unicode="," horiz-adv-x="206" 
d="M176 28c0 -27.333 -12.667 -55.334 -38 -84.001c-24.667 -27.333 -57 -48.333 -97 -63l-16 12c44.667 26.667 67 58.334 67 95.001c0 22.667 -17 47.667 -51 75l32 30c12 11.333 25.333 24.666 40 39.999c22 -17.333 38 -33.166 48 -47.499s15 -33.5 15 -57.5z" />
    <glyph glyph-name="hyphen" unicode="-" horiz-adv-x="322" 
d="M272 405c-0.666992 -16.667 -1.16797 -32.668 -1.50098 -48.001s-0.5 -30 -0.5 -44c-17.333 -5.33301 -35.666 -11.5 -54.999 -18.5s-40.333 -15.167 -63 -24.5s-42.5 -17.833 -59.5 -25.5s-31.167 -14.834 -42.5 -21.501c0.666992 18.667 1.16699 35.834 1.5 51.501
s0.5 29.834 0.5 42.501c54 32.667 127.333 62 220 88z" />
    <glyph glyph-name="period" unicode="." horiz-adv-x="206" 
d="M176 63c-20 -18 -44.667 -41.666 -74 -70.999l-72 71l32 30c12 11.333 25.333 24.666 40 39.999z" />
    <glyph glyph-name="slash" unicode="/" horiz-adv-x="403" 
d="M350 798l51 -20l-345 -879l-54 16z" />
    <glyph glyph-name="zero" unicode="0" horiz-adv-x="398" 
d="M359 109c-42 -24.667 -105.667 -67.335 -191 -128.002c-46 20.667 -79.333 47 -100 79c-20 32 -30 77.667 -30 137v266c34 20 67 40.667 99 62s63 43.333 93 66c36 -18.667 62.667 -36 80 -52c16.667 -15.333 29 -36.666 37 -63.999s12 -65.666 12 -114.999v-251z
M255 60.999l0.000976562 281.998c0 57.333 -6.33301 96.333 -19 117c-13.333 22.667 -41 41.334 -83 56.001l-11 -8v-296c0 -45.333 7.16699 -80.166 21.5 -104.499s42.166 -41.833 83.499 -52.5z" />
    <glyph glyph-name="one" unicode="1" horiz-adv-x="267" 
d="M226 589c-12.667 -10.667 -18.999 -31.667 -18.999 -63c1.33301 -227.333 1.33301 -402.666 0 -525.999c-8 -4 -17.167 -9.5 -27.5 -16.5s-20.833 -14.667 -31.5 -23s-21.167 -17.333 -31.5 -27s-19.5 -18.834 -27.5 -27.501l-11 6c18 26 27 54 27 84v468l-1 1
c-20.667 -16.667 -48.334 -46.667 -83.001 -90l-3 1l-7 42c98 96 166 157.667 204 185z" />
    <glyph glyph-name="two" unicode="2" horiz-adv-x="347" 
d="M347 123c-1.33301 -2 -12.3311 -20.001 -32.998 -54.001l-26.5 -42l-16.5 -27c-16 0.666992 -33.167 2 -51.5 4s-38.166 5 -59.499 9c-41.333 8 -77.333 12 -108 12c-20.667 0 -35 -9 -43 -27l-14 5c10.667 36 25.834 69.833 45.501 101.5s39.167 58.5 58.5 80.5l44 48
c14.667 15.333 27.667 30.833 39 46.5s20.5 31.167 27.5 46.5s10.5 31.333 10.5 48c0 42 -12.833 73 -38.5 93s-60.834 30 -105.501 30c-18.667 0 -34.667 -7.66699 -48 -23l-14 8l33.5 55.5c11 19 21.833 38.833 32.5 59.5c159.333 -12 239 -74.667 239 -188
c0 -24 -5.83301 -47.167 -17.5 -69.5s-26.834 -42.833 -45.501 -61.5l-58 -52c-20 -16.667 -40.333 -34.667 -61 -54s-36.334 -37.666 -47.001 -54.999l2 -2c11.333 1.33301 20.333 2.5 27 3.5s11.334 1.5 14.001 1.5c7.33301 0 17.166 -1 29.499 -3
s27.166 -4.66699 44.499 -8c36.667 -7.33301 63.667 -11 81 -11c14.667 0 29 11.667 43 35z" />
    <glyph glyph-name="three" unicode="3" horiz-adv-x="334" 
d="M319 219c0 -190 -103.996 -315.334 -311.996 -376.001l-7 14c138 72.667 207 180 207 322c0 44 -9.66699 74.667 -29 92s-47.333 26 -84 26c-17.333 0 -29 -2 -35 -6l-12 14l85 84.5c25.333 26.333 47.666 51.5 66.999 75.5c-20.667 1.33301 -47.334 6.33301 -80.001 15
c-34 9.33301 -53 14 -57 14c-16.667 0 -30.334 -7 -41.001 -21l-14 9l36.5 61.5l29.5 51.5l56 -15c38 -10 67.833 -17.333 89.5 -22s38.5 -7 50.5 -7c13.333 0 24.666 2.66699 33.999 8l13 -11l-155 -164c48 -3.33301 86.333 -19.666 115 -48.999s43 -68 43 -116z" />
    <glyph glyph-name="four" unicode="4" horiz-adv-x="368" 
d="M296 53l63 -0.00292969l-3.5 -10l-6.5 -18c-2.66699 -7.33301 -4.5 -13.166 -5.5 -17.499s-1.83301 -7.16602 -2.5 -8.49902h-45v-95c-6.66699 -4 -14.5 -9.66699 -23.5 -17s-19.833 -16.666 -32.5 -27.999s-23.667 -21.833 -33 -31.5s-17.333 -18.834 -24 -27.501l-14 8
c16 34.667 24 68.334 24 101.001v90h-190l-6 11c42.667 120.667 85.667 225.667 129 315c21.333 45.333 45 90.333 71 135s54 89.667 84 135l24 -5c-6 -13.333 -9 -35 -9 -65v-472zM193 52.9971v314c-27.333 -53.333 -70.333 -158 -129 -314h129z" />
    <glyph glyph-name="five" unicode="5" horiz-adv-x="349" 
d="M339 589l-62.999 -110.998c-7.33301 0 -18 1 -32 3s-31.667 4.66699 -53 8c-42 8 -71 12 -87 12l-33 -88c167.333 0 251 -69.333 251 -208c0 -82.667 -27 -157 -81 -223s-128.667 -112.667 -224 -140l-8 13c70 37.333 121.833 83.166 155.5 137.499
s50.5 121.166 50.5 200.499c0 42.667 -12.167 75 -36.5 97s-56.5 33 -96.5 33c-28.667 0 -48.334 -4.33301 -59.001 -13l-13 9l99 275c10 -1.33301 37.667 -5.33301 83 -12c23.333 -3.33301 42.833 -6 58.5 -8s27.5 -3 35.5 -3c9.33301 0 16.333 1.66699 21 5
s10.667 10 18 20z" />
    <glyph glyph-name="six" unicode="6" horiz-adv-x="400" 
d="M360 112c-23.333 -13.333 -50.998 -30.667 -82.998 -52l-109 -76c-48.667 18.667 -82.334 45 -101.001 79c-18 34.667 -27 88 -27 160v226c0 88 22.667 163.667 68 227s107.666 102 186.999 116l6 -15c-45.333 -18 -83 -53 -113 -105c-30 -51.333 -45 -100.333 -45 -147
v-11l48.5 33.5l61.5 45.5c20 -6.66699 36.833 -15 50.5 -25s24.667 -22.333 33 -37s14.333 -32.167 18 -52.5s5.5 -43.833 5.5 -70.5v-296zM257.002 66.999v336.999c0 18 -0.833008 33.5 -2.5 46.5s-5 24 -10 33s-12.167 16.5 -21.5 22.5s-21.333 11 -36 15l-44 -29v-258
c0 -60 6.33301 -100.667 19 -122s40.667 -38.666 84 -51.999z" />
    <glyph glyph-name="seven" unicode="7" horiz-adv-x="321" 
d="M304 574c2.66699 -104.667 -25.332 -214.334 -83.999 -329.001c-14.667 -28.667 -26.834 -54.667 -36.501 -78s-16.834 -43.666 -21.501 -60.999c-9.33301 -36 -14 -73 -14 -111c0 -45.333 19.667 -71.666 59 -78.999l1 -5l-90 -75
c-22.667 5.33301 -41.167 18.166 -55.5 38.499s-21.5 47.5 -21.5 81.5c0 82 33.333 170.333 100 265c12.667 18 25 37.5 37 58.5l37 67.5c24.667 48 39 86.333 43 115c-9.33301 0 -21.166 0.833008 -35.499 2.5s-31.166 4.16699 -50.499 7.5c-40.667 7.33301 -75 11 -103 11
c-16.667 0 -30.334 -9.33301 -41.001 -28l-17 9l63 122c33.333 0 66.666 -4 99.999 -12c34.667 -7.33301 62.334 -11 83.001 -11c15.333 0 27 5 35 15z" />
    <glyph glyph-name="eight" unicode="8" horiz-adv-x="353" 
d="M338 182c0 -73.333 -63.6689 -139.669 -191.002 -199.002c-36 2.66699 -67.333 19.334 -94 50.001c-25.333 30.667 -38 64.667 -38 102c0 36.667 8.83301 66.5 26.5 89.5s43.834 43.5 78.501 61.5c-34 20.667 -57.667 41.5 -71 62.5s-20 47.5 -20 79.5
c0 36 13.333 67.167 40 93.5s65 51.5 115 75.5c37.333 -1.33301 69 -14 95 -38c27.333 -25.333 41 -54 41 -86c0 -30.667 -7 -56.167 -21 -76.5s-38 -39.166 -72 -56.499c22.667 -13.333 41.334 -26 56.001 -38s25.667 -23 33 -33c14.667 -18.667 22 -47.667 22 -87z
M238.998 441.997c0 23.333 -11.667 44.667 -35 64c-23.333 18.667 -52.333 29.667 -87 33c-13.333 -12 -20 -29.333 -20 -52c0 -23.333 7.83301 -45 23.5 -65s44.5 -42.667 86.5 -68c21.333 18 32 47.333 32 88zM248.998 115.998c0 68 -36 119.666 -108 154.999
c-26 -25.333 -39 -59.333 -39 -102c0 -16 3.16699 -31.167 9.5 -45.5s15 -27.166 26 -38.499s23.833 -21 38.5 -29s30 -14 46 -18c18 10.667 27 36.667 27 78z" />
    <glyph glyph-name="nine" unicode="9" horiz-adv-x="400" 
d="M360 113c0 -76 -24.667 -142.666 -74 -199.999c-50 -58 -121.667 -92.333 -215 -103l-5 14c127.333 49.333 191 123.666 191 222.999v17l-25.5 -19c-9.66699 -7.33301 -20.834 -16.333 -33.501 -27l-30 -23.5c-7.33301 -5.66699 -12 -9.16699 -14 -10.5
c-30.667 8 -54.667 22.667 -72 44c-17.333 22 -28.666 46 -33.999 72s-8 58 -8 96v275l87 54c32 20.667 67 45 105 73c53.333 -23.333 88 -51 104 -83s24 -82.667 24 -152v-250zM257 86.001v274c0 54 -6 91.667 -18 113c-10.667 20.667 -37 38.667 -79 54l-16 -12v-307
c0 -51.333 5 -87.333 15 -108c9.33301 -20 29 -33.667 59 -41z" />
    <glyph glyph-name="colon" unicode=":" horiz-adv-x="206" 
d="M176 467l-38.5 -35.499l-35.5 -34.5l-72 70l32 30c12 11.333 25.333 24.666 40 39.999zM176 63.001c-20 -18 -44.667 -41.666 -74 -70.999l-72 71l32 30c12 11.333 25.333 24.666 40 39.999z" />
    <glyph glyph-name="semicolon" unicode=";" horiz-adv-x="206" 
d="M174 467c-20 -18 -44.333 -41.332 -73 -69.999l-72 70l32 30c12 11.333 25.333 24.666 40 39.999zM174 28.001c0 -27.333 -12.668 -55.333 -38.001 -84c-24.667 -27.333 -57 -48.333 -97 -63l-16 12c44.667 26.667 67 58.334 67 95.001c0 22.667 -17 47.667 -51 75l32 30
c12 11.333 25.333 24.666 40 39.999c20.667 -14 36.334 -29 47.001 -45s16 -36 16 -60z" />
    <glyph glyph-name="less" unicode="&#x3c;" horiz-adv-x="457" 
d="M413 111c-24.667 14.667 -52.001 29.6699 -82.001 45.0029s-63.333 31 -100 47c-72 31.333 -134.333 52.666 -187 63.999v63c46.667 8 107 28 181 60c38 16 72.5 31.667 103.5 47s59.167 30.666 84.5 45.999v-63c-64 -37.333 -148.667 -78 -254 -122
c94.667 -34.667 179.334 -75.334 254.001 -122.001v-65z" />
    <glyph glyph-name="equal" unicode="=" horiz-adv-x="457" 
d="M417 399l-40.999 -71c-8.66699 0 -26 0.333008 -52 1s-61 1.66699 -105 3s-78.5 2.33301 -103.5 3s-40.833 1 -47.5 1c-7.33301 0 -16 -1.66699 -26 -5l-2 3l35 72c8.66699 0.666992 26 0.5 52 -0.5s61 -2.16699 105 -3.5c44.667 -1.33301 79.5 -2.5 104.5 -3.5
s40.5 -1.5 46.5 -1.5c3.33301 0 7.66602 0.333008 12.999 1s11.333 1.66699 18 3zM417.001 274l-41 -71c-8.66699 0 -26 0.333008 -52 1s-61 1.66699 -105 3s-78.5 2.33301 -103.5 3s-40.833 1 -47.5 1c-11.333 0 -20 -1.33301 -26 -4l-2 3l35 71
c8.66699 0.666992 26 0.5 52 -0.5s61 -2.16699 105 -3.5c44.667 -1.33301 79.5 -2.5 104.5 -3.5s40.5 -1.5 46.5 -1.5c2 0 5.5 0.5 10.5 1.5s11.833 2.16699 20.5 3.5z" />
    <glyph glyph-name="greater" unicode="&#x3e;" horiz-adv-x="457" 
d="M413 267c-52.667 -11.333 -115.001 -32.668 -187.001 -64.001c-36.667 -16 -70 -31.667 -100 -47s-57.333 -30.333 -82 -45v65c74.667 46.667 159.334 87.334 254.001 122.001c-105.333 44 -190 84.667 -254 122v63c52 -30.667 114.333 -61.667 187 -93
c75.333 -32 136 -52 182 -60v-63z" />
    <glyph glyph-name="question" unicode="?" horiz-adv-x="378" 
d="M328 499c0 -54 -15.502 -97.168 -46.502 -129.501s-79.5 -56.5 -145.5 -72.5c22 -35.333 44.667 -60 68 -74v-3l-25.5 -22.5c-8.33301 -7.66699 -17.166 -15.167 -26.499 -22.5c-3.33301 7.33301 -10.5 21.5 -21.5 42.5l-43.5 85.5l17 24c47.333 12 80 30.333 98 55
s27 55.334 27 92.001c0 32.667 -10.333 57.167 -31 73.5s-49 24.5 -85 24.5c-14 0 -29 -8.66699 -45 -26l-14 9c8 12.667 17.5 28.667 28.5 48l38.5 67c64.667 -3.33301 115.334 -19.5 152.001 -48.5s55 -69.833 55 -122.5zM226.998 62.999
c-20 -18 -44.667 -41.666 -74 -70.999l-72 71l32 30c12 11.333 25.333 24.666 40 39.999z" />
    <glyph glyph-name="at" unicode="@" horiz-adv-x="839" 
d="M789 358c0 -52.667 -8.66406 -104.333 -25.9971 -155c-16.667 -48.667 -43.334 -90.667 -80.001 -126c-36 -34 -77 -51 -123 -51c-52.667 0 -84.334 19.333 -95.001 58c-34 -23.333 -68.333 -43.333 -103 -60c-21.333 0 -40.5 3.83301 -57.5 11.5
s-31.833 18.334 -44.5 32.001s-22.334 30.167 -29.001 49.5s-10 40.666 -10 63.999c0 74.667 27 142.667 81 204c54 60.667 111.333 91 172 91c19.333 0 37 -3.33301 53 -10c16.667 -6 27 -9 31 -9c12 0 26.333 10.333 43 31l30 -13
c-2.66699 -5.33301 -5.16699 -12.666 -7.5 -21.999l-8.5 -33l-60 -279c-2.66699 -10.667 -4 -20.334 -4 -29.001c0 -16.667 6.33301 -25 19 -25c30 0 57 16 81 48s41.667 67.833 53 107.5s17 76.5 17 110.5c0 68 -20.833 120.5 -62.5 157.5s-98.5 55.5 -170.5 55.5
c-100.667 0 -186.334 -39 -257.001 -117c-70 -78 -105 -167.667 -105 -269c0 -70.667 18.833 -125.5 56.5 -164.5s94.834 -58.5 171.501 -58.5c6 0 21.667 1 47 3l-39 -70c-3.33301 -0.666992 -7 -1 -11 -1h-13c-86 0 -155.333 26.333 -208 79
c-53.333 52 -80 120.333 -80 205c0 123.333 43.667 230.333 131 321c88 90.667 194 136 318 136c84 0 153.333 -24.667 208 -74c54.667 -48.667 82 -114.667 82 -198zM525.003 396.001c-16.667 16.667 -36.333 25.001 -59 25.001c-35.333 0 -69.666 -25.667 -102.999 -77
c-32.667 -50.667 -49 -102.667 -49 -156c0 -30.667 5.83301 -53.334 17.5 -68.001s25.5 -22 41.5 -22c21.333 0 53.666 18 96.999 54z" />
    <glyph glyph-name="A" unicode="A" horiz-adv-x="640" 
d="M621 95l-19.499 -20.5029c-7.66699 -8.33301 -17.167 -18.166 -28.5 -29.499s-20.5 -20.833 -27.5 -28.5s-12.167 -13.167 -15.5 -16.5c-8 6 -16.833 13.167 -26.5 21.5l-30 25.5l-31 25c-10.333 8 -19.833 15 -28.5 21h-2c-15.333 -16 -42.333 -47 -81 -93
c-130 42.667 -219.333 64 -268 64c-22 -29.333 -33 -58.333 -33 -87h-3l-25 22c2.66699 12.667 7.33398 26 14.001 40s15.334 28.667 26.001 44l333 478c-14.667 38 -34 65.667 -58 83s-56 26 -96 26c-22 0 -42.5 -3 -61.5 -9s-35.5 -14.667 -49.5 -26
s-25 -25.166 -33 -41.499s-12 -34.833 -12 -55.5c0 -73.333 33.333 -123 100 -149v-2l-37 -13c-58 36.667 -87 93 -87 169c0 56.667 20.333 106.334 61 149.001c41.333 43.333 94.666 65 159.999 65c51.333 0 92.666 -8.33301 123.999 -25s57.666 -41 78.999 -73
c15.333 36 42.333 63.333 81 82l5 -1c-14 -24 -21 -51.667 -21 -83v-509l47.5 -26.5l43.5 -23.5v-3zM248.001 335.997h166v241h-3zM414.001 266.997h-212.998l-75 -108l1 -2c25.333 -2 58.666 -8 99.999 -18l57.5 -14c18.333 -4.66699 34.666 -8.66699 48.999 -12l35.5 -8.5
c9.33301 -2.33301 15 -3.5 17 -3.5c12 0 21.333 4.33301 28 13v153z" />
    <glyph glyph-name="B" unicode="B" horiz-adv-x="675" 
d="M639 206c0 -43.333 -27.6709 -83.999 -83.0039 -121.999l-144 -99c-78 35.333 -144 57 -198 65c-15.333 2.66699 -31 4 -47 4c-82.667 0 -124 -41 -124 -123l-3 -1l-22 19c8 52 23.833 94 47.5 126s50.5 52 80.5 60c11.333 24.667 17 57.334 17 98.001v117h-14
c-49.333 0 -81.333 -15 -96 -45l-9 4c4.66699 50 17.334 87 38.001 111s46.334 36 77.001 36h4v128l-50.5 36c-13 9.33301 -22.833 15.666 -29.5 18.999c-13.333 8 -26 12 -38 12c-3.33301 0 -6.16602 -0.166992 -8.49902 -0.5s-5.16602 -1.5 -8.49902 -3.5l-10 -7
c-4.66699 -3.33301 -9 -7 -13 -11l-12 14l126 106l54.5 -40l101.5 -73l46 32v13c0 23.333 -3 44.666 -9 63.999v2l21 -3c4 -16 6 -34.667 6 -56v-7l95 67c11.333 -8.66699 23.833 -19.5 37.5 -32.5l46.5 -46.5l48.5 -51.5c15 -16.333 28.167 -31.833 39.5 -46.5l-142 -101
c54 -7.33301 96.667 -27 128 -59s47 -72 47 -120v-85zM338.996 407.001l156 109.999c-8.66699 12.667 -18.667 25.834 -30 39.501s-24.333 28.167 -39 43.5c-28 31.333 -52.333 54 -73 68l-14 -9v-252zM523.996 264c0 42 -13.667 74.333 -41 97s-65.333 34 -114 34
c-11.333 0 -21.333 -3 -30 -9v-244c45.333 -11.333 102 -34.333 170 -69l3 2c8 12.667 12 36.667 12 72v117zM320.996 646l-42 -30v-333c0 -24.667 -8.33301 -46.334 -25 -65.001c-5.33301 -5.33301 -9.33301 -9.66602 -12 -12.999s-7.66699 -8.33301 -15 -15
c-3.33301 -3.33301 -6.5 -6.16602 -9.5 -8.49902s-5.16699 -4.16602 -6.5 -5.49902c-4 -2.66699 -10.333 -7.83398 -19 -15.501s-15 -12.834 -19 -15.501l1 -2c26.667 8.66699 54 13 82 13c13.333 0 35 -3 65 -9v499z" />
    <glyph glyph-name="C" unicode="C" horiz-adv-x="681" 
d="M687 713c-16.667 -23.333 -33.332 -45.3359 -49.999 -66.0029s-33.334 -39.667 -50.001 -57c-50.667 18.667 -99.334 38.667 -146.001 60v-576c3.33301 -0.666992 9 -1 17 -1h29c72 0 132.667 19 182 57l8 -12c-14.667 -20 -30.834 -38.333 -48.501 -55
s-37.5 -30.667 -59.5 -42s-46.667 -20.166 -74 -26.499s-58 -9.5 -92 -9.5c-103.333 0 -186.666 29.667 -249.999 89c-62 58.667 -93 141.334 -93 248.001c0 70.667 21 137 63 199c43.333 63.333 88.666 106.333 135.999 129l13 -9
c-28.667 -26.667 -51.667 -63.334 -69 -110.001c-16 -46 -24 -91.333 -24 -136c0 -90 18 -161 54 -213c16 12 27 25.667 33 41s9 35.333 9 60v297c30 22.667 61.5 47.834 94.5 75.501l106.5 91.5l60.5 -23.5c17 -6.33301 30.833 -11.166 41.5 -14.499
c20.667 -6.66699 41.334 -10 62.001 -10c10.667 0 21.334 8.33301 32.001 25zM423.002 658.997l-10.999 5l-30 -24v-379l-72 -46l-68 -46c41.333 -52 101.666 -83.333 180.999 -94v584z" />
    <glyph glyph-name="D" unicode="D" horiz-adv-x="723" 
d="M677 263c0 -32 -5.33789 -60.665 -16.0049 -85.998s-28.667 -49.333 -54 -72c-12.667 -11.333 -25.167 -21.833 -37.5 -31.5s-25.166 -18.834 -38.499 -27.501s-28.833 -18 -46.5 -28l-60.5 -34l-57 18c-16.667 5.33301 -31.667 9.66602 -45 12.999
c-25.333 7.33301 -56.666 14 -93.999 20s-74.666 9 -111.999 9c-30 0 -60 -15.333 -90 -46l-15 17l98 88c42.667 38 64 83.333 64 136v74h-13c-49.333 0 -81.333 -15 -96 -45l-11 2c2.66699 52 14.834 89.833 36.501 113.5s48.5 35.5 80.5 35.5h3v31
c0 26.667 7.83301 50.5 23.5 71.5s42.5 43.5 80.5 67.5l-2 2c-38.667 -10.667 -71.667 -16 -99 -16c-66 0 -116.333 53 -151 159l10 13c28.667 -48 70.334 -72 125.001 -72c13.333 0 31.166 1.5 53.499 4.5s49.5 7.16699 81.5 12.5c64.667 12 110.334 18 137.001 18
c163.333 0 245 -83.667 245 -251v-196zM347.995 351.002l213.998 99c-0.666992 28 -4 52.167 -10 72.5s-15.667 36.833 -29 49.5s-30.666 22 -51.999 28s-47.666 9 -78.999 9c-4 0 -9.66699 -0.333008 -17 -1s-16.333 -1.66699 -27 -3v-254zM347.993 258.002l214 99v76
l-214 -98v-77zM561.993 340.002l-214 -98.002v-119c24.667 -5.33301 52 -12.166 82 -20.499s63 -18.166 99 -29.499c22 16.667 33 62 33 136v131zM329.993 602l-4.99902 -1c-24 -5.33301 -36 -20.333 -36 -45v-252c0 -17.333 -2.16699 -33.333 -6.5 -48
s-11.333 -28.667 -21 -42s-21.834 -26.833 -36.501 -40.5s-32 -28.5 -52 -44.5l1 -2c28 10 45.667 15 53 15c20.667 0 55 -5 103 -15v475z" />
    <glyph glyph-name="E" unicode="E" horiz-adv-x="681" 
d="M687 713c-16.667 -23.333 -33.335 -45.335 -50.002 -66.002s-33.334 -39.667 -50.001 -57c-50.667 18.667 -99.334 38.667 -146.001 60v-205h163c-3.33301 -18.667 -7.16602 -38 -11.499 -58s-7.83301 -38 -10.5 -54c-14.667 8.66699 -32.667 13 -54 13h-87v-272
c3.33301 -0.666992 9 -1 17 -1h29c71.333 0 133.333 20.333 186 61l8 -12c-15.333 -21.333 -31.833 -40.333 -49.5 -57s-37.5 -31 -59.5 -43s-47 -21.167 -75 -27.5s-59.333 -9.5 -94 -9.5c-103.333 0 -186.666 29.667 -249.999 89c-62 58.667 -93 141.334 -93 248.001
c0 70.667 21 136.667 63 198c43.333 62 89 105.333 137 130l12 -9c-28.667 -26.667 -51.667 -63.334 -69 -110.001c-16 -46 -24 -91.333 -24 -136c0 -89.333 18.333 -160.333 55 -213c27.333 19.333 41 53 41 101v297c30 22.667 61.5 47.834 94.5 75.501l106.5 91.5
l60.5 -23.5c17 -6.33301 30.833 -11.166 41.5 -14.499c20.667 -6.66699 41.334 -10 62.001 -10c10.667 0 21.334 8.33301 32.001 25zM422.999 658.998l-11 5l-30 -26v-377l-71.5 -46l-67.5 -46c40 -50 100 -81 180 -93v583z" />
    <glyph glyph-name="F" unicode="F" horiz-adv-x="668" 
d="M712 713c-35.333 -39.333 -72.6689 -78.666 -112.002 -117.999c-25.333 9.33301 -48.666 18.5 -69.999 27.5s-40.666 18.167 -57.999 27.5h-2v-172h150l-20 -112c-16 8 -36 12 -60 12h-70v-232c0 -28.667 -4.33301 -54.334 -13 -77.001s-25.667 -46.334 -51 -71.001
c-25.333 -25.333 -50.333 -47.333 -75 -66l-47.5 -35l-68.5 -49c-45.333 30 -93 45 -143 45c-19.333 0 -35.833 -6.5 -49.5 -19.5s-20.5 -28.167 -20.5 -45.5c0 -16.667 7 -34 21 -52l-1 -1l-31 8c-10.667 18.667 -16 41.334 -16 68.001c0 38.667 14 71.667 42 99
c28 26 59.333 39 94 39c25.333 0 50.666 -3 75.999 -9c16 24.667 24 59.667 24 105v287h-13c-49.333 0 -81.333 -15 -96 -45l-9 4c4.66699 50 17.334 87 38.001 111s46.334 36 77.001 36h3v49c0 19.333 -3.66699 35.333 -11 48v2c59.333 24 111 48.667 155 74l69.5 43.5
c24.333 15.667 49.833 33.167 76.5 52.5c1.33301 -0.666992 4 -1.83398 8 -3.50098s9.66699 -4.16699 17 -7.5l19 -8.5c5.33301 -2.33301 10 -4.16602 14 -5.49902c14 -4.66699 30.167 -9.66699 48.5 -15s34.166 -8 47.499 -8s27.333 8.33301 42 25zM361.997 630
l-49 -27.002v-463c0 -28.667 -4.66699 -54 -14 -76c-9.33301 -21.333 -20 -37 -32 -47c-6.66699 -5.33301 -15 -11.5 -25 -18.5l-35 -24.5c28.667 -8 59 -23.667 91 -47l16.5 13.5c7 5.66699 14 14.834 21 27.501s13.167 30.334 18.5 53.001s8 53 8 91v518z" />
    <glyph glyph-name="G" unicode="G" horiz-adv-x="810" 
d="M782 296c0 -63.333 -20.334 -119.334 -61.001 -168.001c-20 -24 -42.333 -45 -67 -63s-51 -33 -79 -45s-56.833 -20.833 -86.5 -26.5s-59.5 -8.5 -89.5 -8.5c-96 0 -176.333 30.333 -241 91c-65.333 61.333 -98 142.333 -98 243c0 72.667 20.667 140.667 62 204
c41.333 62.667 87.333 105.334 138 128.001l12 -10c-29.333 -27.333 -52.333 -64.666 -69 -111.999c-16.667 -45.333 -25 -91.333 -25 -138c0 -80.667 17.333 -150.334 52 -209.001c30 20 45 53.667 45 101v298c24 17.333 52.5 39.666 85.5 66.999l115.5 99
c80 -32 138 -48 174 -48c8.66699 0 19.334 8.33301 32.001 25l15 -11l-31.5 -42c-10.333 -13.333 -20.833 -26 -31.5 -38l-88 -102c70 -1.33301 126.667 -22.666 170 -63.999c44 -41.333 66 -98.333 66 -171zM443.999 431.999l135 164c-48 16.667 -94 34.667 -138 54v-218h3
zM440.999 256.999l213.999 96.001c-12 30 -30.167 52 -54.5 66s-51.5 21 -81.5 21c-19.333 -0.666992 -34.166 -3.83398 -44.499 -9.50098s-21.5 -12.167 -33.5 -19.5v-154zM440.998 164l230.001 102.999c-0.666992 13.333 -1.83398 25.833 -3.50098 37.5
s-4.16699 22.834 -7.5 33.501l-219 -97v-77zM440.999 147.999l-0.000976562 -106c3.33301 -0.666992 8.5 -1 15.5 -1h26.5c60.667 0 106.834 17.667 138.501 53s48.167 87.333 49.5 156zM422.998 658.999l-10.999 4.99902l-30 -25v-378l-74 -46.5l-69 -46.5
c45.333 -69.333 106.666 -110.666 183.999 -123.999v615z" />
    <glyph glyph-name="H" unicode="H" horiz-adv-x="717" 
d="M677 242c0 -144 -78.0049 -256.334 -234.005 -337.001l-18 17c51.333 28 86.833 65 106.5 111s29.5 103.667 29.5 173v109l-193 -87v-110c18.667 -3.33301 30.667 -5 36 -5c10 0 23 10 39 30l15 -11c-19.333 -23.333 -37.166 -46 -53.499 -68
s-31.166 -43.333 -44.499 -64c-58.667 25.333 -128.667 38 -210 38c-40.667 0 -75.667 -12.667 -105 -38l-14 16l83 76c52 48 78 94.333 78 139v142h-14c-49.333 0 -81.333 -15 -96 -45l-12 3c4.66699 50 17.834 87.167 39.501 111.5s47.834 36.5 78.501 36.5h3h1v138
c-46.667 30.667 -76 46 -88 46c-9.33301 0 -16.5 -2.33301 -21.5 -7s-11.5 -9.66699 -19.5 -15l-12 14l125 106l132 -95v-154l21 16.5c8.66699 7 15.334 12.167 20.001 15.5v137c0 23.333 -3 44.666 -9 63.999v2l23 -3c1.33301 -7.33301 2.5 -15.666 3.5 -24.999
s1.5 -19.666 1.5 -30.999v-130l98 77c140.667 -18 211 -98.667 211 -242v-151zM367.995 342.999l188 83c-8 39.333 -24.833 68.5 -50.5 87.5s-66.167 29.833 -121.5 32.5l-16 -11v-192zM367.995 246.999l193 88v25c0 11.333 -0.166992 21 -0.5 29s-0.833008 14.333 -1.5 19
l-191 -84v-77zM348.995 519.999l-41.001 -32v-185c0 -65.333 -40 -123.333 -120 -174l1 -2c23.333 8.66699 41 13 53 13c20.667 0 56.334 -5.66699 107.001 -17v397z" />
    <glyph glyph-name="I" unicode="I" horiz-adv-x="377" 
d="M379 712c-25.333 -19.333 -41.334 -41.0029 -48.001 -65.0029c-7.33301 -25.333 -11 -58.333 -11 -99v-335c0 -34 5 -55 15 -63v-6l-128.5 -100c-35 -26.667 -62.833 -46.667 -83.5 -60c-24 20 -45 30 -63 30c-20.667 0 -31 -14.333 -31 -43c0 -10 1 -17.333 3 -22l-3 -2
l-25 18c0 36 10.667 68.667 32 98c20.667 28.667 47.667 43 81 43c26.667 0 54.667 -13 84 -39l3 2v274h-13c-49.333 0 -81.333 -15 -96 -45l-9 4c0 50.667 11 87.834 33 111.501s49.333 35.5 82 35.5h3v49c0 34 7 61.833 21 83.5s35 44.5 63 68.5l-2 3
c-23.333 -13.333 -41.333 -20 -54 -20c-11.333 0 -31 5 -59 15c-27.333 10 -48.333 15 -63 15c-24 0 -36 -9 -36 -27c0 -10.667 1 -19 3 -25l-2 -1l-26 17c0 19.333 7.5 39 22.5 59s38.5 45.333 70.5 76c6.66699 -1.33301 15 -3.66602 25 -6.99902
s21.667 -7.66602 35 -12.999c28 -9.33301 52.833 -17 74.5 -23s40.834 -9 57.501 -9c14 0 26.333 4.33301 37 13z" />
    <glyph glyph-name="J" unicode="J" horiz-adv-x="496" 
d="M498 712c-12.667 -9.33301 -22.834 -19.1729 -30.501 -29.5059s-13.667 -22 -18 -35s-7.16602 -27.5 -8.49902 -43.5s-2 -34.667 -2 -56v-410c0 -21.333 -3.83301 -40.666 -11.5 -57.999s-21.5 -34.666 -41.5 -51.999s-47.167 -35.666 -81.5 -54.999
s-78.166 -41.666 -131.499 -66.999c-18.667 5.33301 -36.5 12.5 -53.5 21.5s-31.833 19.333 -44.5 31s-22.667 24.334 -30 38.001s-11 27.5 -11 41.5c0 47.333 36 89 108 125l13 -11c-10.667 -6 -18.667 -14.167 -24 -24.5s-8 -19.5 -8 -27.5c0 -14 3.5 -28 10.5 -42
s17 -27 30 -39s28.667 -22.333 47 -31s38.833 -14.334 61.5 -17.001c11.333 10 20.5 18.5 27.5 25.5s12.333 14 16 21s6 14.833 7 23.5s1.5 19.334 1.5 32.001v257h-13c-49.333 0 -81.333 -15 -96 -45l-15 4c2 52.667 14.167 90.334 36.5 113.001s50.5 34 84.5 34h3v48
c0 63.333 28 118.666 84 165.999l-2 3c-23.333 -13.333 -41.333 -20 -54 -20c-4 0 -12.833 1.5 -26.5 4.5s-28.334 6.5 -44.001 10.5s-30.667 7.5 -45 10.5s-23.833 4.5 -28.5 4.5c-19.333 0 -29 -9 -29 -27c0 -16 0.333008 -24.333 1 -25l-2 -1l-27 13
c0 18.667 8 38.334 24 59.001s40.333 47 73 79l55.5 -16c20.333 -6 40 -11.5 59 -16.5s36.5 -9.33301 52.5 -13s28.667 -5.5 38 -5.5c14 0 26.333 4.33301 37 13z" />
    <glyph glyph-name="K" unicode="K" horiz-adv-x="697" 
d="M703 104c-4.66699 -5.33301 -10.5 -13.166 -17.5 -23.499l-25.5 -37.5c-9.33301 -14.667 -17 -26.167 -23 -34.5l-12 -16.5c-32.667 0 -60.5 8 -83.5 24s-37.5 38 -43.5 66l-27 133c-10.667 56.667 -41 85 -91 85c-7.33301 0 -16.333 -3.33301 -27 -10v-171l22 -3.5
c6 -1 11.333 -1.5 16 -1.5c7.33301 0 17.666 8 30.999 24l16 -12c-15.333 -17.333 -46 -59.333 -92 -126l-37.5 14c-10.333 4 -18.166 6.66699 -23.499 8c-10.667 3.33301 -27.834 6.83301 -51.501 10.5s-52.5 5.5 -86.5 5.5c-45.333 0 -84.666 -12.667 -117.999 -38l-13 16
l73 64c28.667 25.333 50.5 49.666 65.5 72.999s22.5 49.666 22.5 78.999v106h-13c-49.333 0 -81.333 -15 -96 -45l-9 4c2.66699 50.667 14.5 87.834 35.5 111.501s47.5 35.5 79.5 35.5h3v182l54 24.5l71 34.5c54 26.667 96.333 49.334 127 68.001
c42.667 -28.667 77.334 -43 104.001 -43c12.667 0 25 8.66699 37 26l14 -12c-32 -40 -65.333 -78.333 -100 -115c-63.333 24 -112.666 47.667 -147.999 71l-43 -21v-193l187 133c24 -24 46.5 -48.667 67.5 -74s40.167 -52 57.5 -80l-132 -85v-1
c12 -0.666992 24.167 -3.33398 36.5 -8.00098s23.666 -10.667 33.999 -18s19.166 -16 26.499 -26s12 -21 14 -33l23 -109c6 -28 12.5 -47.167 19.5 -57.5s16.5 -15.5 28.5 -15.5c10.667 0 21 8.33301 31 25zM496 397c-8.66699 17.333 -23.668 39.668 -45.001 67.001
c-9.33301 13.333 -18.166 24.666 -26.499 33.999s-15.833 17.333 -22.5 24l-49 -35v-178zM333.999 473.002c-6 -4 -13.667 -9.5 -23 -16.5l-18 -13.5v-140c0 -67.333 -40 -125.333 -120 -174l1 -2c22 8.66699 40 13 54 13c20 0 55.333 -5.66699 106 -17v350z" />
    <glyph glyph-name="L" unicode="L" horiz-adv-x="592" 
d="M598 712l-49.5029 -61.998c-16.333 -20 -33.166 -39 -50.499 -57c-30 11.333 -57.5 23.166 -82.5 35.499s-48.167 25.166 -69.5 38.499v-526l34.5 -6.5c12.333 -2.33301 25.166 -5.16602 38.499 -8.49902l63.5 -14.5c15.667 -3.66699 26.5 -5.5 32.5 -5.5
c13.333 2.66699 22.666 7 27.999 13s12.333 16 21 30l19 -13l-103 -145l-62 15.5l-45 10.5c-12 3.33301 -27.167 6.5 -45.5 9.5s-40.166 6.16699 -65.499 9.5c-24.667 3.33301 -49.167 5.83301 -73.5 7.5s-48.833 2.5 -73.5 2.5c-26 0 -56.333 -15.333 -91 -46l-15 17l86 77
c16.667 14.667 30 28.667 40 42s17.333 25.666 22 36.999c9.33301 26.667 14 60 14 100v77h-13c-49.333 0 -81.333 -15 -96 -45l-9 4c4.66699 50 17.334 87 38.001 111s46.334 36 77.001 36h3v170c52.667 20.667 136.667 62.667 252 126c54.667 -36 96.334 -54 125.001 -54
c10 0 22 8.66699 36 26zM327.997 674.002l-4.00098 3.00098l-37 -18v-336c0 -62.667 -26.333 -115.334 -79 -158.001l-37 -30l4 -5c22.667 12 47 18 73 18c12.667 0 25.834 -0.5 39.501 -1.5s27.167 -2.16699 40.5 -3.5v531z" />
    <glyph glyph-name="M" unicode="M" horiz-adv-x="951" 
d="M944 101l-29.0029 -34.5l-60 -74.5c-53.333 30.667 -101.333 51.667 -144 63v6c45.333 29.333 68 72 68 128v174l-126 -57v-204c8.66699 -3.33301 18.667 -6.33301 30 -9v-3l-90 -97l-58.5 38c-19 12 -37.5 23 -55.5 33v299l-123 -55v-200c22.667 -4 34.667 -6 36 -6
c11.333 0 24.666 10 39.999 30l14 -11l-55 -70l-43 -58c-62.667 25.333 -133.334 38 -212.001 38c-20.667 0 -37 -2.33301 -49 -7c-7.33301 -2 -13.166 -3.83301 -17.499 -5.5s-8.16602 -3.66699 -11.499 -6s-6.83301 -5.16602 -10.5 -8.49902s-8.5 -7.33301 -14.5 -12
l-14 17l78 70c55.333 49.333 83 99.333 83 150v99h-13c-49.333 0 -81.333 -15 -96 -45l-9 4c4.66699 50 17.334 87 38.001 111s46.334 36 77.001 36h3v143l-28.5 19.5l-17.5 11.5c-3.33301 2.66699 -7.5 5.66699 -12.5 9s-10.5 6.66602 -16.5 9.99902
c-12 7.33301 -21 12 -27 14s-12 3 -18 3c-10.667 0 -23.334 -7.33301 -38.001 -22l-13 14l126 106l157 -113l45 33v11c0 24 -3 45.667 -9 65v2l22 -3c4 -16 6 -34.333 6 -55v-6l90 67c7.33301 -6 16 -12.5 26 -19.5l32 -23.5l60 -39l24 -15l30.5 21
c7.66699 5.33301 12.834 9 15.501 11c-1.33301 24.667 -4.33301 44.667 -9 60v2l22 -3c2.66699 -16 4.66699 -31 6 -45l26 19c10.667 8 23.667 18.333 39 31c20 -4 39.333 -10.667 58 -20s37.334 -22 56.001 -38s33.667 -37.333 45 -64s17 -57 17 -91v-233
c0 -37.333 -6 -67.333 -18 -90s-34.333 -46 -67 -70v-3c52.667 -15.333 97.667 -25 135 -29v-3zM652.997 415l126.001 58v22c0 49.333 -10.333 86.833 -31 112.5s-52.334 44.167 -95.001 55.5v-248zM652.998 322l126 58v76l-126 -57v-77zM633.998 109v547l-39 -28v-504z
M355.998 417l123 56v110l-116 77l-7 -5v-238zM355.998 324l123 56v76l-123 -55v-77zM336.998 640l-41 -30.999v-320c0 -62.667 -40 -118.334 -120 -167.001l3 -4c28 7.33301 44.667 11 50 11c15.333 0 51.333 -5.66699 108 -17v528z" />
    <glyph glyph-name="N" unicode="N" horiz-adv-x="699" 
d="M692 104c-5.33301 -7.33301 -14.001 -17.998 -26.001 -31.998l-34.5 -42.5c-11 -13.667 -20.5 -26.167 -28.5 -37.5c-38 28 -86.667 50.667 -146 68v6c46 30.667 69 70.334 69 119.001v173l-170 -77v-174c22.667 -4 34.334 -6 35.001 -6c10.667 0 23.667 10 39 30l16 -11
c-64.667 -83.333 -97.334 -126 -98.001 -128c-58.667 25.333 -129.334 38 -212.001 38c-22 0 -40.333 -2.66699 -55 -8c-13.333 -5.33301 -29.333 -15.333 -48 -30l-14 16l85 77c50.667 46.667 76 90.667 76 132v109h-11c-49.333 0 -81.333 -15 -96 -45l-9 4
c4.66699 50 17 87 37 111s45.333 36 76 36h3v144c-20.667 14.667 -38 26.5 -52 35.5s-24.667 15.5 -32 19.5c-15.333 8 -27.666 12 -36.999 12c-8 0 -20.333 -7.33301 -37 -22l-13 14l126 106l157 -113l24.5 17.5c9.66699 7 16.5 11.833 20.5 14.5v12c0 24 -3 45.667 -9 65
v2l22 -3c4 -16 6 -34.333 6 -55v-8l90 66c28.667 -5.33301 55 -13.833 79 -25.5s44.667 -26.667 62 -45s30.833 -40 40.5 -65s14.5 -53.5 14.5 -85.5v-212c0 -28.667 -4 -53.334 -12 -74.001c-7.33301 -20.667 -16.333 -36.334 -27 -47.001
c-4.66699 -5.33301 -10.834 -11.5 -18.501 -18.5s-17.167 -15.167 -28.5 -24.5v-3c24.667 -9.33301 48.334 -16.833 71.001 -22.5s44.334 -9.83398 65.001 -12.501zM355.999 394.002l169.999 78.001v10c0 58 -14.167 100.167 -42.5 126.5s-67.166 43.166 -116.499 50.499
l-11 -9v-256zM355.998 301.003l170 78v73l-170 -77v-74zM336.998 637.003l-41 -30v-318c0 -62 -40 -118 -120 -168l3 -4c25.333 7.33301 43 11 53 11c13.333 0 48.333 -5.66699 105 -17v526z" />
    <glyph glyph-name="O" unicode="O" horiz-adv-x="864" 
d="M827 372c0 -54 -8.99805 -103.166 -26.998 -147.499s-41.333 -80.833 -70 -109.5c-22 -22 -45.833 -41.167 -71.5 -57.5s-51.834 -30 -78.501 -41s-53.167 -19.167 -79.5 -24.5s-50.833 -7.66602 -73.5 -6.99902c-104.667 0 -192 32 -262 96
c-70 64.667 -105 149.667 -105 255c0 74 18.667 138.333 56 193c37.333 54 83.666 95.667 138.999 125l12 -10c-28 -22 -49.667 -55 -65 -99s-23 -94 -23 -150c0 -81.333 16.333 -152.333 49 -213c17.333 12 28.666 25 33.999 39s8 34.667 8 62v299
c45.333 31.333 85.333 61 120 89s64.334 54.667 89.001 80c50 -4.66699 96.167 -15.167 138.5 -31.5s79 -39.833 110 -70.5s55.333 -68.834 73 -114.501s26.5 -99.834 26.5 -162.501zM436.002 361.001l248 113c-36 106 -118.667 169 -248 189v-302zM436.002 268.001
l265.999 121c-1.33301 14 -3.16602 26.833 -5.49902 38.5s-4.83301 22.167 -7.5 31.5l-253 -114v-77zM706.001 326.001c0 7.33301 -0.166992 15 -0.5 23s-0.833008 16.333 -1.5 25l-268 -122v-223c12 -2 25 -3 39 -3c72 0 128.5 25.5 169.5 76.5s61.5 125.5 61.5 223.5z
M418.001 666.001l-41.001 -35v-370l-141 -93c42.667 -72 103.334 -117.333 182.001 -136v634z" />
    <glyph glyph-name="P" unicode="P" horiz-adv-x="703" 
d="M651 126c-25.333 -14.667 -52.8311 -33 -82.498 -55s-62.5 -48 -98.5 -78c-16.667 9.33301 -35.667 18 -57 26s-44.666 14.667 -69.999 20v-162c0 -24 3 -45.333 9 -64v-2l-22 3c-1.33301 7.33301 -2.5 15.666 -3.5 24.999s-1.5 19.666 -1.5 30.999v172
c-9.33301 1.33301 -17.5 2.33301 -24.5 3s-12.833 1.33398 -17.5 2.00098v-156c0 -11.333 0.5 -23 1.5 -35s2.16699 -24.333 3.5 -37l-3 -1c-8.66699 8 -17.667 18.667 -27 32s-15.333 26 -18 38h-3c-21.333 -40 -50.333 -69 -87 -87l-3 1c13.333 28.667 20 63.667 20 105
v147h-51c-44.667 0 -73.334 -15 -86.001 -45l-10 4c3.33301 44 16 80.167 38 108.5s50.667 42.5 86 42.5h23v150h-20c-44.667 0 -73.334 -15 -86.001 -45l-10 4c4.66699 44 16.167 79.5 34.5 106.5s44.5 40.5 78.5 40.5h3v166c-63.333 43.333 -101.333 65 -114 65
c-10.667 0 -24.334 -7.33301 -41.001 -22l-12 14l125 106l161 -117l39 26v23c0 23.333 -3 44.666 -9 63.999v2l22 -3c1.33301 -7.33301 2.5 -15.666 3.5 -24.999s1.5 -19.666 1.5 -30.999v-18l117 80c127.333 -24 191 -105 191 -243v-381zM343.002 380l192 90.002v32
c0 26 -3.5 48.333 -10.5 67s-17.167 34.667 -30.5 48s-29.833 24.166 -49.5 32.499s-42.5 15.166 -68.5 20.499l-33 -23v-267zM343.002 287.002l192 90v73l-192 -89v-74zM325.002 635.002l-42 -28v-448c12.667 0 26.667 -1 42 -3v479zM535.002 90.002l0.000976562 267
l-192 -89v-115c69.333 -8.66699 132.666 -30 189.999 -64z" />
    <glyph glyph-name="Q" unicode="Q" horiz-adv-x="869" 
d="M855 -22l-110.002 -120.998c-3.33301 2.66699 -7.83301 6 -13.5 10l-21.5 15l-22 15.5c-6 4.33301 -10.667 7.83301 -14 10.5s-7.66602 5.66699 -12.999 9s-11.666 7.66602 -18.999 12.999c-14.667 9.33301 -26.834 16.333 -36.501 21l-34.5 16
c-13.333 6 -26.5 10.833 -39.5 14.5s-26.5 6.83398 -40.5 9.50098c-23.333 -4 -44.666 -6 -63.999 -6c-106.667 0 -194.334 31 -263.001 93c-69.333 63.333 -104 149.333 -104 258c0 74 18.667 138.333 56 193c37.333 54 83.666 95.667 138.999 125l12 -10
c-28 -22 -49.667 -55 -65 -99s-23 -94 -23 -150c0 -81.333 16.333 -152.333 49 -213c28 20.667 42 54.334 42 101.001v299c45.333 31.333 85.333 61 120 89s64.334 54.667 89.001 80c50 -4.66699 96.167 -15.167 138.5 -31.5s79 -39.833 110 -70.5
s55.333 -68.834 73 -114.501s26.5 -99.834 26.5 -162.501c0 -140 -58.667 -246.667 -176 -320c20.667 -8.66699 42.334 -21.334 65.001 -38.001l53.5 -38c13.667 -10 24.5 -15 32.5 -15c11.333 0 24 9.66699 38 29zM435.998 361.002l248 113c-36 106 -118.667 169 -248 189
v-302zM435.998 268.002l265.999 121c-3.33301 26 -7.66602 48.333 -12.999 67l-253 -114v-74zM705.997 326.002c0 4.66699 -0.166992 10.667 -0.5 18s-0.833008 16 -1.5 26l-268 -121v-220c12 -2 25 -3 39 -3c72 0 128.5 25.5 169.5 76.5s61.5 125.5 61.5 223.5z
M417.997 666.002l-41 -35v-370c-50 -31.333 -97 -62.333 -141 -93c43.333 -74 104 -119.333 182 -136v634z" />
    <glyph glyph-name="R" unicode="R" horiz-adv-x="697" 
d="M703 105l-79.9971 -112.003c-36.667 0 -67 10.667 -91 32s-39.333 52.333 -46 93l-19 119c-6.66699 42 -17 70 -31 84c-14 15.333 -38.333 24.333 -73 27l-21 -11v-230c22.667 -4 34.667 -6 36 -6c10 0 22.667 10 38 30l16 -11c-20 -24 -38 -46.667 -54 -68
s-30.333 -41.333 -43 -60c-20.667 8.66699 -40 15.834 -58 21.501s-34.667 10.167 -50 13.5c-32.667 7.33301 -68.667 11 -108 11c-22.667 0 -40.834 -2.83301 -54.501 -8.5s-28.834 -15.5 -45.501 -29.5l-14 16l87 80c22.667 20.667 40.667 41.667 54 63s20 47 20 77v114
h-21c-48 0 -78.333 -15 -91 -45l-10 4c2 46.667 13 82.834 33 108.501s48 38.5 84 38.5h5v126c-58.667 44.667 -96.334 67 -113.001 67c-12.667 0 -26.334 -7.33301 -41.001 -22l-12 14l126 106l155 -115l42 27v22c0 23.333 -3 44.666 -9 63.999v2l23 -3
c1.33301 -7.33301 2.5 -15.666 3.5 -24.999s1.5 -19.666 1.5 -30.999v-17l118 76c46.667 -14 83.334 -32.833 110.001 -56.5s40 -57.5 40 -101.5c0 -79.333 -46.333 -139 -139 -179c62 -7.33301 100.333 -53 115 -137l17 -98c6 -33.333 13.5 -55 22.5 -65s19.5 -15 31.5 -15
c9.33301 0 19 8 29 24zM490.003 538.997c0 36.667 -9.66699 65.499 -29 86.499s-47 36.5 -83 46.5l-36 -23v-290c54.667 24 93 49.833 115 77.5s33 61.834 33 102.501zM323.003 636.996l-41.001 -26v-297c0 -42 -10.167 -77 -30.5 -105s-50.166 -54.667 -89.499 -80l1 -2
c18.667 6 37 9 55 9c4 0 10.333 -1 19 -3l28 -6.5c10 -2.33301 20.167 -5 30.5 -8s19.5 -5.5 27.5 -7.5v526z" />
    <glyph glyph-name="S" unicode="S" horiz-adv-x="630" 
d="M602 317c0 -36 -7 -67.8301 -21 -95.4971s-38 -57.5 -72 -89.5l-82.5 -73.5l-82.5 -69.5c-22 11.333 -41.667 21 -59 29s-33.333 14.667 -48 20s-28.5 9.16602 -41.5 11.499s-25.833 3.5 -38.5 3.5c-36 0 -64.333 -9.33301 -85 -28s-31 -52.667 -31 -102h-2l-31 26
c8.66699 59.333 30.667 109.666 66 150.999s75.666 62 120.999 62c68 0 148.667 -22 242 -66c16 16.667 28 30.667 36 42c8 10.667 15.5 24.334 22.5 41.001s10.5 34 10.5 52c0 37.333 -10.167 65.666 -30.5 84.999s-55.166 29 -104.499 29h-32
c-8.66699 0 -15.667 -0.333008 -21 -1c-16 -30.667 -34.5 -55.167 -55.5 -73.5s-37.5 -29.5 -49.5 -33.5l-34 28l1 2c13.333 -0.666992 32 6.66602 56 21.999c22.667 16 39.667 33.667 51 53c-143.333 0 -215 58.667 -215 176c0 48 18.833 90.667 56.5 128
s91.834 73 162.501 107c74.667 -17.333 147.667 -41.333 219 -72c9.33301 12.667 18.666 24.167 27.999 34.5s18.666 19.833 27.999 28.5h2l14 -25c-10.667 -8 -23.167 -20 -37.5 -36s-30.166 -36 -47.499 -60c-17.333 -23.333 -34.333 -47.833 -51 -73.5l-50 -80.5
c137.333 -9.33301 206 -60 206 -152zM439 582.003c-74.667 52.667 -151.332 85.333 -229.999 98c-38 -21.333 -57 -51.333 -57 -90c0 -22 3 -40.667 9 -56s15.667 -27.833 29 -37.5s31 -16.667 53 -21s49 -6.5 81 -6.5h25c7.33301 0 13.666 0.333008 18.999 1l34.5 55.5z
" />
    <glyph glyph-name="T" unicode="T" horiz-adv-x="717" 
d="M723 739c-9.33301 -25.333 -18.499 -46.499 -27.499 -63.499s-18.5 -30.833 -28.5 -41.5s-21 -18.167 -33 -22.5s-25.333 -6.5 -40 -6.5c-16.667 0 -38.334 2.66699 -65.001 8v-534c16.667 0 33.5 1.66699 50.5 5s33.5 7.66602 49.5 12.999s30.833 11.5 44.5 18.5
s25.5 14.5 35.5 22.5l10 -16c-64 -91.333 -154.333 -137 -271 -137c-97.333 0 -176.333 30.333 -237 91c-62 60.667 -93 140.667 -93 240c0 35.333 5.5 68.833 16.5 100.5s26.333 61.334 46 89.001s43.5 53 71.5 76s59 43.5 93 61.5
c-16.667 1.33301 -31.834 2.33301 -45.501 3s-25.834 1 -36.501 1c-40 0 -76.333 -14 -109 -42c-31.333 -27.333 -60.333 -77.666 -87 -150.999l-19 7c11.333 74 28.333 132.333 51 175c11.333 21.333 23.5 39.166 36.5 53.499s27.167 25.666 42.5 33.999
s32.333 14.333 51 18s39 5.5 61 5.5c20.667 0 45 -2 73 -6s60.333 -9.66699 97 -17s70.334 -12.833 101.001 -16.5s58.334 -5.5 83.001 -5.5c10 0 19.5 3.16699 28.5 9.5s21.5 19.5 37.5 39.5zM511.001 616.001c-4 0.666992 -10.667 2.16699 -20 4.5
s-16.333 3.83301 -21 4.5v-361l-161 -110c46.667 -48.667 114 -73.667 202 -75v537zM363.001 641.001l-2 -0.000976562c-82 -79.333 -123 -170 -123 -272c0 -83.333 19.667 -150.666 59 -201.999l34 24c21.333 15.333 32 47.333 32 96v354z" />
    <glyph glyph-name="U" unicode="U" horiz-adv-x="718" 
d="M642 146l81.998 -50l-49.5 -51.5l-44.5 -49.5c-21.333 20.667 -41.166 38.667 -59.499 54l-49.5 40l-135 -97l-122.5 48.5c-35.667 13.667 -67.5 24.834 -95.5 33.501v279h-17c-49.333 0 -81.333 -15 -96 -45l-9 4c4.66699 50 17.5 87.333 38.5 112s46.833 37 77.5 37h6
v116c-35.333 26.667 -61.333 44.667 -78 54c-17.333 9.33301 -33 14 -47 14c-7.33301 0 -18.666 -6.66699 -33.999 -20l-12 13l126 104l161 -115v-484l42 -11v544c0 23.333 -3 44.666 -9 63.999v2l21 -3c4 -16 6 -34.667 6 -56v-53l137 112l161 -115v-481zM343.998 425
l182.001 83v68c-37.333 29.333 -64 48 -80 56c-14.667 8.66699 -29.334 13 -44.001 13c-12 0 -31.333 -13 -58 -39v-181zM343.999 332l182 83v72l-182 -82v-73zM525.999 394l-182 -82v-187c59.333 -21.333 99 -37.333 119 -48l36 25l27 19v273z" />
    <glyph glyph-name="V" unicode="V" horiz-adv-x="698" 
d="M656 293c0 -22 -5.00195 -43.4951 -15.002 -64.4951s-21 -39.833 -33 -56.5c-5.33301 -6.66699 -11.833 -14.334 -19.5 -23.001s-13.834 -15.334 -18.501 -20.001l-15 -14.5c-6 -5.66699 -9.33301 -8.83398 -10 -9.50098c-18.667 -18.667 -53 -56 -103 -112
c-54 26.667 -159 62.667 -315 108l-2 8c34.667 28 52 69.667 52 125v123h-13c-49.333 0 -81.333 -15 -96 -45l-9 4c4.66699 50 17.334 87 38.001 111s46.334 36 77.001 36h3v120l-71 48c-17.333 11.333 -28.666 17.666 -33.999 18.999c-6.66699 1.33301 -11 2 -13 2
c-10 0 -25.333 -9 -46 -27l-13 13l132 111l161 -118v-306c0 -32 -4.66699 -58.333 -14 -79c-9.33301 -19.333 -29.333 -42.333 -60 -69v-2c9.33301 -1.33301 23.833 -4.5 43.5 -9.5s44.5 -12.167 74.5 -21.5v537c0 23.333 -3 44.666 -9 63.999v2l21 -3
c4 -16 6 -34.667 6 -56v-54l138 113c60 -22.667 102.167 -52.667 126.5 -90s36.5 -86 36.5 -146v-218zM354.998 422.005l185 84v4c0 42 -9.16699 74.333 -27.5 97s-48.5 42 -90.5 58l-67 -54v-189zM354.998 329.005l185 84v73l-185 -83v-74zM539.998 393.005l-185 -82.998
v-171c64.667 -18.667 112.667 -37.334 144 -56.001c27.333 25.333 41 67.666 41 126.999v183z" />
    <glyph glyph-name="W" unicode="W" horiz-adv-x="933" 
d="M891 323c0 -40.667 -6.66699 -72.333 -20 -95c-13.333 -22 -44.333 -59 -93 -111c-4 -4 -7.33301 -7.5 -10 -10.5s-6 -6.5 -10 -10.5c-4.66699 -5.33301 -11 -11.666 -19 -18.999l-29 -27l-30 -28.5l-23 -22.5c-45.333 31.333 -107.666 65.666 -186.999 102.999
l-127 -103c-36.667 22.667 -73.334 42.5 -110.001 59.5s-73.334 31.833 -110.001 44.5l-1 6c36.667 26.667 55 66 55 118v131h-13c-49.333 0 -81.333 -15 -96 -45l-9 4c4.66699 50 17.334 87 38.001 111s46.334 36 77.001 36h3v120l-51 34.5l-32 20.5
c-14.667 8.66699 -26.667 13 -36 13c-8.66699 0 -24 -9 -46 -27l-12 14l132 111l157 -115l45 34v11c0 24 -3 45.667 -9 65v2l22 -3c4 -16 6 -34.333 6 -55v-7l90 66l72 -50c23.333 -16 46.666 -31 69.999 -45l46 33c-0.666992 24 -3.66699 43.667 -9 59v2l22 -3
c2.66699 -14.667 4.66699 -30 6 -46l65 49c117.333 -28 176 -100.333 176 -217v-207zM650 422.001l126 58v10c0 50.667 -10.167 90 -30.5 118s-51.5 47 -93.5 57h-2v-243zM650 329.001l126 58v76l-126 -57v-77zM631 663.001l-39 -28v-471
c20.667 -9.33301 33.667 -15.333 39 -18v517zM353 424.001l123 56v110l-116 77l-7 -6v-237zM776 370.001l-126.001 -56.999v-176c24.667 -10.667 51.334 -25.334 80.001 -44.001c18 18 30.333 35.667 37 53c6 16 9 39.333 9 70v154zM352.999 331.002l123 56v76l-123 -55v-77
zM333.999 647.002l-40.999 -30.999v-312c0 -26.667 -5.83301 -49.834 -17.5 -69.501s-32.5 -40.167 -62.5 -61.5v-3c43.333 -8.66699 83.666 -19.667 120.999 -33v510zM476 132.003v238l-123 -55v-186c4.66699 -2 13.167 -6 25.5 -12s28.5 -14.333 48.5 -25z" />
    <glyph glyph-name="X" unicode="X" horiz-adv-x="632" 
d="M639 717l-41.501 -66.501l-31.5 -51.5c-22 0 -53.333 10 -94 30l-75 -195l91.5 -6c21 -1.33301 32.167 -2 33.5 -2c8 0 14.667 4 20 12l7 11l14 -8l-65 -104c-14.667 0 -37.334 1 -68.001 3l86 -195c12.667 -30 33 -45 61 -45c10 0 20.667 8 32 24l17 -14l-86 -118
c-66 8.66699 -109.667 40.667 -131 96l-97 246h-2l-127 -342c-33.333 23.333 -68 35 -104 35c-35.333 0 -53 -17.667 -53 -53c0 -8 3 -16.333 9 -25l-2 -2l-25 14c-2.66699 8.66699 -4 18.334 -4 29.001c0 35.333 10 67.666 30 96.999c20.667 30 47.667 45 81 45
c26 0 52.667 -9.66699 80 -29l91 245v2l-94 6c-20.667 1.33301 -31.667 2 -33 2c-5.33301 0 -10.666 -3.66699 -15.999 -11l-7 -11l-14 8l63 102c14 0 37 -1 69 -3l-76 174c-33.333 17.333 -58.333 26 -75 26c-10 0 -22.333 -7.33301 -37 -22l-13 14l77.5 63.5
c21 17.667 37.167 31.834 48.5 42.501c5.33301 -3.33301 12.333 -7.33301 21 -12l27 -14l27.5 -14l22.5 -12l96 -239h2l110 289c58.667 -24 94.667 -36 108 -36c10.667 0 21.334 7.33301 32.001 22z" />
    <glyph glyph-name="Y" unicode="Y" horiz-adv-x="719" 
d="M710 -138c0 -22 -6.33105 -42.165 -18.998 -60.498s-27.334 -32.5 -44.001 -42.5l-26 6v2c33.333 22 50 48 50 78c0 36 -20.333 54 -61 54c-12 0 -25.167 -2 -39.5 -6s-29.333 -9.16699 -45 -15.5s-31.167 -13.5 -46.5 -21.5l-44 -24c-26 -16 -60 -31.333 -102 -46
c-40 -14 -79.333 -21 -118 -21c-46 0 -83 11.667 -111 35s-42 54 -42 92c0 76.667 44.667 121 134 133v282h-13c-49.333 0 -81.333 -15 -96 -45l-9 4c1.33301 48.667 12.833 85.334 34.5 110.001s48.5 37 80.5 37h3v170c-65.333 46 -104.333 69 -117 69
c-10.667 0 -26.334 -9 -47.001 -27l-12 14l132 109l161 -117v-591c5.33301 0.666992 12.833 1.5 22.5 2.5s16.5 1.5 20.5 1.5v637c0 23.333 -3 44.666 -9 63.999v2l21 -3c4 -16 6 -34.667 6 -56v-54l138 113c54 -20 94.667 -48 122 -84s41 -86.333 41 -151v-207
c0 -85.333 -15.333 -150.333 -46 -195c-31.333 -44.667 -86.666 -70.334 -165.999 -77.001c-3.33301 -0.666992 -26.5 -3.33398 -69.5 -8.00098l-190.5 -21c-36 -4 -62.667 -14 -80 -30s-26 -33.667 -26 -53c0 -16.667 6.5 -29 19.5 -37s36.5 -12 70.5 -12
c24.667 -1.33301 52.167 4.66699 82.5 18s61.666 28.333 93.999 45s64.333 31.667 96 45s61.167 19.333 88.5 18c54 0 94.5 -11.667 121.5 -35s40.5 -57 40.5 -101zM374.002 405.002l185 84v10c0 22 -1.83301 41.667 -5.5 59s-10 32.5 -19 45.5s-21.167 24.5 -36.5 34.5
s-34.333 19 -57 27l-67 -54v-206zM374.002 312.002l185 84v74l-185 -83v-75zM559.002 376.002l-185 -83v-247c72 9.33301 120.667 29 146 59c26 30.667 39 82.667 39 156v115z" />
    <glyph glyph-name="Z" unicode="Z" horiz-adv-x="570" 
d="M570 718c-25.333 -27.333 -92.332 -120.331 -200.999 -278.998c38 -10.667 61.333 -16 70 -16c9.33301 0 22.333 8.33301 39 25l16 -12c-5.33301 -6.66699 -11.5 -14.834 -18.5 -24.501l-23.5 -33.5l-21 -31c-5.33301 -8 -9.66602 -14 -12.999 -18c-32 2 -69 9 -111 21
c-26 -34 -51.333 -69 -76 -105s-48.667 -74 -72 -114l1 -3c19.333 6.66699 42 10 68 10c52.667 0 103.334 -7.33301 152.001 -22s77.334 -22 86.001 -22c19.333 0 38.666 17 57.999 51l23 -14l-106 -150l-14 3.5c-6.66699 1.66699 -15.667 4.16699 -27 7.5
s-21.5 6.16602 -30.5 8.49902s-17.167 4.16602 -24.5 5.49902c-10.667 2.66699 -23.5 5.66699 -38.5 9s-31 6.33301 -48 9s-34.167 4.83398 -51.5 6.50098s-33.333 2.16699 -48 1.5c-13.333 0 -24.833 -0.5 -34.5 -1.5s-18 -3.16699 -25 -6.5
s-13.167 -8.16602 -18.5 -14.499s-10.333 -14.833 -15 -25.5l-28 26v2c13.333 25.333 39.166 66.666 77.499 123.999l153.5 223c-20.667 4.66699 -36.667 8 -48 10s-18 3 -20 3c-12 0 -24.333 -5.33301 -37 -16l-14 9l74 105c28 0 63.333 -6.33301 106 -19l120 172l-1 1
c-2.66699 -0.666992 -8.5 -1.16699 -17.5 -1.5s-21.5 -0.5 -37.5 -0.5c-19.333 0 -57 6 -113 18s-92 18 -108 18c-36 0 -64.5 -8.33301 -85.5 -25s-31.5 -40.334 -31.5 -71.001c0 -11.333 1.16699 -22 3.5 -32s6.16602 -18 11.499 -24
c4.66699 -5.33301 7.83398 -9.16602 9.50098 -11.499s5.83398 -5.83301 12.501 -10.5c3.33301 -2 5.66602 -3.5 6.99902 -4.5s2.66602 -1.83301 3.99902 -2.5l5 -2.5l9 -4.5l13 -7v-4l-39 -12c-41.333 33.333 -62 72 -62 116c0 30 4.66699 57 14 81s22.5 44.5 39.5 61.5
s37.167 30 60.5 39s49 13.5 77 13.5c9.33301 0 23.833 -1.5 43.5 -4.5s45.5 -7.16699 77.5 -12.5c61.333 -10.667 104.333 -16 129 -16c29.333 0 54.666 6 75.999 18z" />
    <glyph glyph-name="bracketleft" unicode="[" horiz-adv-x="357" 
d="M347 -113c-25.333 -0.666992 -60 -3.66992 -104 -9.00293s-98.333 -13.666 -163 -24.999c2.66699 54.667 4.66699 121.834 6 201.501s2 172.834 2 279.501c0 78.667 -0.666992 157.167 -2 235.5s-3.33301 156.833 -6 235.5c62 -11.333 115 -20 159 -26
s80 -8.66699 108 -8v-28c-31.333 -3.33301 -74.333 -3.33301 -129 0v-828c60 2.66699 103 2.66699 129 0v-28zM200 743.997c-3.33301 0 -8.5 0.166992 -15.5 0.5s-12.167 0.833008 -15.5 1.5v-834c3.33301 0.666992 8.5 1.16699 15.5 1.5s12.167 0.5 15.5 0.5v830z" />
    <glyph glyph-name="backslash" unicode="\" horiz-adv-x="403" 
d="M53 798l348 -883l-54 -16l-345 879z" />
    <glyph glyph-name="bracketright" unicode="]" horiz-adv-x="357" 
d="M277 -147c-64.667 11.333 -119 19.6689 -163 25.002s-78.667 8.33301 -104 9v28c26 2.66699 69 2.66699 129 0v828c-55.333 -3.33301 -98.333 -3.33301 -129 0v28c28 -0.666992 64 2 108 8s97 14.667 159 26c-2.66699 -78.667 -4.66699 -157.167 -6 -235.5
s-2 -156.833 -2 -235.5c0 -106.667 0.666992 -199.834 2 -279.501s3.33301 -146.834 6 -201.501zM188 746.003c-3.33301 -0.666992 -8.5 -1.16699 -15.5 -1.5s-12.167 -0.5 -15.5 -0.5v-830c3.33301 0 8.5 -0.166992 15.5 -0.5s12.167 -0.833008 15.5 -1.5v834z" />
    <glyph glyph-name="asciicircum" unicode="^" horiz-adv-x="622" 
d="M359 714l137 -276h-70l-115 205l-112 -205h-72l137 276h95z" />
    <glyph glyph-name="underscore" unicode="_" horiz-adv-x="500" 
d="M504 -181v-43h-508v43h508z" />
    <glyph glyph-name="grave" unicode="`" 
d="M265 664c-56 12.667 -109 33.333 -159 62l19 79c45.333 -43.333 97 -82 155 -116z" />
    <glyph glyph-name="a" unicode="a" horiz-adv-x="368" 
d="M364 74l-76.0029 -74.002l-41 31l-52 37l-79 -68c-16.667 13.333 -34 26.5 -52 39.5l-56 39.5v4c11.333 7.33301 17 24 17 50v113l48.5 25c15 8 28.5 15.667 40.5 23c-22 8 -40 21.333 -54 40s-21 41 -21 67c-1.33301 14 0 27.5 4 40.5s7.66699 23.5 11 31.5
c0.666992 2 2.16699 4.83301 4.5 8.5s4.83301 7.33398 7.5 11.001l7 9.5c2 2.66699 3.33301 4.66699 4 6c0.666992 2 5.33398 7.66699 14.001 17l9 10.5c2 2.33301 3.33301 3.83301 4 4.5c8 10 15 19.167 21 27.5l16 22.5l127.5 -55c31 -13.333 50.833 -21.666 59.5 -24.999
v-4c-11.333 -9.33301 -17 -25 -17 -47v-359c2.66699 -2.66699 6.33398 -5.5 11.001 -8.5s9.5 -5.83301 14.5 -8.5s9.83301 -4.66699 14.5 -6s8.33398 -1.33301 11.001 0zM207.997 454.998c-42.667 25.333 -70.001 38.001 -82.001 38.001
c-7.33301 0 -14.666 -1.5 -21.999 -4.5s-14 -8.16699 -20 -15.5s-11 -16.833 -15 -28.5s-6 -26.167 -6 -43.5c0 -13.333 2.83301 -25.833 8.5 -37.5s13.5 -21.834 23.5 -30.501s21.833 -15.5 35.5 -20.5s28.5 -7.5 44.5 -7.5c8.66699 0 19.667 2.33301 33 7v143z
M207.996 105.999v183c-12 -4.66699 -23.333 -7 -34 -7c-12 0 -27 2.66699 -45 8c-4.66699 -8.66699 -7 -22.667 -7 -42v-141l9 -6l13 -9l14 -10c4.66699 -3.33301 9 -6 13 -8z" />
    <glyph glyph-name="b" unicode="b" 
d="M356 501c-11.333 -7.33301 -16.9961 -24.334 -16.9961 -51.001v-339c-26.667 -15.333 -54.334 -32.166 -83.001 -50.499s-58.334 -38.5 -89.001 -60.5l-71 46.5c-22.667 14.333 -44.667 27.5 -66 39.5v5c11.333 7.33301 17 19.333 17 36v585
c0 25.333 -3.33301 42.333 -10 51l4 2c7.33301 -2 15.166 -6.83301 23.499 -14.5s14.5 -16.5 18.5 -26.5h2c16.667 38.667 42.667 64 78 76l3 -2c-10.667 -18.667 -16 -41 -16 -67v-206l18 15.5c6.66699 5.66699 13.667 12.167 21 19.5l19 18.5
c5.33301 5 9.66602 8.83301 12.999 11.5l72 -46.5l63 -38.5v-4zM236.004 70.999v397.001c-10 7.33301 -34.333 22.666 -73 45.999l-13 -11v-380c16.667 -12 44.667 -30 84 -54z" />
    <glyph glyph-name="c" unicode="c" horiz-adv-x="331" 
d="M329 519l-15.001 -14.998l-24 -25l-22.5 -24l-11.5 -12h-1c-18.667 9.33301 -36.334 20.666 -53.001 33.999s-32.667 28.333 -48 45l-4 -2v-377c48.667 -32 86.667 -48 114 -48c8 0 14.667 2.66699 20 8l9 10l16 -15l-97 -98c-20.667 13.333 -46.167 28 -76.5 44
l-105.5 53v4c11.333 7.33301 17 21 17 41v337c30.667 16.667 60.334 34.167 89.001 52.5s56.334 37.833 83.001 58.5c54.667 -50.667 90.667 -73.334 108 -68.001z" />
    <glyph glyph-name="d" unicode="d" 
d="M356 493c-11.333 -9.33301 -16.998 -27.668 -16.998 -55.001v-327c-64 -36 -121 -73 -171 -111c-19.333 13.333 -40.5 26.833 -63.5 40.5l-74.5 42.5v4c11.333 6 17 17.667 17 35v370c35.333 19.333 71.666 41.333 108.999 66l-36 39c-26 29.333 -42.333 49 -49 59
c-6 10.667 -9 26.334 -9 47.001c0 24 10.667 56.333 32 97l11 -4c-2 -7.33301 -2.5 -14.5 -1.5 -21.5s3.5 -14.5 7.5 -22.5s10.167 -16.833 18.5 -26.5s19.166 -21.167 32.499 -34.5c105.333 -110 170 -174.667 194 -194v-4zM236.002 72.998v400l-64 68l-22 -14v-405
l41 -25.5l43 -24.5z" />
    <glyph glyph-name="e" unicode="e" horiz-adv-x="330" 
d="M330 397c-5.33301 -4 -11.833 -8.49707 -19.5 -13.4971s-16.167 -10.167 -25.5 -15.5s-20.5 -11.333 -33.5 -18s-27.167 -14.334 -42.5 -23.001s-28 -15.5 -38 -20.5l-21 -10.5v-153c50.667 -32.667 85.334 -49 104.001 -49c6.66699 0 13.667 3.66699 21 11l9 9l15 -16
l-53 -52.5l-43 -45.5l-88 52.5c-28.667 16.333 -57 31.166 -85 44.499v4c11.333 9.33301 17 25.666 17 48.999v360c62 16.667 122 43.667 180 81c16.667 -36.667 33.667 -71 51 -103s34.666 -62.333 51.999 -91zM241 370.003c-21.333 34.667 -39.168 64.833 -53.501 90.5
s-25.166 47.167 -32.499 64.5l-5 -1v-202c23.333 11.333 42.5 21 57.5 29s26.167 14.333 33.5 19z" />
    <glyph glyph-name="f" unicode="f" horiz-adv-x="282" 
d="M309 763l-68.001 -72h-1c-19.333 8.66699 -35.5 16.167 -48.5 22.5s-22.5 12.166 -28.5 17.499l-2 -1v-198h121l-28 -58h-93v-367c26 -11.333 42 -17 48 -17c6.66699 0 14.334 5.33301 23.001 16l7 8l16 -16l-99 -98l-64.5 38c-19 10.667 -35.833 19.334 -50.5 26.001v5
c11.333 6 17 21.667 17 47v358h-62l29 58h33v156c68 38 125.333 75.333 172 112c38.667 -26 64 -37.333 76 -34z" />
    <glyph glyph-name="g" unicode="g" 
d="M382 -3c0 -4.66699 -1.66797 -10.167 -5.00098 -16.5s-7 -11.833 -11 -16.5c-3.33301 -4.66699 -8.33301 -11 -15 -19l-14 -17l-51.5 -64.5c-13.667 -17.667 -24.167 -31.834 -31.5 -42.501c-55.333 31.333 -118 44.333 -188 39
c-1.33301 -2 -3.16602 -5.16699 -5.49902 -9.5s-4.83301 -10.166 -7.5 -17.499h-1c-0.666992 0.666992 -2.66699 4.33398 -6 11.001l-7 14c9.33301 14 23.833 32.833 43.5 56.5l74.5 86.5l-127 86v4c11.333 5.33301 17 19 17 41v348c68 38 125.333 75 172 111
c46 -30.667 91.667 -58.334 137 -83.001v-4c-11.333 -8 -17 -22 -17 -42v-352c0 -20 7 -41.333 21 -64c14.667 -22.667 22 -39 22 -49zM215.999 72l20 23v373l-42 27l-41 25l-3 -2v-398zM307.999 -90c-1.33301 23.333 -12.668 48.334 -34.001 75.001
c-21.333 25.333 -33.666 52.333 -36.999 81l-103 -122c68 -0.666992 125.667 -12.334 173 -35.001z" />
    <glyph glyph-name="h" unicode="h" horiz-adv-x="383" 
d="M353 515c-9.33301 -6 -13.998 -21.332 -13.998 -45.999v-374c0 -24 -2.5 -46.333 -7.5 -67s-13.833 -39.834 -26.5 -57.501s-29.334 -34 -50.001 -49s-46.334 -28.833 -77.001 -41.5l-16 7c26.667 22 45.667 45.667 57 71c11.333 26 17 61.333 17 106v417l-25.5 15.5
l-28.5 17.5l-32 -25v-395c2.66699 -2.66699 14 -11 34 -25v-2c-18.667 -15.333 -34 -28.666 -46 -39.999s-21 -20.333 -27 -27c-13.333 11.333 -26.833 22.166 -40.5 32.499l-40.5 29.5v4c11.333 5.33301 17 21.333 17 48v598c0 25.333 -3.33301 42.333 -10 51l4 2
c7.33301 -2 15.333 -7 24 -15s14.667 -16.667 18 -26h2c18.667 40.667 44.667 66 78 76l3 -2c-10.667 -16.667 -16 -39 -16 -67v-220c6 4.66699 16.667 13.667 32 27l60 52l15 -10.5l17 -11.5l43 -27l36 -23v-3z" />
    <glyph glyph-name="i" unicode="i" horiz-adv-x="217" 
d="M204 724c-35.333 -29.333 -74.332 -57.333 -116.999 -84l-32 35c28 28 51.333 52.5 70 73.5s32.667 38.167 42 51.5c4.66699 -6 10.167 -15.333 16.5 -28s13.166 -28.667 20.499 -48zM213.001 74l-77.999 -74.001l-46.5 34c-15.667 11.333 -31.834 22.333 -48.501 33v4
c11.333 7.33301 17 23 17 47v372l-13 8c-13.333 8.66699 -26.333 13 -39 13l-1 4l78 75l45.5 -34c15.667 -11.333 32.167 -22.666 49.5 -33.999v-4c-11.333 -7.33301 -17 -22 -17 -44v-375c22.667 -14.667 39.667 -22 51 -22z" />
    <glyph glyph-name="j" unicode="j" horiz-adv-x="211" 
d="M185 738c-35.333 -29.333 -74.332 -57.333 -116.999 -84l-32 35c28 28 51.333 52.5 70 73.5s32.667 38.167 42 51.5c4.66699 -6 10.167 -15.333 16.5 -28s13.166 -28.667 20.499 -48zM177.001 518c-11.333 -5.33301 -17 -20 -17 -44v-373c0 -22.667 4 -35.334 12 -38.001
v-4c-11.333 -41.333 -33 -85 -65 -131c-32.667 -48.667 -64 -81 -94 -97l-9 12c20 14 33.833 37.833 41.5 71.5s11.5 81.5 11.5 143.5v432l-13 8c-15.333 9.33301 -28 14 -38 14l-2 3l78 75l45.5 -34c15.667 -11.333 32.167 -22.666 49.5 -33.999v-4z" />
    <glyph glyph-name="k" unicode="k" horiz-adv-x="396" 
d="M392 74l-76.999 -74.9971c-17.333 13.333 -32.666 24.666 -45.999 33.999s-24.333 16.666 -33 21.999v167c0 39.333 -17.667 66.666 -53 81.999l-33 -22v-188c4.66699 -4 10.667 -8.5 18 -13.5s12.666 -8.83301 15.999 -11.5v-1c-36 -32 -60.667 -54.667 -74 -68
c-5.33301 4.66699 -14.666 11.834 -27.999 21.501l-52 37.5v4c11.333 8 17 25 17 51v598c0 25.333 -3.33301 42.333 -10 51l4 2c8 -2.66699 16.167 -7.83398 24.5 -15.501s14.166 -16.167 17.499 -25.5h2c16 39.333 42 64.666 78 75.999l3 -2
c-10.667 -16.667 -16 -39 -16 -67v-223l113 82c18.667 -31.333 44.667 -79.333 78 -144c4.66699 2.66699 9.66699 7.66699 15 15h1c1.33301 -2 3.16602 -6.16699 5.49902 -12.5s3.5 -10.166 3.5 -11.499l-105 -74c52 -25.333 78 -56.666 78 -93.999v-170
c20 -16.667 37 -24.334 51 -23.001zM255.001 383.003c-24.667 53.333 -46.333 95 -65 125l-40 -26v-174c18 12 53 37 105 75z" />
    <glyph glyph-name="l" unicode="l" horiz-adv-x="207" 
d="M203 75l-76.999 -74.998c-13.333 10.667 -28 21.5 -44 32.5l-52 34.5v4c11.333 5.33301 17 21.333 17 48v593c0 25.333 -3.33301 42.333 -10 51l4 2c7.33301 -2 15.166 -6.83301 23.499 -14.5s14.5 -16.5 18.5 -26.5h2c6.66699 17.333 17 33.166 31 47.499
s29.667 23.833 47 28.5l3 -2c-10.667 -18.667 -16 -41 -16 -67v-631c21.333 -16.667 38.333 -24.334 51 -23.001z" />
    <glyph glyph-name="m" unicode="m" horiz-adv-x="595" 
d="M591 74l-77.9961 -74l-43 31l-53 36v4c11.333 7.33301 17 23.333 17 48v360c-8 6 -16.5 12 -25.5 18l-27.5 18l-33 -28v-393c4.66699 -4 10.667 -8.5 18 -13.5s12.666 -8.83301 15.999 -11.5v-1l-73 -68l-81 62v5c11.333 7.33301 17 23.666 17 48.999v363
c-3.33301 2.66699 -9.33301 6.83398 -18 12.501l-35 22.5l-33 -27v-393c4.66699 -4 10.667 -8.5 18 -13.5s12.666 -8.83301 15.999 -11.5v-1l-73 -68l-37 29.5l-44 32.5v4c11.333 9.33301 17 25.333 17 48v376c-19.333 14.667 -36 22.334 -50 23.001l-2 2l43 40.5
c12.667 12.333 23.667 23.833 33 34.5l45.5 -34.5l45.5 -32.5h1l79 67l57 -38.5c17.333 -11.667 33.666 -22.167 48.999 -31.5l83 70l55.5 -38l58.5 -38v-4c-11.333 -10 -17 -22.333 -17 -37v-374c21.333 -16.667 38.666 -24.334 51.999 -23.001z" />
    <glyph glyph-name="n" unicode="n" horiz-adv-x="405" 
d="M401 74l-76.998 -75.002l-46 34l-50 34v4c11.333 7.33301 17 23.333 17 48v360c-7.33301 5.33301 -16.333 11.333 -27 18s-18.667 12.334 -24 17.001l-35 -28v-392c4.66699 -4 10.667 -8.5 18 -13.5s12.666 -8.83301 15.999 -11.5v-1
c-13.333 -11.333 -26 -22.666 -38 -33.999l-35 -34l-81 62v4c11.333 9.33301 17 26.333 17 51v373c-18.667 14.667 -35.334 22.334 -50.001 23.001l-2 2l43 40.5c12.667 12.333 23.667 23.833 33 34.5c28 -22 58.333 -44.333 91 -67h1l79 67l65.5 -44.5l48.5 -31.5v-4
c-11.333 -8 -17 -21.333 -17 -40v-371c21.333 -16.667 38.333 -24.334 51 -23.001z" />
    <glyph glyph-name="o" unicode="o" 
d="M356 504c-11.333 -9.33301 -16.999 -24.333 -16.999 -45v-348c-60.667 -34 -118 -71 -172 -111l-69 45.5c-22.667 14.333 -45.334 27.833 -68.001 40.5v4c11.333 5.33301 17 18.333 17 39v351c30.667 17.333 60.167 35.333 88.5 54l83.5 57l79.5 -49.5l57.5 -33.5v-4z
M236.001 72v396.001c-11.333 8 -24 16.333 -38 25l-45 27l-3 -1v-396c11.333 -8.66699 24 -17.334 38 -26.001s29.333 -17.667 46 -27z" />
    <glyph glyph-name="p" unicode="p" horiz-adv-x="395" 
d="M365 511c-11.333 -8 -17.001 -23 -17.001 -45v-372c-35.333 -27.333 -69.666 -58.666 -102.999 -93.999c-32 22 -60.667 35 -86 39v-170c0 -33.333 8 -55 24 -65l-2 -4c-38.667 4.66699 -67.667 30 -87 76h-2c-4 -10 -10.667 -18.833 -20 -26.5s-18.333 -12.5 -27 -14.5
l-3 2c9.33301 13.333 14 32 14 56v597c-24.667 15.333 -41 22.666 -49 21.999l-3 3l76 75l88 -70l36.5 30.5l46.5 39.5c30 -23.333 68 -48.333 114 -75v-4zM244.999 95v384.999c-16 12.667 -32.667 24.334 -50 35.001l-36 -30v-365c32 0 60.667 -8.66699 86 -26v1z" />
    <glyph glyph-name="q" unicode="q" horiz-adv-x="390" 
d="M367 -200c-17.333 0.666992 -32.333 5.66602 -45 14.999c-13.333 8.66699 -22.833 17.5 -28.5 26.5s-12.167 20.5 -19.5 34.5h-2c-2.66699 -8 -9 -16.5 -19 -25.5s-19.333 -14.167 -28 -15.5l-3 3c9.33301 11.333 14 32 14 62v154
c-7.33301 -5.33301 -16.666 -12.5 -27.999 -21.5s-24.666 -20.167 -39.999 -33.5c-24 16.667 -47.5 32.167 -70.5 46.5s-45.5 27.5 -67.5 39.5v4c11.333 6 17 18.333 17 37v355c30 16.667 59.167 34 87.5 52s56.166 37.333 83.499 58l138 -86v-4
c-11.333 -7.33301 -17 -22.666 -17 -45.999v-586c0 -20 2.16699 -34.5 6.5 -43.5s12.166 -16.167 23.499 -21.5zM236 70.999v399c-14 10 -28 19.5 -42 28.5l-42 26.5l-2 -2v-400c26.667 -19.333 54.667 -37.333 84 -54z" />
    <glyph glyph-name="r" unicode="r" horiz-adv-x="327" 
d="M322 479c-16 -16 -37.3311 -42.332 -63.998 -78.999h-4c-34.667 37.333 -59.334 74 -74.001 110l-21 -22v-364c35.333 -22.667 59.333 -34 72 -34c6 0 12.333 4.33301 19 13l9 10l17 -15l-97 -98c-19.333 12.667 -40.5 25.5 -63.5 38.5s-48.5 26.167 -76.5 39.5v4
c11.333 10 17 26.667 17 50v358c-18 14 -34.667 21.667 -50 23l-2 3c18.667 16.667 34.167 31.167 46.5 43.5s22.166 22.5 29.499 30.5c9.33301 -7.33301 23 -19 41 -35l24.5 -21c7 -6 12.833 -10.667 17.5 -14l30 27c12.667 11.333 27.667 25.666 45 42.999
c28 -44 56 -81 84 -111z" />
    <glyph glyph-name="s" unicode="s" horiz-adv-x="336" 
d="M324 303l-0.000976562 -4c-11.333 -8 -17 -20.667 -17 -38v-173c-52.667 -20 -107.334 -49.333 -164.001 -88c-35.333 25.333 -69 41.666 -101 48.999c-2.66699 -6 -4 -16.333 -4 -31v-15l-26 8c1.33301 52 16.333 104.333 45 157
c9.33301 16.667 19.666 33.334 30.999 50.001s24.333 33.667 39 51c-5.33301 3.33301 -13.333 8 -24 14l-33 19c-11.333 6.66699 -21.666 12.5 -30.999 17.5s-15.333 8.16699 -18 9.5v4c11.333 6 17 18 17 36v145c52 15.333 102 40.666 150 75.999l61.5 -46.5
c17 -12.333 30.5 -21.5 40.5 -27.5c2 5.33301 3.83301 13.333 5.5 24s2.83398 17.667 3.50098 21c1.33301 -1.33301 5 -3.66602 11 -6.99902s9.66699 -6 11 -8c-7.33301 -52 -39.666 -114.667 -96.999 -188zM249.999 445c-34 16.667 -69 42.998 -105 78.998l-4 -2v-159
l22 -12c6 -3.33301 11 -5.66602 15 -6.99902c28.667 28.667 52.667 62.334 72 101.001zM204.999 70.998l0.000976562 197.998l-31 16c-8.66699 -9.33301 -18.167 -20.5 -28.5 -33.5s-21.5 -28.167 -33.5 -45.5l-16.5 -24c-5 -7.33301 -9.5 -14.666 -13.5 -21.999
c-8.66699 -13.333 -14.667 -24.666 -18 -33.999c49.333 -3.33301 95.666 -22 138.999 -56z" />
    <glyph glyph-name="t" unicode="t" horiz-adv-x="264" 
d="M249 112l14.9971 -14.002l-97 -98c-25.333 16.667 -49.166 31.334 -71.499 44.001s-43.166 23.667 -62.499 33v4c11.333 7.33301 17 23.333 17 48v345h-42v6c12.667 8.66699 25.334 19.834 38.001 33.501s25.334 30.167 38.001 49.5s24.167 39 34.5 59
s19.166 40.333 26.499 61h7v-151h103l-26 -58h-77v-352c12.667 -8 22.5 -14 29.5 -18s12.5 -6.83301 16.5 -8.5s7.33301 -2.5 10 -2.5h12c9.33301 0 16.333 3.33301 21 10z" />
    <glyph glyph-name="u" unicode="u" horiz-adv-x="405" 
d="M401 74l-43.0029 -40.5c-12.667 -12.333 -23.667 -23.833 -33 -34.5l-45.5 34.5l-45.5 32.5h-1l-79 -67l-65.5 44.5l-48.5 31.5v4c11.333 8 17 21.333 17 40v371c-21.333 16.667 -38.333 24.334 -51 23.001l-2 2l78 75l49.5 -37
c15.667 -11.333 30.834 -21.666 45.501 -30.999v-4c-11.333 -5.33301 -17 -21.333 -17 -48v-360c26 -22 41.667 -34.667 47 -38l39 34v389c-4.66699 4 -10.667 8.5 -18 13.5s-12.666 8.83301 -15.999 11.5v1l42.5 38c12.333 11.333 22.833 21.666 31.5 30.999l43 -34.5
l37 -28.5v-4c-11.333 -7.33301 -17 -24.333 -17 -51v-373c18.667 -14.667 35.334 -22.334 50.001 -23.001z" />
    <glyph glyph-name="v" unicode="v" 
d="M8 525c16 10.667 43.001 31.6689 81.001 63.002l38.5 -37.5l34.5 -31.5v-1c-6 -3.33301 -11.833 -7.16602 -17.5 -11.499s-11.167 -8.83301 -16.5 -13.5v-423l2 -1c37.333 19.333 76.666 42.333 117.999 69v3c-22.667 22 -34 52.667 -34 92v178
c0 51.333 14.333 91.333 43 120c18 18 31.5 32 40.5 42s13.5 20.667 13.5 32c0 20 -7.33301 38.667 -22 56l8 4c17.333 -10 32.833 -23.833 46.5 -41.5s20.5 -36.834 20.5 -57.501c0 -22 -7.33301 -44.667 -22 -68c-16.667 -26.667 -25 -57.334 -25 -92.001v-268
c0 -28 5.66699 -45 17 -51v-4c-46 -26.667 -90.333 -55 -133 -85c-24 17.333 -50.667 35.166 -80 53.499l-96 58.5v360c0 26 -5.66699 43 -17 51v4z" />
    <glyph glyph-name="w" unicode="w" horiz-adv-x="575" 
d="M545 523c-11.333 -8 -16.998 -25.6709 -16.998 -53.0039v-358l-89 -54l-88 -58c-39.333 26.667 -71.333 47.667 -96 63l-56 -37.5c-15.333 -10.333 -27.333 -18.833 -36 -25.5c-42.667 30 -87 58.333 -133 85v4c11.333 7.33301 17 23 17 47v272
c0 10.667 -0.333008 20 -1 28s-2 15.333 -4 22s-4.66699 13.167 -8 19.5s-7.33301 13.5 -12 21.5c-14.667 23.333 -22 46 -22 68c0 20.667 6.83301 39.834 20.5 57.501s29.167 31.5 46.5 41.5l8 -4c-14.667 -15.333 -22 -33.666 -22 -54.999
c0 -5.33301 0.833008 -10.166 2.5 -14.499s4.5 -9.16602 8.5 -14.499s9.5 -11.666 16.5 -18.999l26.5 -27c28.667 -26.667 43 -66.334 43 -119.001v-175c0 -16 -3.16699 -33 -9.5 -51s-14.5 -31 -24.5 -39v-3c41.333 -26.667 80.666 -49.667 117.999 -69l2 1v418
c-12.667 10.667 -24 19 -34 25v1l41.5 37.5l32.5 31.5l43 -34.5l37 -28.5v-5c-11.333 -7.33301 -17 -23 -17 -47v-356c22.667 -15.333 50.667 -31.333 84 -48l2 1v423c-4.66699 4 -9.83398 8 -15.501 12l-18.5 13v1l74 69l43 -34.5l37 -28.5v-4z" />
    <glyph glyph-name="x" unicode="x" horiz-adv-x="374" 
d="M374 75l-75.9961 -74.9971l-75 54l-71 185c-16.667 -22.667 -31.334 -44.667 -44.001 -66s-23.334 -42 -32.001 -62c32.667 -18 68.667 -28 108 -30l1 -3l-74 -82c-24.667 6 -48.334 15 -71.001 27c-2 -4.66699 -3.66699 -16 -5 -34h-2c-15.333 10 -24.333 17 -27 21
c8 41.333 20.667 80.666 38 117.999c18 35.333 48.667 85 92 149l-81 210c-18.667 16.667 -36.667 25 -54 25l-1 3l76 75l65 -42l77 -197c14 19.333 26.833 39.166 38.5 59.499s22.167 41.166 31.5 62.499c-33.333 23.333 -56.333 35 -69 35
c-8.66699 0 -16.334 -3 -23.001 -9l-11 10l73 83l95 -52c-25.333 -77.333 -65.333 -153 -120 -227l84 -212c21.333 -15.333 40 -23 56 -23z" />
    <glyph glyph-name="y" unicode="y" horiz-adv-x="404" 
d="M370 -197c0 22.667 -6.66797 40.334 -20.001 53.001s-38 19 -74 19c-27.333 0 -61 -8.33301 -101 -25s-73 -25 -99 -25c-25.333 0 -45.5 6.66699 -60.5 20s-22.5 32 -22.5 56c0 34 11.5 60.5 34.5 79.5s58.5 34.167 106.5 45.5v2l-91 49v4c11.333 6 17 19 17 39v370
c-22.667 16 -40 23.333 -52 22l-1 3c42 38.667 68 63.667 78 75l49.5 -37c15.667 -11.333 30.834 -21.666 45.501 -30.999v-4c-11.333 -7.33301 -17 -23.333 -17 -48v-357c8 -5.33301 19 -11.833 33 -19.5l51 -27.5l2 2v427c-5.33301 4.66699 -11 9.16699 -17 13.5
s-11.667 8.16602 -17 11.499v1l72 69l45 -35.5c13.333 -10.333 25.666 -19.5 36.999 -27.5v-4c-11.333 -7.33301 -17 -24.333 -17 -51v-421c-26.667 -4.66699 -55.167 -10.334 -85.5 -17.001s-62.5 -14.667 -96.5 -24c-9.33301 -2 -17.166 -4 -23.499 -6
s-12.5 -3.83301 -18.5 -5.5s-11.833 -3.66699 -17.5 -6s-12.5 -4.83301 -20.5 -7.5c-21.333 -9.33301 -37.333 -19.833 -48 -31.5s-17 -27.167 -19 -46.5c0 -28.667 15 -43 45 -43c10.667 -1.33301 24 3.16699 40 13.5l50.5 33.5c17.667 12 35.834 23 54.501 33
s36.667 14.667 54 14c77.333 0 116.666 -48.667 117.999 -146z" />
    <glyph glyph-name="z" unicode="z" horiz-adv-x="341" 
d="M318 147l18.9971 -13.001l-35 -59c-12.667 -22 -26.334 -47 -41.001 -75c-19.333 8 -48.333 16.333 -87 25c-35.333 8.66699 -66 13 -92 13c-30.667 0 -50 -13 -58 -39h-1c0.666992 0 -0.833008 2 -4.5 6l-10.5 11c8.66699 36 22 74.167 40 114.5
s41.333 83.166 70 128.499l-39.5 8c-9.66699 2 -16.167 3 -19.5 3c-8 0 -12.333 -0.333008 -13 -1l-2 2c10 16.667 20.333 32.834 31 48.501s21.667 30.834 33 45.501l25.5 -5.5l41.5 -8.5c12.667 19.333 23.667 37.166 33 53.499s17 31.166 23 44.499
c-12.667 0.666992 -25 1.83398 -37 3.50098s-23.667 4.16699 -35 7.5c-20.667 6.66699 -37 10 -49 10c-26.667 0 -45 -3.5 -55 -10.5s-15 -18.5 -15 -34.5c0 -22.667 12.333 -39.334 37 -50.001v-1c-5.33301 -2.66699 -10.666 -5.16699 -15.999 -7.5
s-11 -4.16602 -17 -5.49902c-19.333 16 -29 37.667 -29 65c-1.33301 12 0.5 24.5 5.5 37.5s11.167 26 18.5 39s14.666 25.333 21.999 37s12.666 21.5 15.999 29.5c2 0 5.66699 0.166992 11 0.5s9 0.5 11 0.5c12.667 0 26 -0.666992 40 -2s28.667 -3.33301 44 -6
c16 -2.66699 30 -4.66699 42 -6s21.667 -2 29 -2c30 0 50 7.66699 60 23l6 -6c3.33301 -3.33301 5.33301 -6 6 -8c-22.667 -61.333 -59.667 -133.666 -111 -216.999c30.667 -6 52.334 -9 65.001 -9c1.33301 0 3.5 0.166992 6.5 0.5s5.16699 0.5 6.5 0.5l1 -1
c-17.333 -27.333 -40.333 -59.333 -69 -96c-27.333 2.66699 -49.666 6.66699 -66.999 12c-15.333 -22.667 -28.166 -43 -38.499 -61s-18.166 -34 -23.499 -48c4.66699 0.666992 8.83398 1.16699 12.501 1.5s7.16699 0.5 10.5 0.5c29.333 0 60.666 -6 93.999 -18
c32.667 -12 54.334 -18 65.001 -18s22 9.33301 34 28z" />
    <glyph glyph-name="braceleft" unicode="{" horiz-adv-x="441" 
d="M431 -113c-64.667 -1.33301 -153.667 -12.666 -267 -33.999c1.33301 36 2.5 83 3.5 141s1.5 127.333 1.5 208c0 74.667 -39.667 112 -119 112v34c38.667 0 68.167 10.167 88.5 30.5s30.5 57.5 30.5 111.5c0 46.667 -0.5 96.167 -1.5 148.5s-2.16699 107.833 -3.5 166.5
c98.667 -20.667 187.667 -32.334 267 -35.001v-27c-40 -2 -83 -2 -129 0v-828c40 0.666992 83 0.666992 129 0v-28zM284 744c-3.33301 0 -8.66699 0.168945 -16 0.501953s-12.333 0.833008 -15 1.5v-219c0 -52.667 -4.66699 -94 -14 -124
c-9.33301 -28.667 -29.333 -52.334 -60 -71.001v-2c29.333 -18.667 49 -41.334 59 -68.001s15 -62 15 -106v-244c3.33301 0.666992 8.5 1.16699 15.5 1.5s12.167 0.5 15.5 0.5v830z" />
    <glyph glyph-name="bar" unicode="|" horiz-adv-x="273" 
d="M100 -174c1.33301 56.667 2.33301 126.498 3 209.498s1 180.167 1 291.5c0 92.667 -0.333008 177.334 -1 254.001s-1.66699 146.334 -3 209.001l73 12c-1.33301 -79.333 -2.5 -157.5 -3.5 -234.5s-1.5 -153.833 -1.5 -230.5c0 -93.333 0.5 -181.333 1.5 -264
s2.16699 -161 3.5 -235z" />
    <glyph glyph-name="braceright" unicode="}" horiz-adv-x="441" 
d="M391 314c-79.333 0 -119 -37.3311 -119 -111.998c0 -80.667 0.5 -150 1.5 -208s2.16699 -105 3.5 -141c-113.333 21.333 -202.333 32.666 -267 33.999v28c46 0.666992 89 0.666992 129 0v828c-19.333 -1.33301 -39.833 -1.83301 -61.5 -1.5
s-44.167 1.16602 -67.5 2.49902v27c42.667 1.33301 86.167 5 130.5 11s89.833 13.667 136.5 23c-1.33301 -58.667 -2.5 -114.167 -3.5 -166.5s-1.5 -101.833 -1.5 -148.5c0 -54 10.167 -91.167 30.5 -111.5s49.833 -30.5 88.5 -30.5v-34zM262 332.002
c-32 19.333 -52.334 42.999 -61.001 70.999s-13 69.333 -13 124v219c-2.66699 -0.666992 -7.66699 -1.16699 -15 -1.5s-12.666 -0.5 -15.999 -0.5v-830c3.33301 0 8.5 -0.166992 15.5 -0.5s12.167 -0.833008 15.5 -1.5v244c0 44 5 79.333 15 106s29.667 49.334 59 68.001v2z
" />
    <glyph glyph-name="asciitilde" unicode="~" horiz-adv-x="622" 
d="M522 445c-16 -32 -35.167 -57.5 -57.5 -76.5s-44.5 -28.5 -66.5 -28.5c-33.333 0 -63.333 10.667 -90 32c-18.667 15.333 -33.5 25.833 -44.5 31.5s-23.5 8.5 -37.5 8.5c-36 0 -64 -22 -84 -66l-42 38c36.667 70.667 79.667 106 129 106c30 0 58.667 -10.667 86 -32
c31.333 -26.667 59.333 -40 84 -40c32 0 59.667 21.667 83 65z" />
    <glyph glyph-name="brokenbar" unicode="&#xa6;" horiz-adv-x="273" 
d="M100 400c1.33301 21.333 2.33301 48 3 80s1 70 1 114c0 28 -0.333008 58.167 -1 90.5s-1.66699 67.5 -3 105.5l73 10c-1.33301 -30.667 -2.33301 -61.667 -3 -93s-1 -63 -1 -95c0 -42 0.333008 -79.833 1 -113.5s1.66699 -63.167 3 -88.5zM100 -172
c1.33301 21.333 2.33301 48.168 3 80.501s1 70.5 1 114.5c0 28 -0.333008 58.167 -1 90.5s-1.66699 67.5 -3 105.5l73 10c-1.33301 -30.667 -2.33301 -61.667 -3 -93s-1 -63 -1 -95c0 -42.667 0.333008 -80.834 1 -114.501s1.66699 -63.167 3 -88.5z" />
    <glyph glyph-name="section" unicode="&#xa7;" horiz-adv-x="516" 
d="M420 726l-74.002 -80.0098c-58 16 -110.333 46 -157 90c-14 -14 -21 -33 -21 -57c0 -13.333 1.66699 -25.666 5 -36.999s9.33301 -22.666 18 -33.999s20 -23 34 -35s32 -25 54 -39c50 -32.667 86 -61.334 108 -86.001c21.333 -24.667 32 -57 32 -97
c0 -48.667 -27 -92 -81 -130c25.333 -20 44 -40.333 56 -61s18 -46 18 -76c0 -39.333 -16.333 -74.166 -49 -104.499s-82.667 -62.166 -150 -95.499c-32 28 -61.5 47.167 -88.5 57.5s-47.167 14.166 -60.5 11.499l-3 4l75 81c14.667 -4 29.5 -9.16699 44.5 -15.5
s29 -13.666 42 -21.999s25.167 -17.166 36.5 -26.499s21 -18.666 29 -27.999c20.667 12.667 31 40.667 31 84c0 28.667 -8.16699 54.334 -24.5 77.001s-45.5 47.334 -87.5 74.001c-78 48.667 -117 106.334 -117 173.001c0 48.667 25.667 91.667 77 129
c-46 40.667 -69 87 -69 139c0 38.667 13.333 71.334 40 98.001s67 53.334 121 80.001l45.5 -30.5c13.667 -9 25.834 -16.167 36.501 -21.5c10.667 -6 19.834 -10.167 27.501 -12.5s14.334 -4 20.001 -5s10.667 -1.16699 15 -0.5s9.16602 1 14.499 1zM329.998 296.99
c0 28 -8.66699 53.4951 -26 76.4951s-47.333 47.833 -90 74.5c-4 2.66699 -9.83301 6.83398 -17.5 12.501s-12.167 8.83398 -13.5 9.50098l-1 -1c-14 -14 -21 -33 -21 -57c0 -13.333 1.66699 -25.666 5 -36.999s9.33301 -22.833 18 -34.5s20 -23.5 34 -35.5s32 -25 54 -39
l21 -13.5c10 -6.33301 17.333 -11.166 22 -14.499c10 20.667 15 40.334 15 59.001z" />
    <glyph glyph-name="copyright" unicode="&#xa9;" horiz-adv-x="879" 
d="M70 354c0 104.667 35.667 192.001 107 262.001c70.667 70.667 158.334 106 263.001 106c103.333 0 190.666 -36 261.999 -108c71.333 -71.333 107 -158.333 107 -261s-35.667 -189.667 -107 -261s-159 -107 -263 -107s-191.667 35.667 -263 107
c-70.667 71.333 -106 158.666 -106 261.999zM120 349.001c0 -88.667 31.335 -164.333 94.002 -227c62.667 -62 138.667 -93 228 -93c88.667 0 164 31.333 226 94c62.667 62.667 94 138.334 94 227.001c0 89.333 -31.333 165.666 -94 228.999
c-62.667 64.667 -138.334 97 -227.001 97s-164.334 -32 -227.001 -96c-62.667 -63.333 -94 -140.333 -94 -231zM602.002 249.002l-3.99902 -95.9961c-7.33301 -4.66699 -16.5 -9.33398 -27.5 -14.001s-23.5 -9.33398 -37.5 -14.001c-26.667 -8.66699 -53.667 -13 -81 -13
c-67.333 0 -122.333 22 -165 66c-42.667 43.333 -64 100 -64 170c0 71.333 21.667 127.666 65 168.999s98.666 62 165.999 62c8.66699 0 19.5 -0.5 32.5 -1.5l45.5 -3.5c17.333 -1.33301 31.166 -2.5 41.499 -3.5s16.833 -1.5 19.5 -1.5l-4 -107h-32
c-1.33301 28.667 -9.5 49.167 -24.5 61.5s-41.5 18.5 -79.5 18.5c-54 0 -94.667 -17 -122 -51s-41 -81 -41 -141c0 -62.667 14.333 -111.834 43 -147.501s69 -53.5 121 -53.5c36.667 0 63.834 8.5 81.501 25.5s29.167 41.833 34.5 74.5h32z" />
    <glyph glyph-name="guillemotleft" unicode="&#xab;" horiz-adv-x="506" 
d="M405 95c-13.333 46.667 -29.332 85.333 -47.999 116s-44 53.667 -76 69v17c55.333 24 96.666 85.667 123.999 185l41 -22c-3.33301 -66 -23.333 -122.333 -60 -169v-5c34 -38.667 54 -95 60 -169zM286.001 58.999c-41.333 107.333 -116.668 180.999 -226.001 220.999v17
c63.333 22.667 112 52.334 146 89.001s60.667 80.667 80 132l42 -22c-7.33301 -27.333 -15.166 -51.5 -23.499 -72.5s-16.833 -39.167 -25.5 -54.5c-16.667 -30.667 -43 -56.667 -79 -78v-5c34 -20 60.667 -46.333 80 -79s35.333 -74.667 48 -126z" />
    <glyph glyph-name="logicalnot" unicode="&#xac;" horiz-adv-x="524" 
d="M269 402l-83 99.999l45.5 57.5c13 17 23.167 32.167 30.5 45.5c8.66699 -13.333 20.167 -29.166 34.5 -47.499l50.5 -62.5zM454 374.999l-50.5 -52l-36.5 -40l-75 92l78 92l51 -57c14 -15.333 25 -27 33 -35zM246 374.999l-84.001 -100
c-13.333 16.667 -27.666 33.167 -42.999 49.5l-49 50.5c42 42 73 75 93 99zM268.999 347.999l76.001 -90.999c-16.667 -19.333 -31.834 -38.5 -45.501 -57.5s-26.167 -37.167 -37.5 -54.5c-10 15.333 -21.333 31.666 -34 48.999s-26.667 35.333 -42 54z" />
    <glyph glyph-name="registered" unicode="&#xae;" horiz-adv-x="723" 
d="M362 724c82 0 152.667 -29.667 212 -89s89 -130.333 89 -213s-29.667 -153.667 -89 -213c-58.667 -58.667 -129.667 -88 -213 -88s-154.333 29.333 -213 88s-88 130 -88 214c0 83.333 29.333 154.333 88 213s130 88 214 88zM548 232c51.333 53.333 77 116.666 77 189.999
c0 72.667 -25.667 135.667 -77 189c-50.667 52.667 -112.667 79 -186 79s-135.333 -26.333 -186 -79c-51.333 -53.333 -77 -116.333 -77 -189c0 -73.333 25.667 -136.666 77 -189.999c50.667 -52.667 112.667 -79 186 -79s135.333 26.333 186 79zM537 248
c-37.333 8.66699 -71.998 30 -103.998 64c-15.333 16.667 -28.833 34.167 -40.5 52.5s-21.834 37.166 -30.501 56.499h-38v-112c0 -6.66699 3.33301 -10 10 -10h24v-33h-125v33h25c6.66699 0 10 3.33301 10 10v263c0 6.66699 -3.33301 10 -10 10h-25v33h144
c40.667 0 72.167 -8.16699 94.5 -24.5s33.5 -40.5 33.5 -72.5c0 -24 -7.66699 -43.833 -23 -59.5s-36 -25.834 -62 -30.501c8.66699 -17.333 18.167 -34.166 28.5 -50.499s21.166 -32.166 32.499 -47.499c24 -29.333 47.333 -48.333 70 -57zM324.002 580v-124h52
c47.333 0 71 20.667 71 62s-22.667 62 -68 62h-55z" />
    <glyph glyph-name="degree" unicode="&#xb0;" horiz-adv-x="275" 
d="M245 613c0 -15.333 -2.83301 -29.833 -8.5 -43.5s-13.667 -25.5 -24 -35.5s-22.333 -18 -36 -24s-28.5 -9 -44.5 -9c-32 0 -58.667 10.667 -80 32s-32 48 -32 80c0 30.667 11 57 33 79s48.667 33 80 33c32 0 58.667 -10.667 80 -32s32 -48 32 -80zM133 552
c17.333 0 31.668 6 43.001 18s17 26.333 17 43s-5.83301 30.834 -17.5 42.501s-25.834 17.5 -42.501 17.5s-31 -5.83301 -43 -17.5s-18 -25.834 -18 -42.501s6 -31 18 -43s26.333 -18 43 -18z" />
    <glyph glyph-name="plusminus" unicode="&#xb1;" horiz-adv-x="524" 
d="M269 402l-83 99.999l45.5 57.5c13 17 23.167 32.167 30.5 45.5c8.66699 -13.333 20.167 -29.166 34.5 -47.499l50.5 -62.5zM454 374.999l-50.5 -52l-36.5 -40l-75 92l78 92l51 -57c14 -15.333 25 -27 33 -35zM246 374.999l-84.001 -100
c-13.333 16.667 -27.666 33.167 -42.999 49.5l-49 50.5c42 42 73 75 93 99zM268.999 347.999l76.001 -90.999c-16.667 -19.333 -31.834 -38.5 -45.501 -57.5s-26.167 -37.167 -37.5 -54.5c-10 15.333 -21.333 31.666 -34 48.999s-26.667 35.333 -42 54z" />
    <glyph glyph-name="mu" unicode="&#xb5;" horiz-adv-x="405" 
d="M401 74l-43.001 -40.501c-12.667 -12.333 -23.667 -23.833 -33 -34.5l-45.5 34.5l-45.5 32.5h-1l-79 -67l-22 15.5l-22 14.5c0 -75.333 9.66699 -130.666 29 -165.999v-2c-10.667 -5.33301 -22.834 -12.5 -36.501 -21.5l-45.5 -30.5v681
c-21.333 16.667 -38.333 24.334 -51 23.001l-2 2l78 75l49.5 -37c15.667 -11.333 30.834 -21.666 45.501 -30.999v-4c-11.333 -5.33301 -17 -21.333 -17 -48v-360c17.333 -12.667 35.666 -24.667 54.999 -36l31 27v394c-4.66699 4 -10.667 8.5 -18 13.5
s-12.666 8.83301 -15.999 11.5v1l42.5 38c12.333 11.333 22.833 21.666 31.5 30.999l43 -34.5l37 -28.5v-4c-11.333 -7.33301 -17 -24.333 -17 -51v-373c18.667 -14.667 35.334 -22.334 50.001 -23.001z" />
    <glyph glyph-name="paragraph" unicode="&#xb6;" horiz-adv-x="816" 
d="M766 749c-2 -3.33301 -4.83301 -9.83301 -8.5 -19.5s-6.83398 -16.5 -9.50098 -20.5c-56.667 2.66699 -122 -3 -196 -17c-2.66699 -38 -4.66699 -85.167 -6 -141.5s-2 -122.166 -2 -197.499c0 -60 0.833008 -118 2.5 -174s4.16699 -111 7.5 -165
c37.333 6 71.666 14.333 102.999 25c32.667 10.667 55.334 21.334 68.001 32.001c0 -20.667 -2 -35.334 -6 -44.001c-51.333 -21.333 -105.666 -36 -162.999 -44c4 -47.333 7 -76.333 9 -87l-38 -19l-6 102c-15.333 -2.66699 -34.5 -4.66699 -57.5 -6s-49.833 -2 -80.5 -2
c-36 0 -73 6.66699 -111 20s-74 32 -108 56c-34 24.667 -61.5 57 -82.5 97s-31.5 84 -31.5 132c0 108 44.333 200.333 133 277c90 78 202 133.333 336 166c0.666992 16.667 1.66699 32.667 3 48l39 11c-2 -12.667 -4 -29.334 -6 -50.001c70 14 140.333 21 211 21zM520 9
c-6 148.667 -9.00098 260.668 -9.00098 336.001c0 126 2 239 6 339c-10 -2 -20 -4.33301 -30 -7s-20 -5.66699 -30 -9c-5.33301 -30 -9.5 -72.333 -12.5 -127s-4.5 -122.667 -4.5 -204c0 -158.667 3 -269.334 9 -332.001h21c22.667 0 39.334 1.33301 50.001 4z" />
    <glyph glyph-name="periodcentered" unicode="&#xb7;" horiz-adv-x="226" 
d="M186 323c-20 -18 -44.667 -41.666 -74 -70.999l-72 71l32 30c12 11.333 25.333 24.666 40 39.999z" />
    <glyph glyph-name="guillemotright" unicode="&#xbb;" horiz-adv-x="506" 
d="M446 280c-109.333 -40 -184.668 -113.666 -226.001 -220.999l-42 22c12.667 51.333 28.667 93.333 48 126s46 59 80 79v5c-36 21.333 -62.333 47.333 -79 78c-8.66699 15.333 -17.167 33.5 -25.5 54.5s-16.166 45.167 -23.499 72.5l42 22
c19.333 -51.333 46 -95.333 80 -132s82.667 -66.334 146 -89.001v-17zM224.998 280.001c-32 -15.333 -57.332 -38.332 -75.999 -68.999s-34.667 -69.334 -48 -116.001l-41 22c6 74 26 130.333 60 169v5c-36.667 46.667 -56.667 103 -60 169l41 22
c27.333 -99.333 68.666 -161 123.999 -185v-17z" />
    <glyph glyph-name="pi" unicode="&#x3c0;" horiz-adv-x="524" 
d="M269 402l-83 99.999l45.5 57.5c13 17 23.167 32.167 30.5 45.5c8.66699 -13.333 20.167 -29.166 34.5 -47.499l50.5 -62.5zM454 374.999l-50.5 -52l-36.5 -40l-75 92l78 92l51 -57c14 -15.333 25 -27 33 -35zM246 374.999l-84.001 -100
c-13.333 16.667 -27.666 33.167 -42.999 49.5l-49 50.5c42 42 73 75 93 99zM268.999 347.999l76.001 -90.999c-16.667 -19.333 -31.834 -38.5 -45.501 -57.5s-26.167 -37.167 -37.5 -54.5c-10 15.333 -21.333 31.666 -34 48.999s-26.667 35.333 -42 54z" />
    <glyph glyph-name="afii10023" unicode="&#x401;" horiz-adv-x="592" 
d="M598 712l-49.5049 -62c-16.333 -20 -33.166 -39 -50.499 -57c-59.333 22.667 -110 47.334 -152 74.001v-222h160c-3.33301 -18.667 -7.16602 -38 -11.499 -58s-7.83301 -38 -10.5 -54c-14.667 8.66699 -32.667 13 -54 13h-84v-205c21.333 -4 45.666 -9 72.999 -15
l63.5 -14.5c15.667 -3.66699 26.5 -5.5 32.5 -5.5c13.333 2.66699 22.666 7 27.999 13s12.333 16 21 30l19 -13l-103 -145l-62 15.5l-45 10.5c-12 3.33301 -27.167 6.5 -45.5 9.5s-40.166 6.16699 -65.499 9.5c-24.667 3.33301 -49.167 5.83301 -73.5 7.5
s-48.833 2.5 -73.5 2.5c-26 0 -56.333 -15.333 -91 -46l-15 17l86 77c32.667 29.333 53.334 55.666 62.001 78.999c9.33301 26 14 59.333 14 100v77h-13c-49.333 0 -81.333 -15 -96 -45l-9 4c4.66699 50 17.334 87 38.001 111s46.334 36 77.001 36h3v170
c52.667 20.667 136.667 62.667 252 126c54.667 -36 96.334 -54 125.001 -54c10 0 22 8.66699 36 26zM327.995 674l-4.00098 3.00098l-37 -18v-336c0 -62.667 -26.333 -115.334 -79 -158.001l-37 -30l4 -5c22.667 12 47 18 73 18c12.667 0 25.834 -0.5 39.501 -1.5
s27.167 -2.16699 40.5 -3.5v531zM472.994 881.001l68 -64c-18 -16 -40.333 -37.333 -67 -64l-67 64zM315.994 881.001l68 -64c-18 -16 -40.333 -37.333 -67 -64l-67 64z" />
    <glyph glyph-name="afii10053" unicode="&#x404;" horiz-adv-x="671" 
d="M657 713c-16.667 -23.333 -33.335 -45.335 -50.002 -66.002s-33.334 -39.667 -50.001 -57c-50.667 18.667 -99.334 38.667 -146.001 60v-205h163c-3.33301 -18.667 -7.16602 -38 -11.499 -58s-7.83301 -38 -10.5 -54c-14.667 8.66699 -32.667 13 -54 13h-87v-272
c3.33301 -0.666992 9 -1 17 -1h29c71.333 0 133.333 20.333 186 61l8 -12c-15.333 -21.333 -31.833 -40.333 -49.5 -57s-37.5 -31 -59.5 -43s-47 -21.167 -75 -27.5s-59.333 -9.5 -94 -9.5c-103.333 0 -186.666 29.667 -249.999 89c-62 58.667 -93 141.334 -93 248.001
c0 70.667 21 136.667 63 198c43.333 62 89 105.333 137 130l12 -9c-28.667 -26.667 -51.667 -63.334 -69 -110.001c-16 -46 -24 -91.333 -24 -136c0 -89.333 18.333 -160.333 55 -213c27.333 19.333 41 53 41 101v297c30 22.667 61.5 47.834 94.5 75.501l106.5 91.5
l60.5 -23.5c17 -6.33301 30.833 -11.166 41.5 -14.499c20.667 -6.66699 41.334 -10 62.001 -10c10.667 0 21.334 8.33301 32.001 25zM392.999 658.998l-11 5l-30 -26v-377l-71.5 -46l-67.5 -46c40 -50 100 -81 180 -93v583z" />
    <glyph glyph-name="uni0406" unicode="&#x406;" horiz-adv-x="377" 
d="M379 712c-25.333 -19.333 -41.334 -41.0029 -48.001 -65.0029c-7.33301 -25.333 -11 -58.333 -11 -99v-335c0 -34 5 -55 15 -63v-6l-128.5 -100c-35 -26.667 -62.833 -46.667 -83.5 -60c-24 20 -45 30 -63 30c-20.667 0 -31 -14.333 -31 -43c0 -10 1 -17.333 3 -22l-3 -2
l-25 18c0 36 10.667 68.667 32 98c20.667 28.667 47.667 43 81 43c26.667 0 54.667 -13 84 -39l3 2v274h-13c-49.333 0 -81.333 -15 -96 -45l-9 4c0 50.667 11 87.834 33 111.501s49.333 35.5 82 35.5h3v49c0 34 7 61.833 21 83.5s35 44.5 63 68.5l-2 3
c-23.333 -13.333 -41.333 -20 -54 -20c-11.333 0 -31 5 -59 15c-27.333 10 -48.333 15 -63 15c-24 0 -36 -9 -36 -27c0 -10.667 1 -19 3 -25l-2 -1l-26 17c0 19.333 7.5 39 22.5 59s38.5 45.333 70.5 76c6.66699 -1.33301 15 -3.66602 25 -6.99902
s21.667 -7.66602 35 -12.999c28 -9.33301 52.833 -17 74.5 -23s40.834 -9 57.501 -9c14 0 26.333 4.33301 37 13z" />
    <glyph glyph-name="afii10056" unicode="&#x407;" horiz-adv-x="377" 
d="M379 712c-24.667 -18.667 -40.667 -40.3369 -48 -65.0039c-7.33301 -24 -11 -57 -11 -99v-335c0 -34 5 -55 15 -63v-6l-128.5 -100c-35 -26.667 -62.833 -46.667 -83.5 -60c-24 20 -45 30 -63 30c-20.667 0 -31 -14.333 -31 -43c0 -10 1 -17.333 3 -22l-3 -2l-25 18
c0 36.667 10.667 69.334 32 98.001c20.667 28.667 47.667 43 81 43c26.667 0 54.667 -13 84 -39l3 2v274h-13c-49.333 0 -81.333 -15 -96 -45l-9 4c0 50.667 11 87.834 33 111.501s49.333 35.5 82 35.5h3v49c0 34 7 61.833 21 83.5s35 44.5 63 68.5l-2 3
c-23.333 -13.333 -41.333 -20 -54 -20c-11.333 0 -31 5 -59 15c-27.333 10 -48.333 15 -63 15c-24 0 -36 -9 -36 -27c0 -10.667 1 -19 3 -25l-2 -1l-26 17c0 19.333 7.5 39 22.5 59s38.5 45.333 70.5 76c6.66699 -1.33301 15 -3.66602 25 -6.99902
s21.667 -7.66602 35 -12.999c28 -9.33301 52.833 -17 74.5 -23s40.834 -9 57.501 -9c13.333 0 25.666 4.33301 36.999 13zM300 908.997l68 -64c-18 -16 -40.333 -37.333 -67 -64l-67 64zM143 908.997l68 -64c-18 -16 -40.333 -37.333 -67 -64l-67 64z" />
    <glyph glyph-name="afii10062" unicode="&#x40e;" horiz-adv-x="719" 
d="M710 -138c0 -22 -6.33105 -42.165 -18.998 -60.498s-27.334 -32.5 -44.001 -42.5l-26 6v2c33.333 22 50 48 50 78c0 36 -20.333 54 -61 54c-12 0 -25.167 -2 -39.5 -6s-29.333 -9.16699 -45 -15.5s-31.167 -13.5 -46.5 -21.5l-44 -24c-26 -16 -60 -31.333 -102 -46
c-40 -14 -79.333 -21 -118 -21c-46 0 -83 11.667 -111 35s-42 54 -42 92c0 76.667 44.667 121 134 133v282h-13c-49.333 0 -81.333 -15 -96 -45l-9 4c1.33301 48.667 12.833 85.334 34.5 110.001s48.5 37 80.5 37h3v170c-65.333 46 -104.333 69 -117 69
c-10.667 0 -26.334 -9 -47.001 -27l-12 14l132 109l161 -117v-591c5.33301 0.666992 12.833 1.5 22.5 2.5s16.5 1.5 20.5 1.5v637c0 23.333 -3 44.666 -9 63.999v2l21 -3c4 -16 6 -34.667 6 -56v-54l138 113c54 -20 94.667 -48 122 -84s41 -86.333 41 -151v-207
c0 -85.333 -15.333 -150.333 -46 -195c-31.333 -44.667 -86.666 -70.334 -165.999 -77.001c-3.33301 -0.666992 -26.5 -3.33398 -69.5 -8.00098l-190.5 -21c-36 -4 -62.667 -14 -80 -30s-26 -33.667 -26 -53c0 -16.667 6.5 -29 19.5 -37s36.5 -12 70.5 -12
c24.667 -1.33301 52.167 4.66699 82.5 18s61.666 28.333 93.999 45s64.333 31.667 96 45s61.167 19.333 88.5 18c54 0 94.5 -11.667 121.5 -35s40.5 -57 40.5 -101zM374.002 405.002l185 84v10c0 22 -1.83301 41.667 -5.5 59s-10 32.5 -19 45.5s-21.167 24.5 -36.5 34.5
s-34.333 19 -57 27l-67 -54v-206zM374.002 312.002l185 84v74l-185 -83v-75zM559.002 376.002l-185 -83v-247c72 9.33301 120.667 29 146 59c26 30.667 39 82.667 39 156v115zM511.002 882.002c2 0 4.33398 -0.333008 7.00098 -1
c3.33301 -0.666992 6.66602 -2.66699 9.99902 -6c-14 -26 -28.5 -46.5 -43.5 -61.5s-30.333 -25.833 -46 -32.5s-31.167 -10.334 -46.5 -11.001s-29.833 0 -43.5 2s-26.167 4.5 -37.5 7.5s-21 4.83301 -29 5.5c-9.33301 0.666992 -19 -7.66602 -29 -24.999l-5 -8l-16 11
l29 52l35 66c4 -3.33301 15.667 -8.5 35 -15.5s40.5 -12.333 63.5 -16s45.667 -3.66699 68 0s38.5 14.5 48.5 32.5z" />
    <glyph glyph-name="afii10017" unicode="&#x410;" horiz-adv-x="640" 
d="M621 95l-19.4971 -20.5029c-7.66699 -8.33301 -17.167 -18.166 -28.5 -29.499s-20.5 -20.833 -27.5 -28.5s-12.167 -13.167 -15.5 -16.5c-8 6 -16.833 13.167 -26.5 21.5l-30 25.5l-31 25c-10.333 8 -19.833 15 -28.5 21h-2c-15.333 -16 -42.333 -47 -81 -93
c-130 42.667 -219.333 64 -268 64c-22 -29.333 -33 -58.333 -33 -87h-3l-25 22c2.66699 12.667 7.33398 26 14.001 40s15.334 28.667 26.001 44l245 352l-29 20c-36.667 26 -68.667 30.333 -96 13l-6 9c29.333 33.333 59.166 55.833 89.499 67.5s59.166 7.5 86.499 -12.5
l15 -10l28 39c-14.667 38 -34 65.667 -58 83s-56 26 -96 26c-22 0 -42.5 -3 -61.5 -9s-35.5 -14.667 -49.5 -26s-25 -25.166 -33 -41.499s-12 -34.833 -12 -55.5c0 -73.333 33.333 -123 100 -149v-2l-37 -13c-58 36.667 -87 93 -87 169c0 56.667 20.333 106.334 61 149.001
c41.333 43.333 94.666 65 159.999 65c51.333 0 92.666 -8.33301 123.999 -25s57.666 -41 78.999 -73c15.333 36 42.333 63.333 81 82l5 -1c-14 -24 -21 -51.667 -21 -83v-509l47.5 -26.5l43.5 -23.5v-3zM414.003 266.997h-212.998l-75 -108l1 -2
c25.333 -2 58.666 -8 99.999 -18l57.5 -14c18.333 -4.66699 34.666 -8.66699 48.999 -12l35.5 -8.5c9.33301 -2.33301 15 -3.5 17 -3.5c12 0 21.333 4.33301 28 13v153zM248.005 335.997h166v241h-3z" />
    <glyph glyph-name="afii10018" unicode="&#x411;" horiz-adv-x="675" 
d="M119 749c10 -8 28.3271 -20.834 54.9941 -38.501s60.667 -41.5 102 -71.5l44 32v74v2l19 -3v-60l106 76c23.333 -19.333 47.833 -34.666 73.5 -45.999s45.834 -17 60.501 -17c10 0 22 8.66699 36 26l14 -12l-49.5 -62c-16.333 -20 -33.166 -39 -50.499 -57
c-30 11.333 -58.833 25 -86.5 41l-73.5 44l-30 -21v-249l96 63c29.333 0.666992 56.5 -3.33301 81.5 -12s46.5 -21 64.5 -37s32.167 -35.167 42.5 -57.5s15.5 -46.5 15.5 -72.5v-85c0 -43.333 -27.667 -84 -83 -122l-144 -99c-101.333 46 -183 69 -245 69
c-82.667 0 -124 -41 -124 -123l-3 -1l-22 19c8 52 23.833 94 47.5 126s50.5 52 80.5 60c11.333 24.667 17 57.334 17 98.001v117h-14c-49.333 0 -81.333 -15 -96 -45l-9 4c4.66699 50 17.334 87 38.001 111s46.334 36 77.001 36h4v128l-50.5 36
c-13 9.33301 -22.833 15.666 -29.5 18.999c-13.333 8 -26 12 -38 12c-3.33301 0 -6.16602 -0.166992 -8.49902 -0.5s-5.16602 -1.5 -8.49902 -3.5l-10 -7c-4.66699 -3.33301 -9 -7 -13 -11l-12 14l126 106v0zM523.994 263.999c0 42 -13.667 74.333 -41 97
s-65.333 34 -114 34c-11.333 0 -21.333 -3 -30 -9v-244c45.333 -11.333 102 -34.333 170 -69l3 2c8 12.667 12 36.667 12 72v117zM255.994 155.999c13.333 0 35 -3 65 -9v497l-42 -28v-333c0 -24.667 -8.33301 -46.334 -25 -65.001
c-5.33301 -5.33301 -9.33301 -9.66602 -12 -12.999s-7.66699 -8.33301 -15 -15c-3.33301 -3.33301 -6.5 -6.16602 -9.5 -8.49902s-5.16699 -4.16602 -6.5 -5.49902c-4 -2.66699 -10.333 -7.83398 -19 -15.501s-15 -12.834 -19 -15.501l1 -2c26.667 8.66699 54 13 82 13z" />
    <glyph glyph-name="afii10019" unicode="&#x412;" horiz-adv-x="675" 
d="M639 206c0 -43.333 -27.6709 -83.999 -83.0039 -121.999l-144 -99c-101.333 46 -183 69 -245 69c-82.667 0 -124 -41 -124 -123l-3 -1l-22 19c8 52 23.833 94 47.5 126s50.5 52 80.5 60c11.333 24 17 56.667 17 98v117h-14c-49.333 0 -81.333 -15 -96 -45l-9 4
c4.66699 50 17.334 87 38.001 111s46.334 36 77.001 36h4v128l-50.5 36c-13 9.33301 -22.833 15.666 -29.5 18.999c-13.333 8 -26 12 -38 12c-3.33301 0 -6.16602 -0.166992 -8.49902 -0.5s-5.16602 -1.5 -8.49902 -3.5l-10 -7c-4.66699 -3.33301 -9 -7 -13 -11l-12 14
l126 106l54.5 -40l101.5 -73l46 32l-1 77l19 -1v-63l95 67c22 -16.667 50 -43 84 -79l48.5 -51.5c15 -16.333 28.167 -31.833 39.5 -46.5l-142 -101c54 -7.33301 96.667 -27 128 -59s47 -72 47 -120v-85zM338.996 407.001l156 109.999
c-8.66699 12.667 -18.667 25.834 -30 39.501s-24.333 28.167 -39 43.5c-26.667 30 -51 52.667 -73 68l-14 -9v-252zM523.996 264c0 42 -13.667 74.333 -41 97s-65.333 34 -114 34c-11.333 0 -21.333 -3 -30 -9v-244c45.333 -11.333 102 -34.333 170 -69l3 2
c8 12.667 12 36.667 12 72v117zM320.996 646l-42 -30.002v-333c0 -24.667 -8.33301 -46.334 -25 -65.001c-5.33301 -5.33301 -9.33301 -9.66602 -12 -12.999s-7.66699 -8.33301 -15 -15c-3.33301 -3.33301 -6.5 -6.16602 -9.5 -8.49902s-5.16699 -4.16602 -6.5 -5.49902
c-2 -1.33301 -4.66699 -3.5 -8 -6.5s-7 -6 -11 -9s-7.66699 -6 -11 -9s-6 -5.16699 -8 -6.5l1 -2c28 8.66699 55.333 13 82 13c13.333 0 35 -3 65 -9v499z" />
    <glyph glyph-name="afii10020" unicode="&#x413;" horiz-adv-x="498" 
d="M183 759c23.333 -1.33301 48.166 -4.50195 74.499 -9.50195s55.166 -9.16699 86.499 -12.5c8.66699 -1.33301 18.5 -2.5 29.5 -3.5s22 -1.83301 33 -2.5s21.333 -1 31 -1s17.834 0.666992 24.501 2c17.333 3.33301 29.833 9.16602 37.5 17.499
s15.834 19.166 24.501 32.499l20 -10c-19.333 -55.333 -39.666 -94.666 -60.999 -117.999c-16.667 -18.667 -35.5 -30 -56.5 -34s-45.5 -4.33301 -73.5 -1c-5.33301 0 -9 0.333008 -11 1v-513c22.667 -4 34.667 -6 36 -6c10 0 22.667 10 38 30l16 -11
c-20 -24 -38 -46.667 -54 -68s-30.333 -41.333 -43 -60c-20.667 8.66699 -40 15.834 -58 21.501s-34.667 10.167 -50 13.5c-32.667 7.33301 -68.667 11 -108 11c-22.667 0 -40.834 -2.83301 -54.501 -8.5s-28.834 -15.5 -45.501 -29.5l-14 16l87 80
c21.333 19.333 37.833 41.333 49.5 66s17.5 50.334 17.5 77.001v74h-13c-49.333 0 -81.333 -15 -96 -45l-11 2c2.66699 52 14.834 89.833 36.501 113.5s48.5 35.5 80.5 35.5h3v58c0 26.667 7.83301 51.334 23.5 74.001s42.5 46 80.5 70c1.33301 0.666992 3 1.66699 5 3
c1.33301 1.33301 2.83301 2.5 4.5 3.5s3.83398 2.16699 6.50098 3.5c-30.667 4.66699 -59.167 10.5 -85.5 17.5s-50.333 10.167 -72 9.5s-40.334 -8.16699 -56.001 -22.5s-28.167 -40.5 -37.5 -78.5l-19 7c4 22 11.5 44.833 22.5 68.5s24.167 45 39.5 64
s32.5 34.5 51.5 46.5s39.167 17.333 60.5 16zM275 582.998l-0.000976562 -279c0 -17.333 -2.16699 -33.333 -6.5 -48s-11 -28.667 -20 -42s-20.667 -26.833 -35 -40.5s-31.5 -28.5 -51.5 -44.5c10 2 19.5 3.66699 28.5 5s18.167 2 27.5 2c4 0 10.333 -1 19 -3l28 -6.5
c10 -2.33301 20.167 -5 30.5 -8s19.5 -5.5 27.5 -7.5v513c-2.66699 0.666992 -5.16699 1.16699 -7.5 1.5s-5.16602 0.833008 -8.49902 1.5c-21.333 -6 -32 -20.667 -32 -44z" />
    <glyph glyph-name="afii10021" unicode="&#x414;" horiz-adv-x="723" 
d="M677 263c0 -32 -5.33789 -60.665 -16.0049 -85.998s-28.667 -49.333 -54 -72c-12.667 -11.333 -25.167 -21.833 -37.5 -31.5s-25.166 -18.834 -38.499 -27.501s-28.833 -18 -46.5 -28l-60.5 -34l-57 18c-16.667 5.33301 -31.667 9.66602 -45 12.999
c-25.333 7.33301 -56.666 14 -93.999 20s-74.666 9 -111.999 9c-30 0 -60 -15.333 -90 -46l-15 17l98 88c42.667 38 64 83.333 64 136v74h-13c-49.333 0 -81.333 -15 -96 -45l-11 2c2.66699 52 14.834 89.833 36.501 113.5s48.5 35.5 80.5 35.5h3v31
c0 26.667 7.83301 50.5 23.5 71.5s42.5 43.5 80.5 67.5l-2 2c-38.667 -10.667 -71.667 -16 -99 -16c-66 0 -116.333 53 -151 159l10 13c28.667 -48 70.334 -72 125.001 -72c13.333 0 31.166 1.5 53.499 4.5s49.5 7.16699 81.5 12.5c64.667 12 110.334 18 137.001 18
c163.333 0 245 -83.667 245 -251v-196zM347.995 351.002l213.998 99c-0.666992 28 -4 52.167 -10 72.5s-15.667 36.833 -29 49.5s-30.666 22 -51.999 28s-47.666 9 -78.999 9c-4 0 -9.66699 -0.333008 -17 -1s-16.333 -1.66699 -27 -3v-254zM347.993 258.002l214 99v76
l-214 -98v-77zM561.993 340.002l-214 -98.002v-119c24.667 -5.33301 52 -12.166 82 -20.499s63 -18.166 99 -29.499c22 16.667 33 62 33 136v131zM329.993 602l-4.99902 -1c-24 -5.33301 -36 -20.333 -36 -45v-252c0 -17.333 -2.16699 -33.333 -6.5 -48
s-11.333 -28.667 -21 -42s-21.834 -26.833 -36.501 -40.5s-32 -28.5 -52 -44.5l1 -2c28 10 45.667 15 53 15c20.667 0 55 -5 103 -15v475z" />
    <glyph glyph-name="afii10022" unicode="&#x415;" horiz-adv-x="592" 
d="M598 712l-49.5049 -62c-16.333 -20 -33.166 -39 -50.499 -57c-59.333 22.667 -110 47.334 -152 74.001v-222h160c-3.33301 -18.667 -7.16602 -38 -11.499 -58s-7.83301 -38 -10.5 -54c-14.667 8.66699 -32.667 13 -54 13h-84v-205c21.333 -4 45.666 -9 72.999 -15
l63.5 -14.5c15.667 -3.66699 26.5 -5.5 32.5 -5.5c13.333 2.66699 22.666 7 27.999 13s12.333 16 21 30l19 -13l-103 -145l-62 15.5l-45 10.5c-12 3.33301 -27.167 6.5 -45.5 9.5s-40.166 6.16699 -65.499 9.5c-24.667 3.33301 -49.167 5.83301 -73.5 7.5
s-48.833 2.5 -73.5 2.5c-26 0 -56.333 -15.333 -91 -46l-15 17l86 77c32.667 29.333 53.334 55.666 62.001 78.999c9.33301 26 14 59.333 14 100v77h-13c-49.333 0 -81.333 -15 -96 -45l-9 4c4.66699 50 17.334 87 38.001 111s46.334 36 77.001 36h3v170
c52.667 20.667 136.667 62.667 252 126c54.667 -36 96.334 -54 125.001 -54c10 0 22 8.66699 36 26zM327.995 674l-4.00098 3.00098l-37 -18v-336c0 -62.667 -26.333 -115.334 -79 -158.001l-37 -30l4 -5c22.667 12 47 18 73 18c12.667 0 25.834 -0.5 39.501 -1.5
s27.167 -2.16699 40.5 -3.5v531z" />
    <glyph glyph-name="afii10024" unicode="&#x416;" horiz-adv-x="898" 
d="M226 363c-28.667 7.33301 -53.333 22.6621 -74 45.9951s-32.334 57 -35.001 101l-1 58c-3.33301 34 -8.5 56.5 -15.5 67.5s-16.5 17.167 -28.5 18.5c-10.667 1.33301 -21.334 -5.33398 -32.001 -20.001l-17 17l94 99c36.667 -5.33301 65.667 -20 87 -44
s33 -56.667 35 -98l2 -79c1.33301 -16.667 2.66602 -32 3.99902 -46s3.5 -26.5 6.5 -37.5s7.33301 -20.5 13 -28.5s13.834 -14.333 24.501 -19c5.33301 -2.66699 15.5 -3 30.5 -1s30.5 5 46.5 9v63c0 26.667 7.83301 53.167 23.5 79.5s42.5 51.5 80.5 75.5
c0.666992 0 1.33398 0.333008 2.00098 1c2 2 4 3.66699 6 5c-7.33301 0.666992 -18.166 2.5 -32.499 5.5s-29.333 6.33301 -45 10s-30 6.83398 -43 9.50098s-21.833 4 -26.5 4c-19.333 0 -29 -9 -29 -27c0 -16 0.333008 -24.333 1 -25l-2 -1l-27 13
c0 18.667 8 38.334 24 59.001s40.333 47 73 79l94.5 -26.5c29 -8.33301 52.5 -12.5 70.5 -12.5c4.66699 0 9.16699 0.333008 13.5 1s8.66602 2.16699 12.999 4.5s9.33301 5.83301 15 10.5s12.5 11 20.5 19l11 -10c-8.66699 -15.333 -17.167 -29.5 -25.5 -42.5
s-17.166 -24.833 -26.499 -35.5v-291c22 4.66699 40 10.5 54 17.5s25.333 14.667 34 23s15.167 17.333 19.5 27s7.5 19.834 9.5 30.501c2.66699 14 3.5 29.167 2.5 45.5s-2.5 32.833 -4.5 49.5s-3.33301 33.167 -4 49.5s1 31.833 5 46.5
c4.66699 15.333 16.834 29.333 36.501 42s43.834 23 72.501 31c8 2.66699 17.667 4.83398 29 6.50098l31 4.5l9 -16c-16 -4 -29.5 -9.5 -40.5 -16.5s-17.167 -16.167 -18.5 -27.5c-2 -13.333 -1.5 -32 1.5 -56s6.16699 -51.667 9.5 -83c2 -17.333 -1 -33.166 -9 -47.499
s-18.667 -27.5 -32 -39.5s-28 -23 -44 -33l-44 -28c30 -3.33301 54.833 -14.5 74.5 -33.5s32.5 -49.833 38.5 -92.5l13 -101c4.66699 -33.333 11.334 -55 20.001 -65s19 -15 31 -15c10 0 20 8 30 24l17 -14l-84 -111c-36.667 0.666992 -66.667 11.5 -90 32.5
s-37.666 51.833 -42.999 92.5l-14 121c-6 42 -15.333 70 -28 84c-7.33301 8 -16.833 15.5 -28.5 22.5s-26.167 11.167 -43.5 12.5l-10 -3v-247c22.667 -4 34.667 -6 36 -6c10 0 22.667 10 38 30l16 -11c-20 -24 -38 -46.667 -54 -68s-30.333 -41.333 -43 -60
c-20.667 8.66699 -41.334 15.834 -62.001 21.501s-38.667 10.167 -54 13.5c-12 2.66699 -26.5 5.5 -43.5 8.5s-34.167 4.33301 -51.5 4s-33.5 -3.16602 -48.5 -8.49902s-26.5 -14.666 -34.5 -27.999l-14 16c24.667 28.667 45.167 53.834 61.5 75.501s29 41 38 58
s15.333 32.333 19 46s5.5 27.167 5.5 40.5v142c-10 -2 -20.5 -4.5 -31.5 -7.5l-31.5 -9c-10 -3 -19 -6 -27 -9s-14 -5.5 -18 -7.5c-18.667 -10.667 -30.334 -25.834 -35.001 -45.501s-7 -41.167 -7 -64.5c0 -26 0.666992 -49.833 2 -71.5s-0.166992 -41.834 -4.5 -60.501
s-12.833 -35.667 -25.5 -51s-33 -29.333 -61 -42c-12.667 -5.33301 -27.167 -10.5 -43.5 -15.5s-33.5 -9.83301 -51.5 -14.5l-12 21c21.333 9.33301 36.333 18.166 45 26.499s14 19.833 16 34.5c0.666992 5.33301 1.16699 16.5 1.5 33.5s0.833008 35 1.5 54
s1.16699 36.667 1.5 53s0.5 26.833 0.5 31.5c3.33301 38.667 17.166 67 41.499 85s57.166 31.667 98.499 41zM526.001 639.996c-2.66699 -1.33301 -5 -2 -7 -2c-9.33301 -4.66699 -16.5 -10.667 -21.5 -18s-7.5 -17 -7.5 -29v-287c0 -17.333 -2.5 -33.333 -7.5 -48
s-12.5 -28.667 -22.5 -42s-22.667 -26.833 -38 -40.5s-33 -28.5 -53 -44.5c10 2 19.5 3.66699 28.5 5s18.167 2 27.5 2c4 0 10.833 -1 20.5 -3l31 -6.5c11 -2.33301 22 -5 33 -8l28.5 -7.5v537z" />
    <glyph glyph-name="afii10025" unicode="&#x417;" horiz-adv-x="589" 
d="M173 658c-36 0 -64.501 -8.33105 -85.501 -24.998s-31.5 -40.334 -31.5 -71.001c0 -11.333 1.16699 -22 3.5 -32s6.16602 -18 11.499 -24c4.66699 -5.33301 7.83398 -9.16602 9.50098 -11.499s5.83398 -5.83301 12.501 -10.5c3.33301 -2 5.66602 -3.5 6.99902 -4.5
s2.66602 -1.83301 3.99902 -2.5l5 -2.5l9 -4.5l13 -7v-4l-39 -12c-41.333 33.333 -62 72 -62 116c0 30 4.66699 57 14 81s22.5 44.5 39.5 61.5s37.167 30 60.5 39s49 13.5 77 13.5c9.33301 0 27 -1.5 53 -4.5s55 -7.16699 87 -12.5c61.333 -10.667 104.333 -16 129 -16
c29.333 0 54.666 6 75.999 18l19 -19l-204 -215c24.667 -4.66699 47.834 -13.334 69.501 -26.001s40.834 -28.334 57.501 -47.001s30.334 -40.167 41.001 -64.5s17.667 -50.5 21 -78.5c0.666992 -31.333 -1.83301 -57.666 -7.5 -78.999s-13.834 -39.666 -24.501 -54.999
s-23.334 -28.833 -38.001 -40.5s-30.167 -23.334 -46.5 -35.001s-32.833 -24.5 -49.5 -38.5s-32.667 -31.333 -48 -52c-44 22.667 -81.833 38.334 -113.5 47.001s-60.167 13 -85.5 13c-24 0 -46.667 -3.33301 -68 -10s-36.666 -19.667 -45.999 -39l-10 13
c2.66699 19.333 9.33398 37.666 20.001 54.999s23.5 32.666 38.5 45.999s31.5 24 49.5 32s36 12 54 12c9.33301 0 18.5 -0.333008 27.5 -1s18.167 -1.66699 27.5 -3v488c-39.333 8 -65 12 -77 12zM416.999 100.002c8.66699 10.667 15.667 24.1709 21 40.5039
s8.83301 34 10.5 53s1.66699 38.667 0 59s-5.5 40.166 -11.5 59.499c-5.33301 17.333 -13 33.166 -23 47.499s-21.5 26.666 -34.5 36.999s-27.167 18.833 -42.5 25.5s-31 10.667 -47 12l-22 -22v-258c21.333 -4.66699 44 -11.334 68 -20.001s51 -20 81 -34zM267.999 434.006
l190.999 189l-1 1c-2.66699 -0.666992 -6.83398 -1.16699 -12.501 -1.5s-16.5 -0.5 -32.5 -0.5c-9.33301 0 -26.666 1.5 -51.999 4.5s-52 7.5 -80 13.5c-3.33301 0.666992 -7.66602 1.66699 -12.999 3v-209z" />
    <glyph glyph-name="afii10026" unicode="&#x418;" horiz-adv-x="699" 
d="M356 398l170 111v63l-170 -113v-61zM525 602l-86 50.002l49.5 51.5l44.5 49.5c10.667 -10 21 -18.5 31 -25.5s19.5 -13 28.5 -18l26 -14.5c8.33301 -4.66699 16.166 -9.66699 23.499 -15v-374c0 -28.667 -4 -53.334 -12 -74.001
c-7.33301 -20.667 -16.333 -36.334 -27 -47.001c-4.66699 -5.33301 -10.834 -11.5 -18.501 -18.5s-17.167 -15.167 -28.5 -24.5v-3c24.667 -9.33301 48.334 -16.833 71.001 -22.5s44.334 -9.83398 65.001 -12.501c-5.33301 -7.33301 -14 -18 -26 -32l-34.5 -42.5
c-11 -13.667 -20.5 -26.167 -28.5 -37.5c-38 28 -86.667 50.667 -146 68v6c46 30.667 69 70.334 69 119.001v214l-170 -109v-183c22.667 -4 34.334 -6 35.001 -6c10.667 0 23.667 10 39 30l16 -11c-64.667 -83.333 -97.334 -126 -98.001 -128
c-58.667 25.333 -129.334 38 -212.001 38c-22 0 -40.333 -2.66699 -55 -8c-13.333 -5.33301 -29.333 -15.333 -48 -30l-14 16l85 77c50.667 46.667 76 90.667 76 132v109h-11c-49.333 0 -81.333 -15 -96 -45l-9 4c4.66699 50 17 87 37 111s45.333 36 76 36h3v144
c-20.667 14.667 -38 26.5 -52 35.5s-24.667 15.5 -32 19.5c-15.333 8 -27.666 12 -36.999 12c-8 0 -20.333 -7.33301 -37 -22l-13 14l126 106l160 -113l1 -339c0.666992 -61.333 -39.333 -117.333 -120 -168l3 -4c25.333 7.33301 43 11 53 11
c13.333 0 48.333 -5.66699 105 -17l-1 632v2l20 -1v-263l170 111z" />
    <glyph glyph-name="afii10027" unicode="&#x419;" horiz-adv-x="699" 
d="M356 398l170 111v63l-170 -113v-61zM525 602l-86 50.002l49.5 51.5l44.5 49.5c10.667 -10 21 -18.5 31 -25.5s19.5 -13 28.5 -18l26 -14.5c8.33301 -4.66699 16.166 -9.66699 23.499 -15v-374c0 -28.667 -4 -53.334 -12 -74.001
c-7.33301 -20.667 -16.333 -36.334 -27 -47.001c-4.66699 -5.33301 -10.834 -11.5 -18.501 -18.5s-17.167 -15.167 -28.5 -24.5v-3c24.667 -9.33301 48.334 -16.833 71.001 -22.5s44.334 -9.83398 65.001 -12.501c-5.33301 -7.33301 -14 -18 -26 -32l-34.5 -42.5
c-11 -13.667 -20.5 -26.167 -28.5 -37.5c-38 28 -86.667 50.667 -146 68v6c46 30.667 69 70.334 69 119.001v214l-170 -109v-183c22.667 -4 34.334 -6 35.001 -6c10.667 0 23.667 10 39 30l16 -11c-64.667 -83.333 -97.334 -126 -98.001 -128
c-58.667 25.333 -129.334 38 -212.001 38c-22 0 -40.333 -2.66699 -55 -8c-13.333 -5.33301 -29.333 -15.333 -48 -30l-14 16l85 77c50.667 46.667 76 90.667 76 132v109h-11c-49.333 0 -81.333 -15 -96 -45l-9 4c4.66699 50 17 87 37 111s45.333 36 76 36h3v144
c-20.667 14.667 -38 26.5 -52 35.5s-24.667 15.5 -32 19.5c-15.333 8 -27.666 12 -36.999 12c-8 0 -20.333 -7.33301 -37 -22l-13 14l126 106l160 -113l1 -339c0.666992 -61.333 -39.333 -117.333 -120 -168l3 -4c25.333 7.33301 43 11 53 11
c13.333 0 48.333 -5.66699 105 -17l-1 632v2l20 -1v-263l170 111zM512 882.002c2 0 4 -0.331055 6 -0.998047c4 -1.33301 7.33301 -3.33301 10 -6c-19.333 -39.333 -40 -66.333 -62 -81s-43.5 -22.834 -64.5 -24.501s-40.5 0.166016 -58.5 5.49902
s-32.333 8.66602 -43 9.99902c-8 0.666992 -17 -7.66602 -27 -24.999l-4 -8l-15 11l27 52c10 19.333 20.667 41.333 32 66c4 -3.33301 14.833 -8.5 32.5 -15.5s37.167 -12.333 58.5 -16s42.333 -3.66699 63 0s35.667 14.5 45 32.5z" />
    <glyph glyph-name="afii10028" unicode="&#x41a;" horiz-adv-x="740" 
d="M378 353l-0.00390625 -242.006c22.667 -4 34.334 -6 35.001 -6c10.667 0 23.667 10 39 30l16 -11c-64.667 -83.333 -97.334 -126 -98.001 -128c-58.667 25.333 -129.334 38 -212.001 38c-22 0 -40.333 -2.66699 -55 -8c-13.333 -5.33301 -29.333 -15.333 -48 -30l-14 16
l85 77c50.667 46.667 76 90.667 76 132v109h-13c-49.333 0 -81.333 -15 -96 -45l-15 4c2 52.667 14.167 90.334 36.5 113.001s50.5 34 84.5 34h3v57c0 24 2.66699 43.667 8 59s15 30.666 29 45.999c4.66699 5.33301 12.334 11.833 23.001 19.5s21.667 14.167 33 19.5
c-16 -5.33301 -33 -7.5 -51 -6.5s-36 2.83301 -54 5.5l-52.5 8c-17 2.66699 -32.5 2.66699 -46.5 0s-26.167 -8.83398 -36.5 -18.501s-17.5 -25.167 -21.5 -46.5l-21 -3c17.333 53.333 38.5 94 63.5 122s54.167 42 87.5 42c9.33301 0 21.666 -1 36.999 -3
s31.333 -4.33301 48 -7s32.5 -5.5 47.5 -8.5s26.833 -5.16699 35.5 -6.5c10 0 19.333 2.33301 28 7v32l19 1v-382c22.667 4.66699 41.334 10.334 56.001 17.001s26.5 14.334 35.5 23.001s15.833 17.834 20.5 27.501s8 20.167 10 31.5c2.66699 14 3.5 29.167 2.5 45.5
s-2.5 32.833 -4.5 49.5s-3.33301 33.167 -4 49.5s1 31.833 5 46.5c4.66699 15.333 16.834 29.333 36.501 42s43.834 23 72.501 31c8 2.66699 17.667 4.83398 29 6.50098l31 4.5l9 -14c-16 -4 -29.5 -8.66699 -40.5 -14s-17.167 -13.666 -18.5 -24.999
c-2 -13.333 -1.5 -33.166 1.5 -59.499l9.5 -86.5c2 -17.333 -1 -33.166 -9 -47.499s-18.667 -27.5 -32 -39.5s-28 -23 -44 -33l-44 -28c30 -3.33301 54.833 -14.5 74.5 -33.5s32.5 -49.833 38.5 -92.5l13 -101c4.66699 -33.333 11.334 -55 20.001 -65s19 -15 31 -15
c10 0 20 8 30 24l17 -14l-84 -111c-36.667 0.666992 -66.667 11.5 -90 32.5s-37.666 51.833 -42.999 92.5l-14 121c-6 42 -15.333 70 -28 84c-7.33301 8 -16.833 15.5 -28.5 22.5s-26.167 11.167 -43.5 12.5zM358.996 701.994c-17.333 -17.333 -28.5 -38 -33.5 -62
s-7.5 -54.667 -7.5 -92v-255c0.666992 -61.333 -39.333 -117.333 -120 -168l3 -4c25.333 7.33301 43 11 53 11c13.333 0 48.333 -5.66699 105 -17v587z" />
    <glyph glyph-name="afii10029" unicode="&#x41b;" horiz-adv-x="707" 
d="M350 103c22.667 -4 34.3359 -6 35.0029 -6c10.667 0 23.667 10 39 30l16 -11c-64.667 -83.333 -97.334 -126 -98.001 -128c-58.667 25.333 -129.334 38 -212.001 38c-22 0 -40.333 -2.66699 -55 -8c-13.333 -5.33301 -29.333 -15.333 -48 -30l-14 16l85 77
c50.667 46.667 76 90.667 76 132v109h-13c-49.333 0 -81.333 -15 -96 -45l-15 4c2 52.667 14.167 90.334 36.5 113.001s50.5 34 84.5 34h3v27c0 16 1 29.833 3 41.5s5.83301 22.667 11.5 33s13 20.333 22 30s20.5 20.5 34.5 32.5l187 151l182 -115v-476l82 -55l-49.5 -51.5
l-44.5 -49.5l-57 54c-16.667 15.333 -32.334 28.666 -47.001 39.999v272l-148 -55v-204zM300.002 601c-5.33301 -12 -8.33301 -27.167 -9 -45.5s-1 -41.833 -1 -70.5v-200c0.666992 -61.333 -39.333 -117.333 -120 -168l3 -4c25.333 7.33301 43 11 53 11
c13.333 0 48.333 -5.66699 105 -17v530c-7.33301 -5.33301 -13.833 -11.333 -19.5 -18s-9.5 -12.667 -11.5 -18zM498.002 568l-141 85c-1.33301 -0.666992 -2.5 -1.16699 -3.5 -1.5s-2.16699 -0.833008 -3.5 -1.5v-234l148 56v96zM359.002 703l-31.998 -25
c-12 -9.33301 -24.5 -18.166 -37.5 -26.499s-25.833 -15.333 -38.5 -21s-24 -8.5 -34 -8.5c-4 0 -11.5 1.5 -22.5 4.5l-35.5 10c-12.667 3.66699 -24.834 7 -36.501 10s-19.834 4.5 -24.501 4.5c-19.333 0 -29 -9 -29 -27c0 -16 0.333008 -24.333 1 -25l-2 -1l-27 13
c0 18.667 8 38.334 24 59.001s40.333 47 73 79c16.667 -4.66699 33.667 -9.83398 51 -15.501s34 -10.834 50 -15.501s30.5 -8.5 43.5 -11.5s24.167 -4.5 33.5 -4.5c14 0 26.333 4.33301 37 13zM350.004 323l148 56v76l-148 -55v-77z" />
    <glyph glyph-name="afii10030" unicode="&#x41c;" horiz-adv-x="973" 
d="M901 309c0 -28.667 -4.00098 -53.333 -12.001 -74c-7.33301 -20.667 -16.333 -36.334 -27 -47.001c-4.66699 -5.33301 -10.834 -11.5 -18.501 -18.5s-17.167 -15.167 -28.5 -24.5v-3c24.667 -9.33301 48.334 -16.833 71.001 -22.5s44.334 -9.83398 65.001 -12.501
c-5.33301 -7.33301 -14 -18 -26 -32l-34.5 -42.5c-11 -13.667 -20.5 -26.167 -28.5 -37.5c-38 28 -86.667 50.667 -146 68v6c46 30.667 69 70.334 69 119.001v170l-126 -55v-204h-1l3 -2l-49.5 -51.5l-44.5 -49.5c-10.667 10 -20 19.5 -28 28.5l-22 25.5
c-6.66699 8 -13.167 15.333 -19.5 22s-13.166 12.667 -20.499 18v272l-127 -55v-204c22.667 -4 34.334 -6 35.001 -6c10.667 0 23.667 10 39 30l16 -11c-64.667 -83.333 -97.334 -126 -98.001 -128c-58.667 25.333 -129.334 38 -212.001 38c-22 0 -40.333 -2.66699 -55 -8
c-13.333 -5.33301 -29.333 -15.333 -48 -30l-14 16l85 77c50.667 46.667 76 90.667 76 132v109h-13c-49.333 0 -81.333 -15 -96 -45l-15 4c2 52.667 14.167 90.334 36.5 113.001s50.5 34 84.5 34h3v27c0 16 1 29.833 3 41.5s5.83301 22.667 11.5 33s13 20.333 22 30
s20.5 20.5 34.5 32.5l187 151l161 -115v-2l148 119l161 -115zM299.999 601.001c-5.33301 -12 -8.33301 -27.167 -9 -45.5s-1 -41.833 -1 -70.5v-200c0.666992 -61.333 -39.333 -117.333 -120 -168l3 -4c25.333 7.33301 43 11 53 11c13.333 0 48.333 -5.66699 105 -17v530
c-7.33301 -5.33301 -13.833 -11.333 -19.5 -18s-9.5 -12.667 -11.5 -18zM358.999 703.001l-31.998 -25.001c-12 -9.33301 -24.5 -18.166 -37.5 -26.499s-25.833 -15.333 -38.5 -21s-24 -8.5 -34 -8.5c-4 0 -12.5 1.5 -25.5 4.5s-26.833 6.5 -41.5 10.5
s-28.834 7.5 -42.501 10.5s-22.834 4.5 -27.501 4.5c-19.333 0 -29 -9 -29 -27c0 -16 0.333008 -24.333 1 -25l-2 -1l-27 13c0 18.667 8 38.334 24 59.001s40.333 47 73 79l54 -15.5c19.333 -5.66699 38 -10.834 56 -15.501s34.5 -8.66699 49.5 -12s27.167 -5 36.5 -5
c14 0 26.333 4.33301 37 13zM786.001 579c-37.333 29.333 -63.999 48 -79.999 56c-14.667 8.66699 -29.334 13 -44.001 13h-3v-236l126 56zM617.002 621c-1.33301 -1.33301 -4.5 -4 -9.5 -8s-9.83301 -7.66699 -14.5 -11v-450l47 -38v525
c-8 -4.66699 -15.667 -10.667 -23 -18zM477.002 577l-120 76c-1.33301 -0.666992 -2.5 -1.16699 -3.5 -1.5s-2.16699 -0.833008 -3.5 -1.5v-234l127 56v105zM350.002 323l127 56v76l-127 -55v-77zM659.002 319l126 56v76l-126 -55v-77z" />
    <glyph glyph-name="afii10031" unicode="&#x41d;" horiz-adv-x="776" 
d="M695 146l82.002 -50.002l-49.5 -51.5l-44.5 -49.5l-57 54c-16.667 15.333 -32.334 28.666 -47.001 39.999l-1 243h-177v-221c22.667 -4 34.334 -6 35.001 -6c10.667 0 23.667 10 39 30l16 -11c-64.667 -83.333 -97.334 -126 -98.001 -128
c-29.333 12.667 -62.666 22.167 -99.999 28.5s-77 9.5 -119 9.5c-22 0 -40.333 -2.66699 -55 -8c-13.333 -5.33301 -29.333 -15.333 -48 -30l-14 16l85 77c50.667 46.667 76 90.667 76 132v109h-13c-49.333 0 -81.333 -15 -96 -45l-15 4
c2 52.667 14.167 90.334 36.5 113.001s50.5 34 84.5 34h3v57c0 16 1 29.833 3 41.5s5.83301 22.667 11.5 33s13 20.333 22 30s20.5 20.5 34.5 32.5c-20.667 -1.33301 -40.667 -0.666016 -60 2.00098s-37.666 5.33398 -54.999 8.00098s-33.5 4.5 -48.5 5.5
s-28.667 -0.166992 -41 -3.5s-22.833 -9.83301 -31.5 -19.5s-15.334 -24.167 -20.001 -43.5l-21 -3c17.333 53.333 38.5 94 63.5 122s54.167 42 87.5 42c9.33301 0 23 -1 41 -3s36.667 -4.33301 56 -7s37.666 -5.5 54.999 -8.5s30.333 -5.16699 39 -6.5
c10 0 19.333 2.33301 28 7v32l19 1v-259h177v106l-86 50l49.5 51.5l44.5 49.5c10.667 -10 21 -18.5 31 -25.5s19.5 -13 28.5 -18l26 -14.5c8.33301 -4.66699 16.166 -9.66699 23.499 -15v-534zM270.002 131.998c7.33301 0 20.833 -1.5 40.5 -4.5s43.5 -7.16699 71.5 -12.5
v587c-17.333 -17.333 -28.5 -38 -33.5 -62s-7.5 -54.667 -7.5 -92v-255c0.666992 -31.333 -10.333 -60.833 -33 -88.5s-54 -54.167 -94 -79.5l3 -4c25.333 7.33301 43 11 53 11zM401.002 424.998l177 1v51h-177v-52z" />
    <glyph glyph-name="afii10032" unicode="&#x41e;" horiz-adv-x="844" 
d="M807 372c0 -54 -8.99805 -103.164 -26.998 -147.497s-41.333 -80.833 -70 -109.5c-22 -22 -45.833 -41.167 -71.5 -57.5s-51.834 -30 -78.501 -41s-53.167 -19.167 -79.5 -24.5s-50.833 -7.66602 -73.5 -6.99902c-104.667 0 -192 32 -262 96
c-70 64.667 -105 149.667 -105 255c0 73.333 18.667 137.666 56 192.999c36.667 54 83 95.667 139 125l12 -10c-28 -22 -49.667 -54.833 -65 -98.5s-23 -93.834 -23 -150.501c0 -81.333 16.333 -152.333 49 -213c17.333 12 28.666 25 33.999 39s8 34.667 8 62v299
c46 32 86.167 61.833 120.5 89.5s63.833 54.167 88.5 79.5c50 -4.66699 96.167 -15.334 138.5 -32.001s79 -40.167 110 -70.5s55.333 -68.333 73 -114s26.5 -99.834 26.5 -162.501zM416.002 361.003l248 113c-36 106 -118.667 169 -248 189v-302zM416.002 268.003
l265.999 121c-1.33301 14 -3.16602 26.833 -5.49902 38.5s-4.83301 22.167 -7.5 31.5l-253 -114v-77zM686.001 326.003c0 7.33301 -0.167969 14.999 -0.500977 22.999s-0.833008 16.333 -1.5 25l-268 -122v-223c12 -2 25 -3 39 -3c72.667 0 129.334 25.333 170.001 76
s61 125.334 61 224.001zM398 666.002l-41.001 -35v-370l-141 -93c42.667 -72 103.334 -117.333 182.001 -136v634z" />
    <glyph glyph-name="afii10033" unicode="&#x41f;" horiz-adv-x="709" 
d="M692 104c-5.33301 -7.33301 -14.001 -17.998 -26.001 -31.998l-34.5 -42.5c-11 -13.667 -20.5 -26.167 -28.5 -37.5c-38 28 -86.667 50.667 -146 68v6c46 30.667 69 70.334 69 119.001v173l-170 -77v-174c22.667 -4 34.334 -6 35.001 -6c10.667 0 23.667 10 39 30l16 -11
c-64.667 -83.333 -97.334 -126 -98.001 -128c-58.667 25.333 -129.334 38 -212.001 38c-22 0 -40.333 -2.66699 -55 -8c-13.333 -5.33301 -29.333 -15.333 -48 -30l-14 16l85 77c50.667 46.667 76 90.667 76 132v109h-11c-49.333 0 -81.333 -15 -96 -45l-9 4
c4.66699 50 17 87 37 111s45.333 36 76 36h3v144c-20.667 14.667 -38 26.5 -52 35.5s-24.667 15.5 -32 19.5c-15.333 8 -27.666 12 -36.999 12c-8 0 -20.333 -7.33301 -37 -22l-13 14l126 106l157 -113l24.5 17.5c9.66699 7 16.5 11.833 20.5 14.5l-1 77v2l21 -1l-1 -65
l90 66c28.667 -5.33301 55 -13.833 79 -25.5s44.667 -26.667 62 -45s30.833 -40 40.5 -65s14.5 -53.5 14.5 -85.5v-212c0 -28.667 -4 -53.334 -12 -74.001c-7.33301 -20.667 -16.333 -36.334 -27 -47.001c-4.66699 -5.33301 -10.834 -11.5 -18.501 -18.5
s-17.167 -15.167 -28.5 -24.5v-3c24.667 -9.33301 48.334 -16.833 71.001 -22.5s44.334 -9.83398 65.001 -12.501zM355.999 394.002l169.999 78.001v10c0 58 -14.167 100.167 -42.5 126.5s-67.166 43.166 -116.499 50.499l-11 -9v-256zM355.998 301.003l170 78v73l-170 -77
v-74zM336.998 637.003l-41 -30v-318c0 -62 -40 -118 -120 -168l3 -4c25.333 7.33301 43 11 53 11c13.333 0 48.333 -5.66699 105 -17v526z" />
    <glyph glyph-name="afii10034" unicode="&#x420;" horiz-adv-x="703" 
d="M651 126c-50 -29.333 -110.331 -73.667 -180.998 -133c-16.667 9.33301 -35.667 18 -57 26s-44.666 14.667 -69.999 20v-162c0 -24 3 -45.333 9 -64v-2l-22 3c-3.33301 14.667 -5 33.334 -5 56.001v172c-9.33301 1.33301 -17.5 2.33301 -24.5 3
s-12.833 1.33398 -17.5 2.00098v-156c0 -11.333 0.5 -23 1.5 -35s2.16699 -24.333 3.5 -37l-3 -1c-8.66699 8 -17.667 18.667 -27 32s-15.333 26 -18 38h-3c-21.333 -40 -50.333 -69 -87 -87l-3 1c13.333 28 20 63 20 105v147h-51c-44.667 0 -73.334 -15 -86.001 -45l-10 4
c3.33301 44 16 80.167 38 108.5s50.667 42.5 86 42.5h23v150h-20c-44.667 0 -73.334 -15 -86.001 -45l-10 4c4.66699 44 16.167 79.5 34.5 106.5s44.5 40.5 78.5 40.5h3v166c-63.333 43.333 -101.333 65 -114 65c-10.667 0 -24.334 -7.33301 -41.001 -22l-12 14l125 106
l161 -117l39 26v23c0 23.333 -3 44.666 -9 63.999v2l22 -3c3.33301 -14.667 5 -33.334 5 -56.001v-18l117 80c127.333 -24 191 -105 191 -243v-381zM343.002 379.999l192 90.002v32c0 26 -3.5 48.333 -10.5 67s-17.167 34.667 -30.5 48s-29.833 24.166 -49.5 32.499
s-42.5 15.166 -68.5 20.499l-33 -23v-267zM343.002 287.001l192 90v73l-192 -89v-74zM325.002 635.001l-42 -28v-448c12.667 0 26.667 -1 42 -3v479zM535.002 90.001v266.999l-192 -89v-115c70.667 -9.33301 134 -30.666 190 -63.999z" />
    <glyph glyph-name="afii10035" unicode="&#x421;" horiz-adv-x="681" 
d="M687 713c-16.667 -23.333 -33.332 -45.3359 -49.999 -66.0029s-33.334 -39.667 -50.001 -57c-50.667 18.667 -99.334 38.667 -146.001 60v-576c3.33301 -0.666992 9 -1 17 -1h29c72 0 132.667 19 182 57l8 -12c-14.667 -20 -30.834 -38.333 -48.501 -55
s-37.5 -30.667 -59.5 -42s-46.667 -20.166 -74 -26.499s-58 -9.5 -92 -9.5c-103.333 0 -186.666 29.667 -249.999 89c-62 58.667 -93 141.334 -93 248.001c0 70.667 21 137 63 199c43.333 63.333 88.666 106.333 135.999 129l13 -9
c-28.667 -26.667 -51.667 -63.334 -69 -110.001c-16 -46 -24 -91.333 -24 -136c0 -90 18 -161 54 -213c16 12 27 25.667 33 41s9 35.333 9 60v297c30 22.667 61.5 47.834 94.5 75.501l106.5 91.5l60.5 -23.5c17 -6.33301 30.833 -11.166 41.5 -14.499
c20.667 -6.66699 41.334 -10 62.001 -10c10.667 0 21.334 8.33301 32.001 25zM423.002 658.997l-10.999 5l-30 -24v-379l-72 -46l-68 -46c41.333 -52 101.666 -83.333 180.999 -94v584z" />
    <glyph glyph-name="afii10036" unicode="&#x422;" horiz-adv-x="717" 
d="M723 739c-9.33301 -25.333 -18.333 -46.4971 -27 -63.4971s-18.167 -30.833 -28.5 -41.5s-21.5 -18.167 -33.5 -22.5s-25.333 -6.5 -40 -6.5c-18 0 -39.667 2.66699 -65 8v-534c16.667 0 33.5 1.66699 50.5 5s33.5 7.66602 49.5 12.999s30.833 11.5 44.5 18.5
s25.5 14.5 35.5 22.5l10 -16c-64 -91.333 -154.333 -137 -271 -137c-96.667 0 -175.667 30.333 -237 91c-62 60.667 -93 140.667 -93 240c0 35.333 5.5 68.833 16.5 100.5s26.333 61.334 46 89.001s43.5 53 71.5 76s59 43.5 93 61.5
c-16.667 1.33301 -31.834 2.33301 -45.501 3s-25.834 1 -36.501 1c-40 0 -76.333 -14 -109 -42c-31.333 -26.667 -60.333 -77 -87 -151l-19 7c10.667 73.333 27.667 131.666 51 174.999c11.333 21.333 23.5 39.166 36.5 53.499s27.167 25.666 42.5 33.999
s32.333 14.333 51 18s39 5.5 61 5.5c20.667 0 45 -2 73 -6s60.333 -9.66699 97 -17s70.334 -12.833 101.001 -16.5s58.334 -5.5 83.001 -5.5c10 0 19.5 3.16699 28.5 9.5s21.5 19.5 37.5 39.5zM511 616.003c-4 0.666992 -10.666 2.16699 -19.999 4.5
s-16.333 3.83301 -21 4.5v-361l-161 -110c47.333 -49.333 114.666 -74.333 201.999 -75v537zM363.001 641.003h-2c-82 -79.333 -123 -170 -123 -272c0 -84 19.667 -151.333 59 -202l34 24c21.333 15.333 32 47.333 32 96v354z" />
    <glyph glyph-name="afii10037" unicode="&#x423;" horiz-adv-x="719" 
d="M710 -138c0 -22 -6.33105 -42.165 -18.998 -60.498s-27.334 -32.5 -44.001 -42.5l-26 6v2c33.333 22 50 48 50 78c0 36 -20.333 54 -61 54c-12 0 -25.167 -2 -39.5 -6s-29.333 -9.16699 -45 -15.5s-31.167 -13.5 -46.5 -21.5l-44 -24c-26 -16 -60 -31.333 -102 -46
c-40 -14 -79.333 -21 -118 -21c-46 0 -83 11.667 -111 35s-42 54 -42 92c0 76.667 44.667 121 134 133v282h-13c-49.333 0 -81.333 -15 -96 -45l-9 4c1.33301 48.667 12.833 85.334 34.5 110.001s48.5 37 80.5 37h3v170c-65.333 46 -104.333 69 -117 69
c-10.667 0 -26.334 -9 -47.001 -27l-12 14l132 109l161 -117v-591c5.33301 0.666992 12.833 1.5 22.5 2.5s16.5 1.5 20.5 1.5v637c0 23.333 -3 44.666 -9 63.999v2l21 -3c4 -16 6 -34.667 6 -56v-54l138 113c54 -20 94.667 -48 122 -84s41 -86.333 41 -151v-207
c0 -85.333 -15.333 -150.333 -46 -195c-31.333 -44.667 -86.666 -70.334 -165.999 -77.001c-3.33301 -0.666992 -26.5 -3.33398 -69.5 -8.00098l-190.5 -21c-36 -4 -62.667 -14 -80 -30s-26 -33.667 -26 -53c0 -16.667 6.5 -29 19.5 -37s36.5 -12 70.5 -12
c24.667 -1.33301 52.167 4.66699 82.5 18s61.666 28.333 93.999 45s64.333 31.667 96 45s61.167 19.333 88.5 18c54 0 94.5 -11.667 121.5 -35s40.5 -57 40.5 -101zM374.002 405.002l185 84v10c0 22 -1.83301 41.667 -5.5 59s-10 32.5 -19 45.5s-21.167 24.5 -36.5 34.5
s-34.333 19 -57 27l-67 -54v-206zM374.002 312.002l185 84v74l-185 -83v-75zM559.002 376.002l-185 -83v-247c72 9.33301 120.667 29 146 59c26 30.667 39 82.667 39 156v115z" />
    <glyph glyph-name="afii10038" unicode="&#x424;" horiz-adv-x="918" 
d="M545 -148l-0.00390625 211.997h-10c-12 0.666992 -22 -0.333008 -30 -3v-162c0 -11.333 0.333008 -23 1 -35s1.66699 -24.333 3 -37c-5.33301 5.33301 -11.166 11.5 -17.499 18.5s-12.166 15.333 -17.499 25s-9.83301 20.834 -13.5 33.501s-5.5 27.667 -5.5 45
c-10 -17.333 -22 -34.166 -36 -50.499s-29.667 -28.5 -47 -36.5l-3 1c13.333 28.667 20 63.667 20 105v159l-21 -15l-56 -44l-53.5 -44.5l-42.5 -36.5c-23.333 22 -46.333 45 -69 69s-43 49 -61 75s-32.833 52.667 -44.5 80s-18 55.333 -19 84s4.16699 57.667 15.5 87
s30.666 59 57.999 89c20.667 22 45.834 45.167 75.501 69.5s59.834 47.166 90.501 68.499c10.667 -14.667 23.334 -27 38.001 -37s29.167 -17.833 43.5 -23.5s28.166 -9 41.499 -10s24.333 0.166992 33 3.5c2 2.66699 4.33301 5.33398 7 8.00098c9.33301 10 21 21 35 33
l85 65v40l-2 -2c-9.33301 -12.667 -19.5 -24 -30.5 -34s-23.167 -18 -36.5 -24s-28 -9 -44 -9c-4 0 -14.5 2 -31.5 6l-55 13.5l-56 14.5c-17.667 4.66699 -28.834 7 -33.501 7c-8 0 -14.167 -1.66699 -18.5 -5s-7.5 -7.5 -9.5 -12.5s-3 -10.5 -3 -16.5
s0.333008 -11.667 1 -17l-2 -1l-27 14c1.33301 14.667 7.5 29.834 18.5 45.501s27.167 33.834 48.5 54.501c10 10 18.667 17 26 21s14.833 6 22.5 6s16 -1.33301 25 -4s20.5 -5.66699 34.5 -9c28 -7.33301 52.833 -14.166 74.5 -20.499s38.834 -9.83301 51.501 -10.5
c10 -0.666992 18.667 0.666016 26 3.99902c5.33301 2 12.333 6.66699 21 14v3h3l13 11l11 -10l-8 -12v-204l38 31l53 43l42 36c23.333 -22 46.333 -45.167 69 -69.5s43 -49.5 61 -75.5s32.833 -52.833 44.5 -80.5s18 -55.834 19 -84.501s-4.16699 -57.834 -15.5 -87.501
s-30.666 -59.5 -57.999 -89.5c-20.667 -22 -45.167 -44.667 -73.5 -68s-57.833 -45.666 -88.5 -66.999c-11.333 14.667 -23.833 26.667 -37.5 36s-27.5 16.333 -41.5 21c-4.66699 2 -9 3.33301 -13 4v-209zM379.996 494.997
c-17.333 -9.33301 -36.501 -14.332 -57.501 -14.999s-41.833 3.66602 -62.5 12.999s-37.667 25.333 -51 48c-34 -19.333 -57.5 -41.333 -70.5 -66s-18.833 -50.5 -17.5 -77.5s8.5 -54.5 21.5 -82.5s28.833 -55.333 47.5 -82s38.834 -52.167 60.501 -76.5l60.5 -65.5
l22.5 16.5l31.5 23.5l24 18v297c0 16 1 29.667 3 41c0.666992 6 2 11.667 4 17c-4.66699 -3.33301 -10 -6.33301 -16 -9zM596.995 122.998c20 1.33301 39.833 -2.33301 59.5 -11s36.834 -23.667 51.501 -45c33.333 19.333 56.666 41.333 69.999 66s19.333 50.667 18 78
s-8.66602 55 -21.999 83l-8 18l-203 -92v-104c11.333 4 22.666 6.33301 33.999 7zM665.995 454.999c-21.333 24.667 -41.333 46.667 -60 66c-5.33301 -3.33301 -13 -9 -23 -17c-6.66699 -4.66699 -13 -9.66699 -19 -15l-1 -157l147 69c-14 18.667 -28.667 36.667 -44 54z
M541.995 105.999c1.33301 0.666992 2.33398 1.33203 3.00098 1.99902v367l-26 -19c-5.33301 -3.33301 -10 -6.66602 -14 -9.99902v-371c9.33301 12 21.666 22.333 36.999 31zM726.996 377.997l-6 7.99902l-158 -73v-74l194 89c-8.66699 16.667 -18.667 33.334 -30 50.001z
M544.996 624.996c-3.33301 -2 -6.33301 -4.33203 -9 -6.99902c-10 -8 -17 -16.667 -21 -26s-6.66699 -19.833 -8 -31.5s-2 -25.834 -2 -42.501v-49c12.667 8 26 17.333 40 28v128z" />
    <glyph glyph-name="afii10039" unicode="&#x425;" horiz-adv-x="632" 
d="M639 717l-41.501 -66.5l-31.5 -51.5c-22 0 -53.333 10 -94 30l-75 -195l91.5 -6c21 -1.33301 32.167 -2 33.5 -2c8 0 14.667 4 20 12l7 11l14 -8l-65 -104c-14.667 0 -37.334 1 -68.001 3l86 -195c12.667 -30 33 -45 61 -45c10 0 20.667 8 32 24l17 -14l-86 -118
c-66.667 9.33301 -110.334 41.333 -131.001 96l-97 246h-2l-127 -342c-33.333 23.333 -68 35 -104 35c-35.333 0 -53 -17.667 -53 -53c0 -8 3 -16.333 9 -25l-2 -2l-25 14c-2.66699 10 -4 19.667 -4 29c0 35.333 10 67.666 30 96.999c20.667 30 47.667 45 81 45
c26 0 52.667 -9.66699 80 -29l91 245v2l-94 6c-20.667 1.33301 -31.667 2 -33 2c-5.33301 0 -10.666 -3.66699 -15.999 -11l-7 -11l-14 8l63 102c14 0 37 -1 69 -3l-76 174c-32.667 17.333 -57.667 26 -75 26c-9.33301 0 -21.666 -7.33301 -36.999 -22l-13 14l77.5 63.5
c21 17.667 37.167 31.834 48.5 42.501c5.33301 -3.33301 12.333 -7.33301 21 -12l27 -14l27.5 -14l22.5 -12l96 -239h2l110 289c58.667 -24 94.667 -36 108 -36c10.667 0 21.334 7.33301 32.001 22z" />
    <glyph glyph-name="afii10040" unicode="&#x426;" horiz-adv-x="766" 
d="M360 425l182.001 83v68c-37.333 29.333 -64 48 -80 56c-14.667 8.66699 -29.334 13 -44.001 13c-12 0 -31.333 -13 -58 -39v-181zM360.001 332l182 83v72l-182 -82v-73zM542.001 394l-182 -82v-187c59.333 -21.333 99 -37.333 119 -48l36 25l27 19v273zM758.001 134
l-143.999 -300.002c-17.333 12.667 -38 23.834 -62 33.501s-48.333 15.667 -73 18s-47.334 0 -68.001 -7s-36 -20.5 -46 -40.5l-3 8c8.66699 28 23.167 51.5 43.5 70.5s43.666 33 69.999 42s54.5 12.833 84.5 11.5s59.333 -8.33301 88 -21l22 47
c-24 15.333 -48.5 31.833 -73.5 49.5s-44.833 32.167 -59.5 43.5l-135 -97l-122.5 48.5c-35.667 13.667 -67.5 24.834 -95.5 33.501v279h-17c-49.333 0 -81.333 -15 -96 -45l-9 4c4.66699 50 17.5 87.333 38.5 112s46.833 37 77.5 37h6v116
c-35.333 26.667 -61.333 44.667 -78 54c-17.333 9.33301 -33 14 -47 14c-7.33301 0 -18.666 -6.66699 -33.999 -20l-12 13l126 104l161 -115v-484l42 -11v608v2h19l-1 -112l137 112l161 -115v-481l66 -42l21 39z" />
    <glyph glyph-name="afii10041" unicode="&#x427;" horiz-adv-x="707" 
d="M449 742l161.002 -115v-481l82 -50l-49.5 -51.5l-44.5 -49.5l-57 54c-16.667 15.333 -32.334 28.666 -47.001 39.999l1 225l-141 -97l-122.5 48.5c-35.667 13.667 -67.5 24.834 -95.5 33.501v109h-18c-44.667 0 -73.334 -15 -86.001 -45l-10 4
c4.66699 44 16.167 79.5 34.5 106.5s44.5 40.5 78.5 40.5h1v60l-59 65c-6.66699 1.33301 -11 2 -13 2c-10 0 -25.333 -9 -46 -27l-13 13l132 111l116 -117v-253l53 -16v385l19 -3v-94zM431.002 302l36 25l27 19v109l-169 -76v-34l64.5 -24.5
c17.667 -7 31.5 -13.167 41.5 -18.5zM494.002 576c-37.333 29.333 -63.999 48 -79.999 56c-14.667 8.66699 -29.334 13 -44.001 13c-10 0 -25 -9 -45 -27v-126l169 77v7zM325.003 399l169 77v72l-169 -76v-73z" />
    <glyph glyph-name="afii10042" unicode="&#x428;" horiz-adv-x="1057" 
d="M372 -12c-44 19.333 -83.168 35.832 -117.501 49.499s-65.166 24.834 -92.499 33.501v281h-17c-23.333 0 -42.666 -3.66699 -57.999 -11s-26.333 -18.666 -33 -33.999l-9 4c4.66699 50.667 17 88.334 37 113.001s44.667 37 74 37h6v117l-44 33.5
c-12 9 -22.333 16.167 -31 21.5c-8.66699 4.66699 -16.5 8.16699 -23.5 10.5s-14.167 3.5 -21.5 3.5s-18.333 -7 -33 -21l-11 14l121 104l154 -115v-488l40 -11v548v60v2h19l-1 -55v-53l132 112l155 -115v-480l44 -19v548v60v2h17v-55v-53l131 112l155 -115v-485l79 -51
c-17.333 -17.333 -33.333 -34.5 -48 -51.5l-43 -50.5c-20.667 21.333 -39.834 39.666 -57.501 54.999l-46.5 40l-130 -98c-44 19.333 -84.5 38.166 -121.5 56.499s-69.167 31.833 -96.5 40.5zM330.999 424.999l173.999 84v68c-17.333 14.667 -32.5 26.667 -45.5 36
s-23.167 16.333 -30.5 21c-13.333 8.66699 -27.666 13 -42.999 13c-10.667 0 -29 -13.333 -55 -40v-182zM330.998 330.999l174 84v72l-174 -82v-74zM504.998 393.999l-174 -82.999v-189c28 -10.667 51.5 -20 70.5 -28s33.5 -14.667 43.5 -20l35 25
c10 7.33301 18.333 13.666 25 18.999v276zM678.998 425l175.001 84v68c-35.333 28 -61 47 -77 57c-14.667 8.66699 -28.667 13 -42 13c-12.667 0 -31.334 -13.333 -56.001 -40v-182zM678.999 331l175 84v72l-175 -82v-74zM853.999 394l-175 -83v-189
c56 -21.333 94 -37.333 114 -48l35 25l26 19v276z" />
    <glyph glyph-name="afii10043" unicode="&#x429;" horiz-adv-x="1087" 
d="M331 425l173.999 84v68c-17.333 14.667 -32.5 26.667 -45.5 36s-23.167 16.333 -30.5 21c-13.333 8.66699 -27.666 13 -42.999 13c-10.667 0 -29 -13.333 -55 -40v-182zM330.999 331l174 84v72l-174 -82v-74zM504.999 394l-174 -82.999v-189
c28 -10.667 51.5 -20 70.5 -28s33.5 -14.667 43.5 -20l35 25c10 7.33301 18.333 13.666 25 18.999v276zM678.999 425.001l175.001 84v68c-35.333 28 -61 47 -77 57c-14.667 8.66699 -28.667 13 -42 13c-12.667 0 -31.334 -13.333 -56.001 -40v-182zM679 331.001l175 84v72
l-175 -82v-74zM854 394.001l-175 -83v-189c56 -21.333 94 -37.333 114 -48l35 25l26 19v276zM1036 101.001l20.9961 38.998l13 -9l-144 -300c-11.333 8.66699 -25.5 17.167 -42.5 25.5s-35.333 15.5 -55 21.5s-40 10.5 -61 13.5s-41 3.66699 -60 2s-36.167 -6.5 -51.5 -14.5
s-27.333 -19.667 -36 -35l-3 8c12.667 36 32.334 63.5 59.001 82.5s56.334 31.5 89.001 37.5s66.167 6.33301 100.5 1s65.833 -14.333 94.5 -27l22 47c-24 15.333 -48.5 31.833 -73.5 49.5s-44.833 32.167 -59.5 43.5l-130 -98c-44 19.333 -84.5 38.166 -121.5 56.499
s-69.167 31.833 -96.5 40.5l-129 -97c-44 19.333 -83.167 35.833 -117.5 49.5s-65.166 24.834 -92.499 33.501v281h-17c-23.333 0 -42.666 -3.66699 -57.999 -11s-26.333 -18.666 -33 -33.999l-9 4c4.66699 50.667 17 88.334 37 113.001s44.667 37 74 37h6v117l-44 33.5
c-12 9 -22.333 16.167 -31 21.5c-8.66699 4.66699 -16.5 8.16699 -23.5 10.5s-14.167 3.5 -21.5 3.5s-18.333 -7 -33 -21l-11 14l121 104l154 -115v-488l40 -11v548v60v2h19l-1 -55v-53l132 112l155 -115v-480l44 -19v548v60v2h17v-55v-53l131 112l155 -115v-485z" />
    <glyph glyph-name="afii10044" unicode="&#x42a;" horiz-adv-x="670" 
d="M75 649c-8 0 -14.168 -1.66699 -18.501 -5s-7.5 -7.5 -9.5 -12.5s-3 -10.5 -3 -16.5s0.333008 -11.667 1 -17l-2 -1l-27 14c1.33301 14.667 7.5 29.834 18.5 45.501s27.167 33.834 48.5 54.501c14.667 14.667 29.167 22.5 43.5 23.5s29 -0.833008 44 -5.5
s30.167 -10.334 45.5 -17.001s31.333 -10.334 48 -11.001c8 -0.666992 15.167 -0.166992 21.5 1.5s14.833 6.83398 25.5 15.501v4h4c1.33301 1.33301 3 2.83301 5 4.5s4.33301 3.83398 7 6.50098l11 -10c-3.33301 -4 -6 -8.33301 -8 -13l1 -246l98 77
c70.667 -9.33301 123.5 -33.666 158.5 -72.999s52.5 -95.666 52.5 -168.999v-11c0 -22 -5.83301 -43.5 -17.5 -64.5s-23.5 -39.833 -35.5 -56.5c-5.33301 -6.66699 -11.833 -14.334 -19.5 -23.001s-13.834 -15.334 -18.501 -20.001l-15 -14.5
c-6 -5.66699 -9.33301 -8.83398 -10 -9.50098c-18.667 -18.667 -53 -56 -103 -112c-54 26.667 -159 62.667 -315 108l-2 8c34 27.333 51 68 51 122v142h-14c-49.333 0 -81.333 -15 -96 -45l-12 3c4.66699 50 17.834 87.167 39.501 111.5s47.834 36.5 78.501 36.5h6v8
c2.66699 20 9.5 36.833 20.5 50.5s27.167 29.167 48.5 46.5l85 65v40c-15.333 -20 -31.833 -36.5 -49.5 -49.5s-38.834 -19.5 -63.501 -19.5c-4 0 -11.667 1.66699 -23 5s-23.666 7.16602 -36.999 11.499l-38 12c-12 3.66699 -20.333 5.5 -25 5.5zM333.999 134
c64.667 -18.667 112.667 -37.332 144 -55.999c27.333 25.333 41 67.666 41 126.999v56v10.5c0 3.66699 -0.333008 7.16699 -1 10.5l-187 -83v-64c0.666992 -0.666992 1.66699 -1 3 -1zM311.999 426.002l-41 -32.002v-74c0 -32 -4.66699 -58.333 -14 -79
c-9.33301 -20 -29 -43 -59 -69v-2c8 -1.33301 22.5 -4.66602 43.5 -9.99902s44.5 -11.666 70.5 -18.999v285zM346.999 452l-16.001 -11v-128l163 71c-12 20 -29.667 35.667 -53 47s-54.666 18.333 -93.999 21zM500.998 368l-170 -74v-76l186 83
c-2 26.667 -7.33301 49 -16 67zM280.998 588c-4.66699 -10 -7.5 -23.167 -8.5 -39.5s-1.5 -35.5 -1.5 -57.5v-73l21 15.5l20 14.5l-1 173c-14.667 -8.66699 -24.667 -19.667 -30 -33z" />
    <glyph glyph-name="afii10045" unicode="&#x42b;" horiz-adv-x="916" 
d="M640 288c0 -22 -5.83496 -43.499 -17.502 -64.499s-23.5 -39.833 -35.5 -56.5c-5.33301 -6.66699 -11.833 -14.334 -19.5 -23.001s-13.834 -15.334 -18.501 -20.001l-15 -14.5c-6 -5.66699 -9.33301 -8.83398 -10 -9.50098c-18.667 -18.667 -53 -56 -103 -112
c-54 26.667 -159 62.667 -315 108l-2 8c34 27.333 51 68 51 122v142h-14c-49.333 0 -81.333 -15 -96 -45l-12 3c4.66699 50 17.834 87.167 39.501 111.5s47.834 36.5 78.501 36.5h4v127c-46.667 30.667 -76 46 -88 46c-9.33301 0 -16.5 -2.33301 -21.5 -7
s-11.5 -9.66699 -19.5 -15l-12 14l125 106l132 -95v-211l21 16.5c8.66699 7 15.334 12.167 20.001 15.5l-1 268v2l20 -2v-254l98 77c70.667 -9.33301 123.5 -33.666 158.5 -72.999s52.5 -95.666 52.5 -168.999v-32zM709.998 606.001c-46.667 30.667 -76 46.001 -88 46.001
c-9.33301 0 -16.5 -2.33301 -21.5 -7s-11.5 -9.66699 -19.5 -15l-12 14l125 106l132 -95v-505l82 -50l-49.5 -51.5l-44.5 -49.5l-56.5 54c-16.333 15.333 -31.833 28.666 -46.5 39.999l-1 511v2zM333.998 134.002c64.667 -18.667 112.667 -37.332 144 -55.999
c27.333 25.333 41 67.666 41 126.999v77v18l-188 -83v-82c0.666992 -0.666992 1.66699 -1 3 -1zM311.998 447.004l-41 -32.002v-95c0 -32 -4.66699 -58.333 -14 -79c-9.33301 -20 -29 -43 -59 -69v-2c8 -1.33301 22.5 -4.66602 43.5 -9.99902s44.5 -11.666 70.5 -18.999v306
zM346.998 473.002l-16 -11v-131l164 72c-12 20 -29.667 36 -53 48s-55 19.333 -95 22zM502.998 387.002l-172 -75v-76l186 83c-1.33301 12.667 -3 24.667 -5 36s-5 22 -9 32z" />
    <glyph glyph-name="afii10046" unicode="&#x42c;" horiz-adv-x="670" 
d="M640 288c0 -22 -5.83496 -43.499 -17.502 -64.499s-23.5 -39.833 -35.5 -56.5c-5.33301 -6.66699 -11.833 -14.334 -19.5 -23.001s-13.834 -15.334 -18.501 -20.001l-15 -14.5c-6 -5.66699 -9.33301 -8.83398 -10 -9.50098c-18.667 -18.667 -53 -56 -103 -112
c-54 26.667 -159 62.667 -315 108l-2 8c34 27.333 51 68 51 122v142h-14c-49.333 0 -81.333 -15 -96 -45l-12 3c4.66699 50 17.834 87.167 39.501 111.5s47.834 36.5 78.501 36.5h4v138c-46.667 30.667 -76 46 -88 46c-9.33301 0 -16.5 -2.33301 -21.5 -7
s-11.5 -9.66699 -19.5 -15l-12 14l125 106l132 -95v-221l21 16.5c8.66699 7 15.334 12.167 20.001 15.5v204l-1 63v2l21 -2l-1 -56v-197l98 77c70.667 -9.33301 123.5 -33.666 158.5 -72.999s52.5 -95.666 52.5 -168.999v-33zM333.998 134.001
c64.667 -18.667 112.667 -37.332 144 -55.999c27.333 25.333 41 67.666 41 126.999v78v17l-188 -83v-82c0.666992 -0.666992 1.66699 -1 3 -1zM311.998 448.003l-41 -32.002v-96c0 -32 -4.66699 -58.333 -14 -79c-9.33301 -20 -29 -43 -59 -69v-2
c8 -1.33301 22.5 -4.66602 43.5 -9.99902s44.5 -11.666 70.5 -18.999v307zM346.998 474.001l-16 -11v-132l164 72c-11.333 20.667 -28.833 37 -52.5 49s-55.5 19.333 -95.5 22zM502.998 387.001l-172 -75v-76l186 83c-1.33301 12.667 -3 24.667 -5 36s-5 22 -9 32z" />
    <glyph glyph-name="afii10047" unicode="&#x42d;" horiz-adv-x="587" 
d="M49 370c-5.33301 1.33301 -9.49805 1.00195 -12.498 -0.998047s-5.5 -5 -7.5 -9s-3.5 -8.83301 -4.5 -14.5s-1.5 -10.834 -1.5 -15.501h-1l-19 18c7.33301 25.333 28.666 52.333 63.999 81c11.333 9.33301 21 14 29 14s15.667 -2.66699 23 -8
c2.66699 -0.666992 7.66699 -3 15 -7s15 -8.5 23 -13.5l21 -13.5c6 -4 8.66699 -6 8 -6c5.33301 -2.66699 10.333 -4 15 -4s11 2.66699 19 8v129l62 44.5l55 41.5l-1 1c-13.333 3.33301 -28.166 4.83301 -44.499 4.5s-33 -1.33301 -50 -3s-33.333 -3.5 -49 -5.5
s-29.167 -3 -40.5 -3c-33.333 0 -62.5 10.667 -87.5 32s-46.167 58.666 -63.5 111.999l10 13c7.33301 -12 15.333 -21 24 -27s18.167 -10.333 28.5 -13s21.5 -4 33.5 -4h39c6 0 15 0.833008 27 2.5s25.5 3.66699 40.5 6s30.5 4.33301 46.5 6s31.333 2.5 46 2.5
c163.333 0 245 -84.333 245 -253v-222c0 -32 -5.33301 -60.667 -16 -86s-28.667 -49.333 -54 -72c-12.667 -11.333 -25.167 -21.833 -37.5 -31.5s-25.166 -18.834 -38.499 -27.501s-28.833 -18 -46.5 -28l-60.5 -34c-28 14.667 -55.333 28 -82 40s-51.334 20.333 -74.001 25
s-43 3.83398 -61 -2.49902s-33 -20.5 -45 -42.5l-21 8c11.333 28 26.666 52.667 45.999 74c34 38 72.667 57 116 57c4.66699 0 9.16699 -0.166992 13.5 -0.5s8.83301 -0.833008 13.5 -1.5c10.667 10 17.667 21.5 21 34.5s5 30.833 5 53.5v143
c-14.667 -16 -29.834 -29 -45.501 -39s-32.834 -12.667 -51.501 -8c-3.33301 0 -8.16602 2.16699 -14.499 6.5l-21 14.5l-22 15c-7 4.66699 -12.5 7.66699 -16.5 9zM393.002 73.002c22 16.667 33.001 61.999 33.001 135.999v149l-100 -45l1 -106l-55 -35.5l-53 -34.5
c25.333 -5.33301 52.166 -13.666 80.499 -24.999zM426.003 468.001c-1.33301 36 -7 65.168 -17 87.501s-26.333 39.166 -49 50.499c-14 -11.333 -23.167 -23.833 -27.5 -37.5s-6.5 -33.167 -6.5 -58.5v-88l100 46v0zM326.003 329.002l100 46v76l-100 -45v-77z" />
    <glyph glyph-name="afii10048" unicode="&#x42e;" horiz-adv-x="1164" 
d="M717 722c-19.333 -8 -36.6729 -19.3291 -52.0059 -33.9961s-29.333 -31.667 -42 -51c-19.333 -30 -34.5 -64.5 -45.5 -103.5s-18.167 -78.667 -21.5 -119s-2.83301 -79.833 1.5 -118.5s12.5 -73 24.5 -103c3.33301 -10 6.66602 -18.333 9.99902 -25
c14.667 12 26 26.667 34 44s12 38.666 12 63.999v299c46 32 86.167 61.833 120.5 89.5s63.833 54.167 88.5 79.5c41.333 -8.66699 79.666 -23.167 114.999 -43.5s66 -46.333 92 -78s46.333 -69.334 61 -113.001s22 -93.5 22 -149.5c0 -49.333 -9.5 -96.333 -28.5 -141
s-44.167 -84 -75.5 -118s-67.666 -61.333 -108.999 -82s-84.333 -32 -129 -34c-62 0.666992 -116.167 11.667 -162.5 33s-84.833 49.333 -115.5 84s-53.5 74.167 -68.5 118.5s-22.167 90.166 -21.5 137.499h-33v-247c9.33301 -2 13.5 -3.33301 12.5 -4s-2.16699 -1 -3.5 -1
c10.667 0.666992 23.334 10.334 38.001 29.001l16 -11c-64.667 -83.333 -97.334 -126 -98.001 -128l-42 16.5c-13.333 5 -27.166 9 -41.499 12s-29.666 5.33301 -45.999 7s-34.833 2.5 -55.5 2.5c-22 0 -40.333 -2.66699 -55 -8c-13.333 -5.33301 -29.333 -15.333 -48 -30
l-14 16l85 77c50.667 46.667 76 90.667 76 132v123h-13c-49.333 0 -81.333 -15 -96 -45l-15 4c2 52.667 14.167 90.334 36.5 113.001s50.5 34 84.5 34h3v43c0 24 2.66699 43.667 8 59s15 30.666 29 45.999c4.66699 5.33301 12.334 11.833 23.001 19.5s21.667 14.167 33 19.5
c-16 -5.33301 -33.333 -7.5 -52 -6.5s-37.667 2.83301 -57 5.5l-56.5 8c-18.333 2.66699 -35.166 2.66699 -50.499 0s-28.5 -8.83398 -39.5 -18.501s-18.5 -25.167 -22.5 -46.5l-21 -3c17.333 53.333 38.5 94 63.5 122s54.167 42 87.5 42c9.33301 0 22.5 -1 39.5 -3
s34.833 -4.33301 53.5 -7s36.334 -5.5 53.001 -8.5s29.334 -5.16699 38.001 -6.5c10 0 19.333 2.33301 28 7v32l19 1v-309h43c9.33301 40 24.333 78 45 114s47.334 68 80.001 96c20 17.333 42.5 32.666 67.5 45.999s50.833 24 77.5 32zM803.993 8.00391
c28.667 -2 55.834 3.49902 81.501 16.499s48.167 32.833 67.5 59.5s34.666 59.334 45.999 98.001s17 82.667 17 132v16.5c0 5.66699 -0.333008 11.167 -1 16.5l-211 -96v-243zM785.993 10.0029v649l-41 -35v-370l-74 -49l-73 -50c19.333 -38 44.5 -70.333 75.5 -97
s68.5 -42.667 112.5 -48zM803.993 656.003v-296l192 88c-15.333 48 -38.833 90.667 -70.5 128s-72.167 64 -121.5 80zM333.993 548.003v-255c0.666992 -61.333 -39.333 -117.333 -120 -168l3 -4c25.333 7.33301 43 11 53 11c13.333 0 48.333 -5.66699 105 -17v587
c-17.333 -17.333 -28.5 -38 -33.5 -62s-7.5 -54.667 -7.5 -92zM999.993 433.003l-196 -89v-77l209 95c-1.33301 12 -3 24 -5 36s-4.66699 23.667 -8 35z" />
    <glyph glyph-name="afii10049" unicode="&#x42f;" horiz-adv-x="592" 
d="M314 -5v357.999c-7.33301 -2 -13.333 -3.83301 -18 -5.5s-8.66699 -3.5 -12 -5.5s-6.5 -4 -9.5 -6s-6.5 -4 -10.5 -6c-19.333 -10.667 -31.833 -25.334 -37.5 -44.001s-8.5 -39.667 -8.5 -63c0 -12.667 0.333008 -24.667 1 -36s1 -22.666 1 -33.999
c0.666992 -17.333 0.333984 -33.5 -0.999023 -48.5s-5.16602 -29.167 -11.499 -42.5s-16 -25.666 -29 -36.999s-30.5 -22 -52.5 -32c-12.667 -5.33301 -27.334 -10.5 -44.001 -15.5l-54 -15.5l-12 22c26 6.66699 43.333 18.167 52 34.5s13.667 34.5 15 54.5
c0.666992 18 0.166992 38 -1.5 60s-2.16699 43.833 -1.5 65.5s3.83398 41.834 9.50098 60.501s16.167 34 31.5 46c12 9.33301 24.667 16.666 38 21.999s31.666 10.666 54.999 15.999c-35.333 1.33301 -64.5 7 -87.5 17s-41.333 22 -55 36s-23.334 28.833 -29.001 44.5
s-8.83398 29.5 -9.50098 41.5c-2.66699 36 0.666016 66 9.99902 90s22.833 44.167 40.5 60.5s38.334 30.5 62.001 42.5l74.5 36c16 8 31.333 16.333 46 25l48 28l37.5 -18.5c11 -5.66699 24.5 -11.667 40.5 -18s36.167 -13.333 60.5 -21s56.5 -17.167 96.5 -28.5l2 -8
c-35.333 -28.667 -53 -70 -53 -124v-404l86 -51c-18 -17.333 -35 -34.666 -51 -51.999l-46 -50c-22 21.333 -41.667 39.666 -59 54.999s-33.666 28.666 -48.999 39.999v366c0 32.667 4.66699 59.334 14 80.001c8.66699 20 29 43.333 61 70v3
c-8 0.666992 -23.5 3.83398 -46.5 9.50098s-47.167 13.167 -72.5 22.5v-640h-21zM161 519.999c0.666992 -17.333 3.50098 -34.999 8.50098 -52.999s13 -34.333 24 -49s25 -26.834 42 -36.501s38.167 -14.5 63.5 -14.5l15 8v267c-19.333 7.33301 -37.333 14.833 -54 22.5
s-29.334 15.167 -38.001 22.5c-24 -18 -40.5 -42.333 -49.5 -73s-12.833 -62 -11.5 -94z" />
    <glyph glyph-name="afii10065" unicode="&#x430;" horiz-adv-x="368" 
d="M364 74l-76.0029 -74.002l-41 31l-52 37l-79 -68c-16.667 13.333 -34 26.5 -52 39.5l-56 39.5v4c11.333 7.33301 17 24 17 50v113l48.5 25c15 8 28.5 15.667 40.5 23c-22 8 -40 21.333 -54 40s-21 41 -21 67c-1.33301 14 0 27.5 4 40.5s7.66699 23.5 11 31.5
c0.666992 2 2.16699 4.83301 4.5 8.5s4.83301 7.33398 7.5 11.001l7 9.5c2 2.66699 3.33301 4.66699 4 6c0.666992 2 5.33398 7.66699 14.001 17l9 10.5c2 2.33301 3.33301 3.83301 4 4.5c8 10 15 19.167 21 27.5l16 22.5l127.5 -55c31 -13.333 50.833 -21.666 59.5 -24.999
v-4c-11.333 -9.33301 -17 -25 -17 -47v-359c2.66699 -2.66699 6.33398 -5.5 11.001 -8.5s9.5 -5.83301 14.5 -8.5s9.83301 -4.66699 14.5 -6s8.33398 -1.33301 11.001 0zM207.997 454.998c-42.667 25.333 -70.001 38.001 -82.001 38.001
c-7.33301 0 -14.666 -1.5 -21.999 -4.5s-14 -8.16699 -20 -15.5s-11 -16.833 -15 -28.5s-6 -26.167 -6 -43.5c0 -13.333 2.83301 -25.833 8.5 -37.5s13.5 -21.834 23.5 -30.501s21.833 -15.5 35.5 -20.5s28.5 -7.5 44.5 -7.5c8.66699 0 19.667 2.33301 33 7v143z
M207.996 105.999v183c-12 -4.66699 -23.333 -7 -34 -7c-12 0 -27 2.66699 -45 8c-4.66699 -8.66699 -7 -22.667 -7 -42v-141l9 -6l13 -9l14 -10c4.66699 -3.33301 9 -6 13 -8z" />
    <glyph glyph-name="afii10066" unicode="&#x431;" 
d="M236 71v397l-26 17c-12 8 -27.667 17.667 -47 29l-13 -11v-380c16.667 -12 44.667 -30 84 -54zM353 756c-0.666992 -25.333 -3.8291 -49.668 -9.49609 -73.001s-15.167 -47 -28.5 -71c-33.333 5.33301 -63.833 14 -91.5 26s-52.167 26.667 -73.5 44v-157l18 15.5
c6.66699 5.66699 13.667 12.167 21 19.5l19 18.5c5.33301 5 9.66602 8.83301 12.999 11.5l72 -46.5l63 -38.5v-4c-11.333 -7.33301 -17 -24.333 -17 -51v-339c-26.667 -15.333 -54.334 -32.166 -83.001 -50.499s-58.334 -38.5 -89.001 -60.5l-58 38l-55 34
c-4 2.66699 -8 5 -12 7s-8 4.33301 -12 7v5c11.333 7.33301 17 19.333 17 36v482c0 16.667 -5.66699 28.667 -17 36v5c30.667 16 61.667 31 93 45s63.666 33 96.999 57c35.333 -25.333 69 -41.666 101 -48.999c1.33301 3.33301 3 10.666 5 21.999s3 24 3 38z" />
    <glyph glyph-name="afii10067" unicode="&#x432;" 
d="M347 83c-26.667 -10 -54.5 -22.3359 -83.5 -37.0029s-57.833 -31.667 -86.5 -51c-9.33301 6.66699 -20.333 13.834 -33 21.501s-26 14.834 -40 21.501s-27.5 12.334 -40.5 17.001s-24.167 7.33398 -33.5 8.00098v4c11.333 5.33301 17 18.333 17 39v374
c30.667 17.333 60 35.333 88 54l84 57c30 -19.333 56.5 -37.333 79.5 -54s42.167 -29.334 57.5 -38.001l1 -4c-15.333 -12.667 -32.5 -28.667 -51.5 -48l-58.5 -61l117 -51v-4c-11.333 -8 -17 -20.667 -17 -38v-210zM150 281.997v-168.001l21 -7.5
c6.66699 -2.33301 13.5 -5.16602 20.5 -8.49902s14.667 -7.5 23 -12.5s17.833 -11.833 28.5 -20.5l2 1v235l-52 27l-21.5 -23.5zM263 438.996c-17.333 18 -36 33.668 -56 47.001s-38 24.666 -54 33.999l-3 -1v-203z" />
    <glyph glyph-name="afii10068" unicode="&#x433;" horiz-adv-x="319" 
d="M341 548c-10 -28.667 -24.9971 -56.499 -44.9971 -83.499s-43 -49.833 -69 -68.5l-14 17c14 8.66699 26.667 18.667 38 30c-18 9.33301 -36.833 20.666 -56.5 33.999s-37.167 28.333 -52.5 45l-4 -2v-421c22.667 -14.667 39.667 -22 51 -22l2 -3l-78 -74l-46.5 34
c-15.667 11.333 -31.834 22.333 -48.501 33v4c12 8 17.667 23.667 17 47v361l40 25.5l45 27c15.333 9 30.666 18.5 45.999 28.5s29.666 20 42.999 30c21.333 -20 40.5 -35.5 57.5 -46.5s31.167 -18.167 42.5 -21.5c2.66699 5.33301 5 11 7 17s4 11.667 6 17z" />
    <glyph glyph-name="afii10069" unicode="&#x434;" 
d="M356 493c-11.333 -9.33301 -16.998 -27.668 -16.998 -55.001v-327c-64 -36 -121 -73 -171 -111c-19.333 13.333 -40.5 26.833 -63.5 40.5l-74.5 42.5v4c11.333 6 17 17.667 17 35v370c35.333 19.333 71.666 41.333 108.999 66l-36 39c-26 29.333 -42.333 49 -49 59
c-6 10.667 -9 26.334 -9 47.001c0 24 10.667 56.333 32 97l11 -4c-2 -7.33301 -2.5 -14.5 -1.5 -21.5s3.5 -14.5 7.5 -22.5s10.167 -16.833 18.5 -26.5s19.166 -21.167 32.499 -34.5c105.333 -110 170 -174.667 194 -194v-4zM236.002 72.998v400l-64 68l-22 -14v-405
l41 -25.5l43 -24.5z" />
    <glyph glyph-name="afii10070" unicode="&#x435;" horiz-adv-x="330" 
d="M330 397c-5.33301 -4 -11.833 -8.49707 -19.5 -13.4971s-16.167 -10.167 -25.5 -15.5s-20.5 -11.333 -33.5 -18s-27.167 -14.334 -42.5 -23.001s-28 -15.5 -38 -20.5l-21 -10.5v-153c50.667 -32.667 85.334 -49 104.001 -49c6.66699 0 13.667 3.66699 21 11l9 9l15 -16
l-53 -52.5l-43 -45.5l-88 52.5c-28.667 16.333 -57 31.166 -85 44.499v4c11.333 9.33301 17 25.666 17 48.999v360c62 16.667 122 43.667 180 81c16.667 -36.667 33.667 -71 51 -103s34.666 -62.333 51.999 -91zM241 370.003c-21.333 34.667 -39.168 64.833 -53.501 90.5
s-25.166 47.167 -32.499 64.5l-5 -1v-202c23.333 11.333 42.5 21 57.5 29s26.167 14.333 33.5 19z" />
    <glyph glyph-name="afii10072" unicode="&#x436;" horiz-adv-x="622" 
d="M473 337c53.333 -25.333 80.002 -56.6699 80.002 -94.0029v-156c20 -16.667 37 -24.334 51 -23.001l2 -2l-77 -75c-17.333 13.333 -32.666 24.666 -45.999 33.999s-24.333 16.666 -33 21.999v167c0 19.333 -4.83301 36 -14.5 50s-23.167 24.667 -40.5 32l-25 -5v-193
c4.66699 -4 10.667 -8.5 18 -13.5s12.666 -8.83301 15.999 -11.5v-1c-13.333 -11.333 -26 -22.666 -38 -33.999l-35 -34l-81 62v4c11.333 9.33301 17 26.333 17 51v174c-12 -1.33301 -23 -2.16602 -33 -2.49902s-17.333 -1.5 -22 -3.5
c-15.333 -7.33301 -24.5 -19.166 -27.5 -35.499s-4.83301 -33.5 -5.5 -51.5c0 -6.66699 -0.166992 -14.334 -0.5 -23.001s-0.5 -17.5 -0.5 -26.5v-25.5v-20c-0.666992 -21.333 -5.66699 -39.833 -15 -55.5s-29 -28.5 -59 -38.5c-10.667 -2.66699 -22.667 -5 -36 -7l-41 -6
l-11 16c17.333 5.33301 30 10.833 38 16.5s13 13.834 15 24.501v151c2 14.667 5.83301 26.834 11.5 36.501s12.5 17.334 20.5 23.001s17 9.83398 27 12.501s20 4.66699 30 6c-26 12.667 -46.333 26.5 -61 41.5s-22 31.833 -22 50.5v118c-20 16.667 -37 24.334 -51 23.001
l-2 2l77 75c17.333 -13.333 32.666 -24.666 45.999 -33.999s24.333 -16.666 33 -21.999v-140c0 -40.667 17.667 -68.667 53 -84c3.33301 -1.33301 8.16602 -1.66602 14.499 -0.999023s13.5 1 21.5 1v178c-9.33301 7.33301 -16 12.833 -20 16.5s-9.66699 5.83398 -17 6.50098
l-2 2l43 40.5c12.667 12.333 23.667 23.833 33 34.5c14 -11.333 25.333 -22.5 34 -33.5s19 -22.167 31 -33.5h1v-213c15.333 1.33301 27.833 4.16602 37.5 8.49902s17.5 9.66602 23.5 15.999s10.5 13.5 13.5 21.5s5.5 16 7.5 24c2 10.667 2.5 22 1.5 34s-2.16699 24 -3.5 36
s-2.33301 24 -3 36s0.666016 23.667 3.99902 35s12.666 22.166 27.999 32.499s34 18.5 56 24.5c6.66699 2 14.334 3.66699 23.001 5s16.667 2.66602 24 3.99902l7 -13c-12.667 -3.33301 -23.167 -7.5 -31.5 -12.5s-13.166 -12.167 -14.499 -21.5
c-1.33301 -11.333 -0.833008 -24.833 1.5 -40.5s4.83301 -35.834 7.5 -60.501c1.33301 -13.333 0 -25 -4 -35s-9.83301 -18.833 -17.5 -26.5s-16.5 -14.667 -26.5 -21z" />
    <glyph glyph-name="afii10073" unicode="&#x437;" horiz-adv-x="329" 
d="M203 369c17.333 -12.667 32.3311 -28.999 44.998 -48.999c9.33301 7.33301 20.333 14.666 33 21.999l30 17l12 -18c-9.33301 -5.33301 -19.666 -11.666 -30.999 -18.999s-22 -15 -32 -23c8 -16 14.5 -32.667 19.5 -50s9 -34.5 12 -51.5s5.16699 -33 6.5 -48
s2 -28.5 2 -40.5c0 -25.333 -3.83301 -53.333 -11.5 -84s-18.667 -59.667 -33 -87s-31.5 -51 -51.5 -71s-42.333 -31.333 -67 -34c-10 -1.33301 -21 2 -33 10s-23.167 19.667 -33.5 35s-18.833 33.666 -25.5 54.999s-10 44.666 -10 69.999
c0 14.667 1.83301 30.334 5.5 47.001s10.334 34.667 20.001 54s22.834 40.333 39.501 63s38 48 64 76c-5.33301 8 -10.833 15.667 -16.5 23s-12.167 14 -19.5 20l-44 -44l-19 14c18.667 15.333 37 33.333 55 54s34.333 41 49 61s27 38.167 37 54.5s16.667 27.833 20 34.5
c-9.33301 1.33301 -21.333 4 -36 8s-29.667 7.66699 -45 11c-12 2.66699 -24 4.33398 -36 5.00098s-22.667 -0.166016 -32 -2.49902s-16.833 -6.83301 -22.5 -13.5s-8.5 -16 -8.5 -28c0 -22.667 12.333 -39.334 37 -50.001v-1
c-5.33301 -2.66699 -10.666 -5.16699 -15.999 -7.5s-11 -4.16602 -17 -5.49902c-19.333 16 -29 37.667 -29 65c-1.33301 12 0.5 24.667 5.5 38s11.167 26.666 18.5 39.999s14.666 26 21.999 38s12.666 22 15.999 30c12 2.66699 26 3 42 1s32.167 -4.66699 48.5 -8l48 -10
c15.667 -3.33301 29.167 -5 40.5 -5c7.33301 0 13 0.666992 17 2s7.16699 3.33301 9.5 6s4.16602 5.5 5.49902 8.5s3.33301 6.5 6 10.5c0.666992 -0.666992 3.83398 -2.66699 9.50098 -6s8.83398 -6 9.50098 -8c-11.333 -31.333 -26.333 -63.833 -45 -97.5
s-42.334 -70.834 -71.001 -111.501zM108.998 82.001c0 -30 3.66699 -56.167 11 -78.5s16 -40.666 26 -54.999s20.167 -25 30.5 -32s18.5 -10.5 24.5 -10.5c8 0 16.167 8.5 24.5 25.5s12.5 36.833 12.5 59.5c0 9.33301 -1 23 -3 41s-5.33301 37.667 -10 59
s-11 43.666 -19 66.999s-17.667 45.333 -29 66c-18 -19.333 -33.833 -41.333 -47.5 -66s-20.5 -50 -20.5 -76z" />
    <glyph glyph-name="afii10074" unicode="&#x438;" horiz-adv-x="405" 
d="M401 74l-43.0029 -40.5c-12.667 -12.333 -23.667 -23.833 -33 -34.5l-45.5 34.5l-45.5 32.5h-1l-79 -67l-65.5 44.5l-48.5 31.5v4c11.333 8 17 21.333 17 40v371c-21.333 16.667 -38.333 24.334 -51 23.001l-2 2l78 75l49.5 -37
c15.667 -11.333 30.834 -21.666 45.501 -30.999v-4c-11.333 -5.33301 -17 -21.333 -17 -48v-360c26 -22 41.667 -34.667 47 -38l39 34v389c-4.66699 4 -10.667 8.5 -18 13.5s-12.666 8.83301 -15.999 11.5v1l42.5 38c12.333 11.333 22.833 21.666 31.5 30.999l43 -34.5
l37 -28.5v-4c-11.333 -7.33301 -17 -24.333 -17 -51v-373c18.667 -14.667 35.334 -22.334 50.001 -23.001z" />
    <glyph glyph-name="afii10075" unicode="&#x439;" horiz-adv-x="405" 
d="M401 74l-43.0029 -40.5c-12.667 -12.333 -23.667 -23.833 -33 -34.5l-45.5 34.5l-45.5 32.5h-1l-79 -67l-65.5 44.5l-48.5 31.5v4c11.333 8 17 21.333 17 40v371c-21.333 16.667 -38.333 24.334 -51 23.001l-2 2l78 75l49.5 -37
c15.667 -11.333 30.834 -21.666 45.501 -30.999v-4c-11.333 -5.33301 -17 -21.333 -17 -48v-360c26 -22 41.667 -34.667 47 -38l39 34v389c-4.66699 4 -10.667 8.5 -18 13.5s-12.666 8.83301 -15.999 11.5v1l42.5 38c12.333 11.333 22.833 21.666 31.5 30.999l43 -34.5
l37 -28.5v-4c-11.333 -7.33301 -17 -24.333 -17 -51v-373c18.667 -14.667 35.334 -22.334 50.001 -23.001zM323.997 769c2 0 4.00098 -0.332031 6.00098 -0.999023c2.66699 -1.33301 5.66699 -3.33301 9 -6c-19.333 -39.333 -40.166 -67 -62.499 -83
s-44.5 -25.333 -66.5 -28s-42.5 -0.833984 -61.5 5.49902s-34.5 12.5 -46.5 18.5l-22 -36l-15 11l27 52c10 19.333 20.667 41.333 32 66c7.33301 -8.66699 20.166 -16.834 38.499 -24.501s37.833 -12.667 58.5 -15s40.667 -0.666016 60 5.00098s33.666 17.5 42.999 35.5z
" />
    <glyph glyph-name="afii10076" unicode="&#x43a;" horiz-adv-x="408" 
d="M263 334c26 -12.667 47.1709 -25.999 63.5039 -39.999s24.5 -30.333 24.5 -49v-146c20 -16.667 37 -24.334 51 -23.001l2 -2l-77 -75c-17.333 13.333 -32.666 24.666 -45.999 33.999s-24.333 16.666 -33 21.999v156c0 39.333 -17.667 66.666 -53 81.999l-33 -22v-177
c4.66699 -4 10.667 -8.5 18 -13.5s12.666 -8.83301 15.999 -11.5v-1c-36 -32 -60.667 -54.667 -74 -68c-5.33301 4.66699 -14.666 11.834 -27.999 21.501l-52 37.5v4c11.333 8 17 25 17 51v376c-18 14.667 -34 22.334 -48 23.001l-2 2l43 40.5
c12.667 12.333 23.667 23.833 33 34.5c14 -11.333 27.167 -22.5 39.5 -33.5l36.5 -33.5h1v-223c25.333 12 43.666 24 54.999 36s19 26.667 23 44c2.66699 10.667 3.66699 22.5 3 35.5s-1.83398 26 -3.50098 39s-2.66699 26 -3 39s1.5 25.167 5.5 36.5
c2.66699 8 8.83398 15.333 18.501 22s20.667 12.834 33 18.501s25.166 10.5 38.499 14.5s25.666 7 36.999 9l9 -13c-15.333 -3.33301 -25.833 -7.5 -31.5 -12.5s-9.16699 -12.167 -10.5 -21.5c-2 -10.667 -1.5 -25.334 1.5 -44.001s5.83301 -40 8.5 -64
c2.66699 -11.333 1.66699 -22.333 -3 -33s-11.334 -20.667 -20.001 -30s-18.334 -17.666 -29.001 -24.999s-21 -13 -31 -17z" />
    <glyph glyph-name="afii10077" unicode="&#x43b;" horiz-adv-x="380" 
d="M16 430c5.33301 8 14.502 18.335 27.502 31.002l43.5 42.5l49.5 48c17 16.333 32.167 32.166 45.5 47.499l33 -19.5c13.333 -7.66699 27.666 -15.5 42.999 -23.5s31.333 -15.5 48 -22.5s32.667 -12.5 48 -16.5v-4c-11.333 -6 -17 -23 -17 -51v-370
c5.33301 -4.66699 10.833 -9.16699 16.5 -13.5s11.5 -8.16602 17.5 -11.499v-1l-34.5 -31.5l-38.5 -37.5c-38 30.667 -65 51.667 -81 63v4c11.333 8 17 25 17 51v360c-8.66699 1.33301 -17.334 3.83301 -26.001 7.5s-17.167 7.83398 -25.5 12.501s-16 9.33398 -23 14.001
s-13.167 9 -18.5 13c-8 -6 -13 -15.5 -15 -28.5s-2.33301 -28.333 -1 -46s3.66602 -37 6.99902 -58l10 -65.5c4.66699 -36.667 9.66699 -70.834 15 -102.501s5.66602 -61.5 0.999023 -89.5s-16.167 -54.5 -34.5 -79.5s-48.5 -48.833 -90.5 -71.5l-12 11
c16.667 7.33301 28.334 21.166 35.001 41.499s9.83398 44.166 9.50098 71.499s-3 56.666 -8 87.999s-10.333 62 -16 92l-16.5 83.5c-5.33301 25.667 -8.33301 46.167 -9 61.5z" />
    <glyph glyph-name="afii10078" unicode="&#x43c;" horiz-adv-x="597" 
d="M183 600c8 -4.66699 18.8281 -10.498 32.4951 -17.498l41.5 -21l40 -19.5c12.667 -6 22 -11 28 -15c22 14.667 37.833 27.834 47.5 39.501s18.834 20.834 27.501 27.501l32 -19.5c12.667 -7.66699 26.334 -15.5 41.001 -23.5s30 -15.5 46 -22.5s31.667 -12.5 47 -16.5v-4
c-11.333 -6 -17 -23 -17 -51v-370c5.33301 -4.66699 10.833 -9.16699 16.5 -13.5s11.5 -8.16602 17.5 -11.499v-1l-34.5 -31.5l-38.5 -37.5c-38 30.667 -65 51.667 -81 63v4c11.333 8 17 25 17 51v360c-8.66699 1.33301 -17.5 3.83301 -26.5 7.5s-17.667 8 -26 13
s-16.166 10 -23.499 15s-13.666 9.5 -18.999 13.5l-7 -6v-418c12.667 -10.667 24 -19 34 -25v-1l-41.5 -37.5l-32.5 -31.5l-43 34.5l-37 28.5v5c11.333 7.33301 17 23 17 47v356c-11.333 7.33301 -26.333 15.666 -45 24.999l-53 27c-8 -6 -13.167 -15.667 -15.5 -29
s-2.83301 -28.833 -1.5 -46.5s3.5 -37 6.5 -58l9.5 -65.5c4.66699 -36.667 9.66699 -70.834 15 -102.501s5.66602 -61.5 0.999023 -89.5s-16.167 -54.5 -34.5 -79.5s-48.5 -48.833 -90.5 -71.5l-12 11c16.667 7.33301 28.334 21.166 35.001 41.499
s9.83398 44.166 9.50098 71.499s-3 56.666 -8 87.999s-10.333 62 -16 92l-16.5 83.5c-5.33301 25.667 -8.33301 46.167 -9 61.5c5.33301 8 14.5 18.5 27.5 31.5l44 42.5l50 48c17 16.667 32.167 32.667 45.5 48z" />
    <glyph glyph-name="afii10079" unicode="&#x43d;" horiz-adv-x="412" 
d="M203 370l46.002 -44.002v163l-13 8c-12.667 8.66699 -25.667 13 -39 13l-1 4l78 75l45.5 -34c15.667 -11.333 32.167 -22.666 49.5 -33.999v-4c-11.333 -7.33301 -17 -22 -17 -44v-375c22.667 -14.667 39.667 -22 51 -22l2 -3l-78 -74l-46.5 34
c-15.667 11.333 -31.834 22.333 -48.501 33v4c11.333 7.33301 17 23 17 47v175c-6.66699 -6 -13.667 -12.667 -21 -20l-24 -24l-45 43v-197c4.66699 -4 10.667 -8.5 18 -13.5s12.666 -8.83301 15.999 -11.5v-1c-13.333 -11.333 -26 -22.666 -38 -33.999l-35 -34l-81 62v4
c11.333 9.33301 17 26.333 17 51v373c-18 14 -34.667 21.667 -50 23l-2 2l43 40.5c12.667 12.333 23.667 23.833 33 34.5l40.5 -33.5c13 -11 25.5 -22.167 37.5 -33.5h1v-197z" />
    <glyph glyph-name="afii10080" unicode="&#x43e;" 
d="M356 504c-11.333 -9.33301 -16.999 -24.333 -16.999 -45v-348c-60.667 -34 -118 -71 -172 -111l-69 45.5c-22.667 14.333 -45.334 27.833 -68.001 40.5v4c11.333 5.33301 17 18.333 17 39v351c30.667 17.333 60.167 35.333 88.5 54l83.5 57l79.5 -49.5l57.5 -33.5v-4z
M236.001 72v396.001c-11.333 8 -24 16.333 -38 25l-45 27l-3 -1v-396c11.333 -8.66699 24 -17.334 38 -26.001s29.333 -17.667 46 -27z" />
    <glyph glyph-name="afii10081" unicode="&#x43f;" horiz-adv-x="405" 
d="M401 74l-76.999 -75.002l-46 34l-50 34v4c11.333 7.33301 17 23.333 17 48v360c-7.33301 5.33301 -16.333 11.333 -27 18s-18.667 12.334 -24 17.001l-35 -28v-392c4.66699 -4 10.667 -8.5 18 -13.5s12.666 -8.83301 15.999 -11.5v-1
c-13.333 -11.333 -26 -22.666 -38 -33.999l-35 -34l-81 62v4c11.333 9.33301 17 26.333 17 51v373c-18 14 -34.667 21.667 -50 23l-2 2l43 40.5c12.667 12.333 23.667 23.833 33 34.5c26.667 -21.333 57 -43.666 91 -66.999h1l79 67l65.5 -44.5l48.5 -31.5v-4
c-11.333 -8 -17 -21.333 -17 -40v-371c20 -16.667 37 -24.334 51 -23.001z" />
    <glyph glyph-name="afii10082" unicode="&#x440;" horiz-adv-x="395" 
d="M365 511c-11.333 -8 -17.001 -23 -17.001 -45v-372c-35.333 -27.333 -69.666 -58.666 -102.999 -93.999c-32 22 -60.667 35 -86 39v-170c0 -33.333 8 -55 24 -65l-2 -4c-38.667 4.66699 -67.667 30 -87 76h-2c-4 -10 -10.667 -18.833 -20 -26.5s-18.333 -12.5 -27 -14.5
l-3 2c9.33301 13.333 14 32 14 56v597c-24.667 15.333 -41 22.666 -49 21.999l-3 3l76 75l88 -70l36.5 30.5l46.5 39.5c30 -23.333 68 -48.333 114 -75v-4zM244.999 95v384.999c-16 12.667 -32.667 24.334 -50 35.001l-36 -30v-365c32 0 60.667 -8.66699 86 -26v1z" />
    <glyph glyph-name="afii10083" unicode="&#x441;" horiz-adv-x="331" 
d="M329 519l-15.001 -14.998l-24 -25l-22.5 -24l-11.5 -12h-1c-18.667 9.33301 -36.334 20.666 -53.001 33.999s-32.667 28.333 -48 45l-4 -2v-377c48.667 -32 86.667 -48 114 -48c8 0 14.667 2.66699 20 8l9 10l16 -15l-97 -98c-20.667 13.333 -46.167 28 -76.5 44
l-105.5 53v4c11.333 7.33301 17 21 17 41v337c30.667 16.667 60.334 34.167 89.001 52.5s56.334 37.833 83.001 58.5c54.667 -50.667 90.667 -73.334 108 -68.001z" />
    <glyph glyph-name="afii10084" unicode="&#x442;" horiz-adv-x="595" 
d="M591 74l-77.9961 -74l-43 31l-53 36v4c11.333 7.33301 17 23.333 17 48v360c-8 6 -16.5 12 -25.5 18l-27.5 18l-33 -28v-393c4.66699 -4 10.667 -8.5 18 -13.5s12.666 -8.83301 15.999 -11.5v-1l-73 -68l-81 62v5c11.333 7.33301 17 23.666 17 48.999v363
c-3.33301 2.66699 -9.33301 6.83398 -18 12.501l-35 22.5l-33 -27v-393c4.66699 -4 10.667 -8.5 18 -13.5s12.666 -8.83301 15.999 -11.5v-1l-73 -68l-37 29.5l-44 32.5v4c11.333 9.33301 17 25.333 17 48v376c-19.333 14.667 -36 22.334 -50 23.001l-2 2l43 40.5
c12.667 12.333 23.667 23.833 33 34.5l45.5 -34.5l45.5 -32.5h1l79 67l57 -38.5c17.333 -11.667 33.666 -22.167 48.999 -31.5l83 70l55.5 -38l58.5 -38v-4c-11.333 -10 -17 -22.333 -17 -37v-374c21.333 -16.667 38.666 -24.334 51.999 -23.001z" />
    <glyph glyph-name="afii10085" unicode="&#x443;" horiz-adv-x="394" 
d="M370 -197c0 22.667 -6.66797 40.334 -20.001 53.001s-38 19 -74 19c-27.333 0 -61 -8.33301 -101 -25s-73 -25 -99 -25c-25.333 0 -45.5 6.66699 -60.5 20s-22.5 32 -22.5 56c0 34 11.5 60.5 34.5 79.5s58.5 34.167 106.5 45.5v2l-91 49v4c11.333 6 17 19 17 39v370
c-22.667 16 -40 23.333 -52 22l-1 3c42 38.667 68 63.667 78 75l49.5 -37c15.667 -11.333 30.834 -21.666 45.501 -30.999v-4c-11.333 -7.33301 -17 -23.333 -17 -48v-357c8 -5.33301 19 -11.833 33 -19.5l51 -27.5l2 2v427c-5.33301 4.66699 -11 9.16699 -17 13.5
s-11.667 8.16602 -17 11.499v1l72 69l45 -35.5c13.333 -10.333 25.666 -19.5 36.999 -27.5v-4c-11.333 -7.33301 -17 -24.333 -17 -51v-421c-26.667 -4.66699 -55.167 -10.334 -85.5 -17.001s-62.5 -14.667 -96.5 -24c-9.33301 -2 -17.166 -4 -23.499 -6
s-12.5 -3.83301 -18.5 -5.5s-11.833 -3.66699 -17.5 -6s-12.5 -4.83301 -20.5 -7.5c-21.333 -9.33301 -37.333 -19.833 -48 -31.5s-17 -27.167 -19 -46.5c0 -28.667 15 -43 45 -43c10.667 -1.33301 24 3.16699 40 13.5l50.5 33.5c17.667 12 35.834 23 54.501 33
s36.667 14.667 54 14c77.333 0 116.666 -48.667 117.999 -146z" />
    <glyph glyph-name="afii10086" unicode="&#x444;" horiz-adv-x="559" 
d="M330 93c17.333 10 33.833 14.999 49.5 14.999s27.5 -4.66699 35.5 -14l1 1v385c-31.333 20.667 -48 32.334 -50 35.001l-36 -30v-392zM227 497.999c-17.333 -10 -33.834 -15 -49.501 -15s-27.5 4.66699 -35.5 14l-1 -1v-385c30.667 -21.333 47.334 -33 50.001 -35l36 30
v392zM226.999 77.999l-42.999 -34.999l-49 -42c-30 22.667 -68 47.667 -114 75v4c11.333 8 17 23 17 45v372c35.333 27.333 69.666 58.666 102.999 93.999l49.5 -36c14.333 -10.667 26.5 -15.667 36.5 -15v172c0 25.333 -3.33301 42.333 -10 51l4 2
c7.33301 -2 15.166 -6.83301 23.499 -14.5s14.5 -16.5 18.5 -26.5h2c6.66699 17.333 17 33.166 31 47.499s29.667 23.833 47 28.5l3 -2c-10.667 -18.667 -16 -41 -16 -67v-218l43 35l49 42c30 -23.333 68 -48.333 114 -75v-4c-11.333 -8 -17 -23 -17 -45v-372
c-35.333 -27.333 -69.666 -58.666 -102.999 -93.999l-49.5 36c-14.333 10.667 -26.5 15.667 -36.5 15v-135c21.333 -16 38.333 -23.667 51 -23l2 -2l-77 -75c-13.333 10.667 -28 21.5 -44 32.5l-52 34.5v4c11.333 5.33301 17 21.333 17 48v143z" />
    <glyph glyph-name="afii10087" unicode="&#x445;" horiz-adv-x="374" 
d="M374 75l-75.9961 -74.9971l-75 54l-71 185c-16.667 -22.667 -31.334 -44.667 -44.001 -66s-23.334 -42 -32.001 -62c32.667 -18 68.667 -28 108 -30l1 -3l-74 -82c-24.667 6 -48.334 15 -71.001 27c-2 -4.66699 -3.66699 -16 -5 -34h-2c-15.333 10 -24.333 17 -27 21
c8 41.333 20.667 80.666 38 117.999c18 35.333 48.667 85 92 149l-81 210c-18.667 16.667 -36.667 25 -54 25l-1 3l76 75l65 -42l77 -197c14 19.333 26.833 39.166 38.5 59.499s22.167 41.166 31.5 62.499c-33.333 23.333 -56.333 35 -69 35
c-8.66699 0 -16.334 -3 -23.001 -9l-11 10l73 83l95 -52c-25.333 -77.333 -65.333 -153 -120 -227l84 -212c21.333 -15.333 40 -23 56 -23z" />
    <glyph glyph-name="afii10088" unicode="&#x446;" horiz-adv-x="405" 
d="M367 -91l-81.0039 -73h-23l32 36l-38 77l56 55l-39.5 32c-11 9.33301 -24.167 19.333 -39.5 30h-1l-79 -67l-65.5 44.5l-48.5 31.5v4c11.333 8 17 21.333 17 40v371c-20 16.667 -37 24.334 -51 23.001l-2 2l78 75l49.5 -37c15.667 -11.333 30.834 -21.666 45.501 -30.999
v-4c-11.333 -5.33301 -17 -21.333 -17 -48v-360c26.667 -22.667 42.334 -35.334 47.001 -38.001l39 34v389c-4.66699 4 -10.667 8.5 -18 13.5s-12.666 8.83301 -15.999 11.5v1l42.5 38c12.333 11.333 22.833 21.666 31.5 30.999l43 -34.5l37 -28.5v-4
c-11.333 -7.33301 -17 -24.333 -17 -51v-373c18 -14 34.667 -21.667 50 -23l2 -2c-16 -14.667 -29.167 -29 -39.5 -43s-20.166 -26.333 -29.499 -37z" />
    <glyph glyph-name="afii10089" unicode="&#x447;" horiz-adv-x="405" 
d="M229 64l-0.00195312 3.99805c5.33301 3.33301 9.5 11 12.5 23s4.5 24.667 4.5 38v175l-91 -76l-65.5 44.5l-48.5 31.5v4c11.333 8 17 21.333 17 40l-1 142c-20 16.667 -37 24.334 -51 23.001l-2 2l78 75l49.5 -37c15.667 -11.333 30.834 -21.666 45.501 -30.999v-4
c-11.333 -5.33301 -17 -21.333 -17 -48v-131l32 -26.5c8 -6.33301 13.333 -10.166 16 -11.499l38 29v165c-4.66699 4 -10.667 8.5 -18 13.5s-12.666 8.83301 -15.999 11.5v1l42.5 38c12.333 11.333 22.833 21.666 31.5 30.999l43 -34.5l37 -28.5v-4
c-11.333 -7.33301 -17 -24.333 -17 -51v-373c18 -14 34.667 -21.667 50 -23l2 -2l-43 -40.5c-12.667 -12.333 -23.667 -23.833 -33 -34.5z" />
    <glyph glyph-name="afii10090" unicode="&#x448;" horiz-adv-x="595" 
d="M3 516l77.9961 74l43 -31l53 -36v-4c-11.333 -7.33301 -17 -23.333 -17 -48v-360c8 -6 16.5 -12 25.5 -18l27.5 -18l33 28v393c-4.66699 4 -10.667 8.5 -18 13.5s-12.666 8.83301 -15.999 11.5v1l73 68l81 -62v-5c-11.333 -7.33301 -17 -23.666 -17 -48.999v-363
c3.33301 -2.66699 9.33301 -6.83398 18 -12.501l35 -22.5l33 27v393c-4.66699 4 -10.667 8.5 -18 13.5s-12.666 8.83301 -15.999 11.5v1l73 68l37 -29.5l44 -32.5v-4c-11.333 -9.33301 -17 -25.333 -17 -48v-376c19.333 -14.667 36 -22.334 50 -23.001l2 -2l-43 -40.5
c-12.667 -12.333 -23.667 -23.833 -33 -34.5l-45.5 34.5l-45.5 32.5h-1l-79 -67l-57 38.5c-17.333 11.667 -33.666 22.167 -48.999 31.5l-83 -70l-55.5 38l-58.5 38v4c11.333 10 17 22.333 17 37v374c-21.333 16.667 -38.666 24.334 -51.999 23.001z" />
    <glyph glyph-name="afii10091" unicode="&#x449;" horiz-adv-x="601" 
d="M520 -6l36.9961 -94.001l-84 -78h-24l33 38l-40 84l59 61l-39.5 32c-11 9.33301 -24.167 19.333 -39.5 30l-79 -67l-57 38.5c-17.333 11.667 -33.666 22.167 -48.999 31.5l-83 -70l-55.5 38l-58.5 38v4c11.333 10 17 22.333 17 37v374
c-20 16.667 -37.333 24.334 -52 23.001l-2 2l78 74l43 -31l53 -36v-4c-11.333 -7.33301 -17 -23.333 -17 -48v-360c8 -6 16.5 -12 25.5 -18l27.5 -18l33 28v393c-4.66699 4 -10.667 8.5 -18 13.5s-12.666 8.83301 -15.999 11.5v1l73 68l81 -62v-5
c-11.333 -7.33301 -17 -23.666 -17 -48.999v-363c3.33301 -2.66699 9.33301 -6.83398 18 -12.501l35 -22.5l33 27v393c-4.66699 4 -10.667 8.5 -18 13.5s-12.666 8.83301 -15.999 11.5v1l73 68c23.333 -19.333 50.333 -40 81 -62v-4c-11.333 -9.33301 -17 -25.333 -17 -48
v-376h-1c18 -14 34.667 -21.667 50 -23l2 -2c-16 -14.667 -29.167 -29 -39.5 -43s-20.166 -26.333 -29.499 -37v-1z" />
    <glyph glyph-name="afii10092" unicode="&#x44a;" horiz-adv-x="433" 
d="M167 478c-8 -1.33301 -17 -1.16992 -27 0.49707s-19.833 3.83398 -29.5 6.50098s-18.834 5.33398 -27.501 8.00098s-16 4 -22 4c-10.667 0 -22 -9.33301 -34 -28l-6 -9l-19 13l35 58c12.667 21.333 26.334 46 41.001 74c10 -4 21.5 -8.16699 34.5 -12.5
s29.167 -8.83301 48.5 -13.5l22 -5c8.66699 -2 17.167 -2.66699 25.5 -2s15.833 3.5 22.5 8.5s11.334 13.833 14.001 26.5h1c-0.666992 0 0.833008 -2 4.5 -6l10.5 -11l-6 -16.5c-2 -5.66699 -4.83301 -11.834 -8.5 -18.501s-8.16699 -14 -13.5 -22s-12.666 -17 -21.999 -27
v-123c10.667 8.66699 23.334 20.334 38.001 35.001l19 18.5c5.33301 5 9.66602 8.83301 12.999 11.5l72 -46.5l63 -38.5v-4c-11.333 -7.33301 -17 -24.333 -17 -51v-197c-26.667 -15.333 -54.334 -32.166 -83.001 -50.499s-58.334 -38.5 -89.001 -60.5l-71 46.5
c-22.667 14.333 -44.667 27.5 -66 39.5v5c12 6.66699 18 18.667 18 36v276c3.33301 3.33301 8 8.33301 14 15l18.5 21.5c6.33301 7.66699 12 15 17 22s8.16699 12.5 9.5 16.5zM296 70.9961v255l-26 17c-12 8 -27.667 17.667 -47 29l-13 -11v-238
c16.667 -12 44.667 -30 84 -54z" />
    <glyph glyph-name="afii10093" unicode="&#x44b;" horiz-adv-x="581" 
d="M160 383c10.667 8.66699 23.3359 20.3311 38.0029 34.998l19 18.5c5.33301 5 9.66602 8.83301 12.999 11.5l72 -46.5l63 -38.5v-4c-11.333 -7.33301 -17 -24.333 -17 -51v-197c-26.667 -15.333 -54.334 -32.166 -83.001 -50.499s-58.334 -38.5 -89.001 -60.5l-71 46.5
c-22.667 14.333 -44.667 27.5 -66 39.5v5c12 6.66699 18 18.667 18 36v363l-13 8c-12.667 8.66699 -25.667 13 -39 13l-1 4l78 75l45.5 -34c15.667 -11.333 32.167 -22.666 49.5 -33.999v-4c-11.333 -7.33301 -17 -22 -17 -44v-91zM245.002 70.9971v255l-26 17
c-12 8 -27.667 17.667 -47 29l-13 -11v-238c16.667 -12 44.667 -30 84 -54zM572.002 74.9971l-77.999 -74.001l-46.5 34c-15.667 11.333 -31.834 22.333 -48.501 33v4c11.333 7.33301 17 23 17 47v372l-13 8c-13.333 8.66699 -26.333 13 -39 13l-1 4l78 75l45.5 -34
c15.667 -11.333 32.167 -22.666 49.5 -33.999v-4c-11.333 -7.33301 -17 -22 -17 -44v-375c22.667 -14.667 39.667 -22 51 -22z" />
    <glyph glyph-name="afii10094" unicode="&#x44c;" horiz-adv-x="382" 
d="M160 383c10.667 8.66699 23.3359 20.3311 38.0029 34.998l19 18.5c5.33301 5 9.66602 8.83301 12.999 11.5l72 -46.5l63 -38.5v-4c-11.333 -7.33301 -17 -24.333 -17 -51v-197c-26.667 -15.333 -54.334 -32.166 -83.001 -50.499s-58.334 -38.5 -89.001 -60.5l-71 46.5
c-22.667 14.333 -44.667 27.5 -66 39.5v5c12 6.66699 18 18.667 18 36v363l-13 8c-12.667 8.66699 -25.667 13 -39 13l-1 4l78 75l45.5 -34c15.667 -11.333 32.167 -22.666 49.5 -33.999v-4c-11.333 -7.33301 -17 -22 -17 -44v-91zM245.002 70.9971v255l-26 17
c-12 8 -27.667 17.667 -47 29l-13 -11v-238c16.667 -12 44.667 -30 84 -54z" />
    <glyph glyph-name="afii10095" unicode="&#x44d;" horiz-adv-x="327" 
d="M66 304c-7.33301 2.66699 -12.168 -0.00390625 -14.501 -8.00391s-3.83301 -16.333 -4.5 -25h-1l-14 15c4.66699 20 20.667 42 48 66c8.66699 7.33301 15.834 11 21.501 11s11.167 -2 16.5 -6c2 0 5.83301 -1.83301 11.5 -5.5l17.5 -11.5c6 -4 11.167 -7.66699 15.5 -11
s6.16602 -5 5.49902 -5c4 -2 7.66699 -3 11 -3s8 2 14 6v143c-17.333 7.33301 -34.833 15.833 -52.5 25.5s-31.834 18.167 -42.501 25.5c-13.333 -9.33301 -22.666 -19 -27.999 -29s-8.66602 -19.667 -9.99902 -29l-28 -11c0 8 2 17.667 6 29
c2.66699 11.333 8.83398 22.5 18.501 33.5s20 21.5 31 31.5s22 19.333 33 28s19.5 16.334 25.5 23.001c7.33301 -6 17.333 -12.5 30 -19.5s26.5 -13.833 41.5 -20.5s30.833 -13.167 47.5 -19.5s32.667 -11.5 48 -15.5v-4c-11.333 -6 -17 -23 -17 -51l-1 -379
c-52.667 -20 -107.334 -49.333 -164.001 -88c-10 7.33301 -19 13.5 -27 18.5s-15.667 8.83301 -23 11.5s-14.833 4.33398 -22.5 5.00098s-16.5 0.333984 -26.5 -0.999023l-6.5 -10c-3 -4.66699 -5.5 -10.667 -7.5 -18c-0.666992 0.666992 -2.5 2.83398 -5.5 6.50098
s-5.16699 6.5 -6.5 8.5c3.33301 6.66699 7.33301 14.167 12 22.5s9.83398 16.833 15.501 25.5s12.167 16.834 19.5 24.501s15.666 14.167 24.999 19.5c25.333 -0.666992 46.333 -5 63 -13s34 -17.667 52 -29v234c-11.333 -13.333 -22.833 -23.833 -34.5 -31.5
s-24.167 -9.83398 -37.5 -6.50098c-2 0 -5.5 1.83301 -10.5 5.5l-16 12c-5.66699 4.33301 -11.167 8.33301 -16.5 12s-9.33301 6.16699 -12 7.5z" />
    <glyph glyph-name="afii10096" unicode="&#x44e;" horiz-adv-x="563" 
d="M200 368l43.002 -45.001v160c30.667 17.333 60.167 35.333 88.5 54l83.5 57l79.5 -49.5l57.5 -33.5v-4c-11.333 -9.33301 -17 -24.333 -17 -45v-349c-60.667 -34 -118 -71 -172 -111l-69 45.5c-22.667 14.333 -45.334 27.833 -68.001 40.5v4
c11.333 5.33301 17 18.333 17 39v162l-42 -45l-42 41v-195c4.66699 -4 10.667 -8.5 18 -13.5s12.666 -8.83301 15.999 -11.5v-1c-13.333 -11.333 -26 -22.666 -38 -33.999l-35 -34l-81 62v4c11.333 9.33301 17 26.333 17 51v373c-18 14 -34.667 21.667 -50 23l-2 2l43 40.5
c12.667 12.333 23.667 23.833 33 34.5l40.5 -33.5c13 -11 25.5 -22.167 37.5 -33.5h1v-199zM432.002 73.999v397.001c-11.333 8 -24 16.333 -38 25l-45 27l-3 -1v-397c11.333 -8.66699 24 -17.334 38 -26.001s29.333 -17.667 46 -27z" />
    <glyph glyph-name="afii10097" unicode="&#x44f;" horiz-adv-x="406" 
d="M151 289c-25.333 0.666992 -45.9932 4.66211 -61.9932 11.9951s-28.833 16 -38.5 26s-16.334 20.667 -20.001 32s-5.83398 21.333 -6.50098 30c-2 24 0.666992 44.167 8 60.5s17.166 30.333 29.499 42s26.5 21.667 42.5 30s32 16 48 23s31.333 14.167 46 21.5
s26.667 16 36 26c10 -5.33301 18.5 -10.333 25.5 -15s15.667 -9.5 26 -14.5s23.666 -10.667 39.999 -17s38.5 -13.5 66.5 -21.5l2 -5c-24 -21.333 -36 -51 -36 -89v-338c4.66699 -4 10.667 -8.5 18 -13.5s12.666 -8.83301 15.999 -11.5v-1
c-13.333 -11.333 -26 -22.666 -38 -33.999l-35 -34l-81 62v4c11.333 9.33301 17 26.333 17 51v175c-12 -1.33301 -23 -2.66602 -33 -3.99902s-17.333 -3 -22 -5c-15.333 -7.33301 -24.833 -19.166 -28.5 -35.499s-5.83398 -33.5 -6.50098 -51.5v-23v-26.5v-25.5v-20
c-0.666992 -21.333 -5.83398 -39.833 -15.501 -55.5s-29.5 -28.5 -59.5 -38.5c-10.667 -2.66699 -22.667 -5 -36 -7l-41 -6l-11 16c17.333 5.33301 30 10.833 38 16.5s13 13.834 15 24.501v154c2 14.667 6.16699 27.167 12.5 37.5s14 18.833 23 25.5
s18.833 11.834 29.5 15.501s21 6.16699 31 7.5zM255.007 358.995c0 12 0.833984 21.665 2.50098 28.998s4.16699 14.666 7.5 21.999c2.66699 7.33301 8.5 15.166 17.5 23.499l30.5 27.5v1c-6 0.666992 -15.167 3.33398 -27.5 8.00098s-25.333 10.334 -39 17.001
s-26.834 13.834 -39.501 21.501s-22.334 15.167 -29.001 22.5c-8 -5.33301 -15 -14 -21 -26s-10.667 -25.667 -14 -41s-5.16602 -31.166 -5.49902 -47.499s1 -31.5 4 -45.5s7.66699 -26 14 -36s14.833 -16.333 25.5 -19c13.333 -3.33301 25.5 -5.5 36.5 -6.5
s23.5 -1.16699 37.5 -0.5v50z" />
    <glyph glyph-name="afii10071" unicode="&#x451;" horiz-adv-x="330" 
d="M330 397c-5.33301 -4 -11.833 -8.49707 -19.5 -13.4971s-16.167 -10.167 -25.5 -15.5s-20.5 -11.333 -33.5 -18s-27.167 -14.334 -42.5 -23.001s-28 -15.5 -38 -20.5l-21 -10.5v-153c50.667 -32.667 85.334 -49 104.001 -49c6.66699 0 13.667 3.66699 21 11l9 9l15 -16
l-53 -52.5l-43 -45.5l-88 52.5c-28.667 16.333 -57 31.166 -85 44.499v4c11.333 9.33301 17 25.666 17 48.999v360c62 16.667 122 43.667 180 81c16.667 -36.667 33.667 -71 51 -103s34.666 -62.333 51.999 -91zM241 370.003c-21.333 34.667 -39.168 64.833 -53.501 90.5
s-25.166 47.167 -32.499 64.5l-5 -1v-202c23.333 11.333 42.5 21 57.5 29s26.167 14.333 33.5 19zM244.998 761.002l68 -64c-18 -16 -40.333 -37.333 -67 -64l-67 64zM87.998 761.002l68 -64c-18 -16 -40.333 -37.333 -67 -64l-67 64z" />
    <glyph glyph-name="afii10101" unicode="&#x454;" horiz-adv-x="317" 
d="M254 326c7.33301 -2.66699 12.167 0.000976562 14.5 8.00098s3.83301 16.333 4.5 25h1l14 -15c-5.33301 -20 -21.333 -42 -48 -66c-8.66699 -7.33301 -15.834 -11 -21.501 -11s-11.167 2 -16.5 6c-2 0 -5.83301 1.83301 -11.5 5.5l-17.5 11.5
c-6 4 -11.167 7.66699 -15.5 11s-6.16602 5 -5.49902 5c-3.33301 1.33301 -6 2.33301 -8 3s-4.66699 0.333984 -8 -0.999023v-165c48.667 -32 86.667 -48 114 -48c8 0 14.667 2.66699 20 8l9 10l16 -15l-97 -98c-20.667 13.333 -46.167 28 -76.5 44l-105.5 53v4
c11.333 7.33301 17 21 17 41v337c30.667 16.667 60.334 34.167 89.001 52.5s56.334 37.833 83.001 58.5c54.667 -50.667 90.667 -73.334 108 -68.001l2 -3l-15 -15l-24 -25l-22.5 -24l-11.5 -12h-1c-18.667 9.33301 -36.334 20.666 -53.001 33.999s-32.667 28.333 -48 45
l-4 -2v-185c9.33301 10 19.166 18 29.499 24s21.5 7.33301 33.5 4c2 0 5.5 -1.83301 10.5 -5.5l16 -12l16 -12.5c5 -4 9.16699 -6.33301 12.5 -7z" />
    <glyph glyph-name="afii10103" unicode="&#x456;" horiz-adv-x="217" 
d="M213 74l-77.999 -74.001l-46.5 34c-15.667 11.333 -31.834 22.333 -48.501 33v4c11.333 7.33301 17 23 17 47v372l-13 8c-13.333 8.66699 -26.333 13 -39 13l-1 4l78 75l45.5 -34c15.667 -11.333 32.167 -22.666 49.5 -33.999v-4c-11.333 -7.33301 -17 -22 -17 -44v-375
c22.667 -14.667 39.667 -22 51 -22zM99.001 758.999l68 -64c-18 -16 -40.333 -37.333 -67 -64l-67 64z" />
    <glyph glyph-name="afii10104" unicode="&#x457;" horiz-adv-x="217" 
d="M213 74l-77.999 -74.001l-46.5 34c-15.667 11.333 -31.834 22.333 -48.501 33v4c11.333 7.33301 17 23 17 47v372l-13 8c-13.333 8.66699 -26.333 13 -39 13l-1 4l78 75l45.5 -34c15.667 -11.333 32.167 -22.666 49.5 -33.999v-4c-11.333 -7.33301 -17 -22 -17 -44v-375
c22.667 -14.667 39.667 -22 51 -22zM187.001 769.999l68 -64c-18 -16 -40.333 -37.333 -67 -64l-67 64zM30.001 769.999l68 -64c-18 -16 -40.333 -37.333 -67 -64l-67 64z" />
    <glyph glyph-name="afii10107" unicode="&#x45a;" horiz-adv-x="500" 
d="M296 425l-191 -84v19l188 83zM105 264l193 88v-20l-193 -87v19z" />
    <glyph glyph-name="afii10108" unicode="&#x45b;" horiz-adv-x="868" 
d="M230 0c-128.667 24 -193.001 103.997 -193.001 239.997v229c28 15.333 57.167 34.333 87.5 57s62.166 49 95.499 79c6 -4 15 -9.5 27 -16.5s25.5 -14 40.5 -21s30.333 -13.167 46 -18.5s29.5 -8.66602 41.5 -9.99902v80c-31.333 25.333 -53.666 38 -66.999 38
c-8.66699 0 -22.334 -7.33301 -41.001 -22l-12 14l124 101l112 -81v-174l40 32v199l19 -1v-182l87 70c128.667 -24 193 -104 193 -240v-229c-28 -15.333 -57.167 -34.333 -87.5 -57s-62.166 -49 -95.499 -79c-7.33301 5.33301 -20.333 12 -39 20s-38.334 15 -59.001 21v-198
l-18 1v203l-21.5 4c-7 1.33301 -13.167 2.33301 -18.5 3v-163c0 -11.333 0.333008 -23 1 -35s1.66699 -24.333 3 -37c-5.33301 5.33301 -11.166 11.5 -17.499 18.5s-12.166 15.333 -17.499 25s-9.83301 20.834 -13.5 33.501s-5.5 27.667 -5.5 45
c-10 -17.333 -22 -34.166 -36 -50.499s-29.667 -28.5 -47 -36.5l-3 1c13.333 28.667 20 63.667 20 105v143zM374.999 505.997c-38 -27.333 -75.999 -39.332 -113.999 -35.999s-73.333 18.666 -106 45.999v-268c0 -26 3.16699 -48 9.5 -66s15.666 -33.167 27.999 -45.5
s28 -22.333 47 -30s41.5 -14.167 67.5 -19.5l68 49v370zM712 96.998v206l-163 -75v-103c28.667 12.667 56.5 16.5 83.5 11.5s53.5 -18.167 79.5 -39.5zM558 523.998l-8 -7.00195l-1 -178l158 74c-4 16.667 -10 31 -18 43s-18.167 22.333 -30.5 31
s-26.833 15.834 -43.5 21.501s-35.667 10.834 -57 15.501zM531 115.996l-0.00195312 386l-40 -32v-381c6.66699 5.33301 13.334 10.333 20.001 15s13.334 8.66699 20.001 12zM711.998 364.996c0 5.33301 -0.166992 10.5 -0.5 15.5s-0.833008 9.83301 -1.5 14.5l-161 -74v-75
l163 77v42z" />
    <glyph glyph-name="afii10109" unicode="&#x45c;" horiz-adv-x="837" 
d="M384 584c-9.33301 -15.333 -21.9961 -27.502 -37.9961 -36.502s-33 -14 -51 -15s-36 2.5 -54 10.5s-33 21.333 -45 40c-24.667 -16 -42.334 -33.167 -53.001 -51.5s-16.5 -37.666 -17.5 -57.999s2.5 -41 10.5 -62s18.333 -41.667 31 -62s27.167 -40.166 43.5 -59.499
s32.5 -37.333 48.5 -54l14.5 9l21.5 13l25 15c8.66699 5.33301 16.667 10 24 14v182c0 26.667 7.83301 53.167 23.5 79.5s42.5 51.5 80.5 75.5c6.66699 5.33301 13 9.33301 19 12c5.33301 2.66699 10.333 4.66699 15 6s8 1.33301 10 0
c2.66699 -2.66699 4.66699 -3.66699 6 -3s3.33301 -0.333008 6 -3c-24 -5.33301 -36 -20.333 -36 -45v-60l23 14.5c8 5 16.333 10.5 25 16.5v121c-13.333 -16.667 -28.166 -29.5 -44.499 -38.5s-36.166 -13.5 -59.499 -13.5c-4 0 -10.667 2.16699 -20 6.5l-30.5 14.5
l-31.5 15c-10 4.66699 -17.333 7 -22 7c-16 0 -24 -7 -24 -21l-13 5c0 7.33301 2 15.833 6 25.5s9.33301 19 16 28s14.167 17.167 22.5 24.5s16.833 13 25.5 17c14 -2.66699 27.5 -6.83398 40.5 -12.501s25.167 -11.334 36.5 -17.001l31 -15
c9.33301 -4.33301 17 -6.16602 23 -5.49902c8 0.666992 14.667 1.66699 20 3s10 3.16602 14 5.49902s8.16699 5.5 12.5 9.5s9.83301 8.66699 16.5 14l11 -10c-2 -3.33301 -4 -6.33301 -6 -9s-3.66699 -5.33398 -5 -8.00098v-133l58.5 44l47.5 37
c31.333 -27.333 61.166 -55.333 89.499 -84s49.833 -58.5 64.5 -89.5s19.334 -63.333 14.001 -97s-26.333 -69.5 -63 -107.5c-18.667 -18.667 -40.5 -37.834 -65.5 -57.501s-51.167 -38.167 -78.5 -55.5c-8.66699 10 -18.834 18.667 -30.501 26s-23.834 13 -36.501 17v-101
c22.667 -4 34.667 -6 36 -6c10 0 22.667 10 38 30l16 -11c-20 -24 -38 -46.667 -54 -68s-30.333 -41.333 -43 -60c-20.667 8.66699 -41.334 15.834 -62.001 21.501s-38.667 10.167 -54 13.5c-12 2.66699 -26.5 5.5 -43.5 8.5s-34.167 4.33301 -51.5 4
s-33.5 -3.16602 -48.5 -8.49902s-26.5 -14.666 -34.5 -27.999l-14 16c24.667 28.667 45.167 53.834 61.5 75.501s29 41 38 58s15.333 32.333 19 46s5.5 27.167 5.5 40.5v27l-45 -27c-16 -10 -31.5 -20.333 -46.5 -31l-42.5 -30.5l-34 -25.5
c-30 28.667 -58.333 57.667 -85 87s-46.167 59.833 -58.5 91.5s-14.833 64.167 -7.5 97.5s30 68.333 68 105c19.333 18 42.5 36 69.5 54s54.5 35.333 82.5 52c9.33301 -12 20.666 -22.167 33.999 -30.5s26.666 -14.5 39.999 -18.5s25.833 -5.66699 37.5 -5
s20.5 3.66699 26.5 9zM649.004 221.998c23.333 16.667 39.832 34.4971 49.499 53.4971s14.167 38.667 13.5 59s-5.83398 41 -15.501 62s-21.667 41.667 -36 62s-30.166 40 -47.499 59s-34.333 36.5 -51 52.5c-3.33301 -2 -7.33301 -4.66699 -12 -8
s-9.66699 -6.66602 -15 -9.99902v-283c20.667 2.66699 41.334 0.333984 62.001 -6.99902s38 -20.666 52 -39.999zM451.003 215.995c6 12 14.832 22.167 26.499 30.5s24.5 14.5 38.5 18.5v274c-9.33301 -5.33301 -18.166 -10.833 -26.499 -16.5s-15.5 -10.167 -21.5 -13.5
v-205c0 -17.333 -2.5 -33.333 -7.5 -48s-12.5 -28.667 -22.5 -42s-22.667 -26.833 -38 -40.5s-33 -28.5 -53 -44.5c10 2 19.5 3.66699 28.5 5s18.167 2 27.5 2c4 0 10.833 -1 20.5 -3l31 -6.5c11 -2.33301 22 -5 33 -8l28.5 -7.5v102c-14 2.66699 -26.833 3.5 -38.5 2.5
s-20.167 -4.16699 -25.5 -9.5z" />
    <glyph glyph-name="afii10110" unicode="&#x45e;" horiz-adv-x="404" 
d="M370 -197c0 22.667 -6.66797 40.334 -20.001 53.001s-38 19 -74 19c-27.333 0 -61 -8.33301 -101 -25s-73 -25 -99 -25c-25.333 0 -45.5 6.66699 -60.5 20s-22.5 32 -22.5 56c0 34 11.5 60.5 34.5 79.5s58.5 34.167 106.5 45.5v2l-91 49v4c11.333 6 17 19 17 39v370
c-22.667 16 -40 23.333 -52 22l-1 3c42 38.667 68 63.667 78 75l49.5 -37c15.667 -11.333 30.834 -21.666 45.501 -30.999v-4c-11.333 -7.33301 -17 -23.333 -17 -48v-357c8 -5.33301 19 -11.833 33 -19.5l51 -27.5l2 2v427c-5.33301 4.66699 -11 9.16699 -17 13.5
s-11.667 8.16602 -17 11.499v1l72 69l45 -35.5c13.333 -10.333 25.666 -19.5 36.999 -27.5v-4c-11.333 -7.33301 -17 -24.333 -17 -51v-421c-26.667 -4.66699 -55.167 -10.334 -85.5 -17.001s-62.5 -14.667 -96.5 -24c-9.33301 -2 -17.166 -4 -23.499 -6
s-12.5 -3.83301 -18.5 -5.5s-11.833 -3.66699 -17.5 -6s-12.5 -4.83301 -20.5 -7.5c-21.333 -9.33301 -37.333 -19.833 -48 -31.5s-17 -27.167 -19 -46.5c0 -28.667 15 -43 45 -43c10.667 -1.33301 24 3.16699 40 13.5l50.5 33.5c17.667 12 35.834 23 54.501 33
s36.667 14.667 54 14c77.333 0 116.666 -48.667 117.999 -146zM323.999 768c2 0 4.00098 -0.332031 6.00098 -0.999023c2.66699 -1.33301 5.66699 -3.33301 9 -6c-19.333 -39.333 -40.166 -67 -62.499 -83s-44.5 -25.333 -66.5 -28s-42.5 -0.833984 -61.5 5.49902
s-34.5 12.5 -46.5 18.5l-22 -36l-15 11l27 52c10 19.333 20.667 41.333 32 66c7.33301 -8.66699 20.166 -16.834 38.499 -24.501s37.833 -12.667 58.5 -15s40.667 -0.666016 60 5.00098s33.666 17.5 42.999 35.5z" />
    <glyph glyph-name="afii10146" unicode="&#x462;" horiz-adv-x="670" 
d="M312 118v263.001l-41 -32v-29c0 -32 -4.66699 -58.333 -14 -79c-9.33301 -20 -29 -43 -59 -69v-2c9.33301 -1.33301 26.833 -5.33301 52.5 -12s53.5 -14.667 83.5 -24c64.667 -18.667 112.667 -37.334 144 -56.001c27.333 25.333 41 67.666 41 126.999v11
c0 28 -2.33301 53.167 -7 75.5s-13.334 41.833 -26.001 58.5s-30.167 29.834 -52.5 39.501s-51.166 15.5 -86.499 17.5l-16 -11v-285zM327 263.001l191 83l3 -18l-194 -84v19zM327 167.001l196 88v-20l-196 -87v19zM155 628.001c0 41.333 -6.66699 76.332 -20 104.999l3 1
c17.333 -8 33 -20.167 47 -36.5s26 -33.166 36 -50.499c0 17.333 1.83301 32.333 5.5 45s8.16699 23.834 13.5 33.501s11.166 18 17.499 25s12.166 13.167 17.499 18.5c-1.33301 -12.667 -2.33301 -25 -3 -37s-1 -23.667 -1 -35v-324l21 16.5
c8.66699 7 15.334 12.167 20.001 15.5v271l-1 63v2l20 -2v-56v-264l98 77c70.667 -9.33301 123.5 -33.666 158.5 -72.999s52.5 -95.666 52.5 -168.999v34c0 -22 -5.83301 -43.5 -17.5 -64.5s-23.5 -39.833 -35.5 -56.5c-5.33301 -6.66699 -11.833 -14.334 -19.5 -23.001
s-13.834 -15.334 -18.501 -20.001l-15 -14.5c-6 -5.66699 -9.33301 -8.83398 -10 -9.50098c-18.667 -18.667 -53 -56 -103 -112c-54 26.667 -159 62.667 -315 108l-2 8c34 27.333 51 68 51 122v142h-14c-49.333 0 -81.333 -15 -96 -45l-12 3
c4.66699 50 17.834 87.167 39.501 111.5s47.834 36.5 78.501 36.5h4v154zM426 636l13.999 -8l-65 -96h-340c-5.33301 0 -10.666 -3.66699 -15.999 -11l-7 -11l-14 8l63 95h338c8 0 14.667 4 20 12z" />
    <glyph glyph-name="afii10194" unicode="&#x463;" horiz-adv-x="427" 
d="M345 561l14.002 -8.00098l-65 -96h-89v-117c10.667 8.66699 23.334 20.334 38.001 35.001l19 18.5c5.33301 5 9.66602 8.83301 12.999 11.5l72 -46.5l63 -38.5v-4c-11.333 -7.33301 -17 -24.333 -17 -51v-154c-26.667 -15.333 -54.334 -32.166 -83.001 -50.499
s-58.334 -38.5 -89.001 -60.5l-71 46.5c-22.667 14.333 -44.667 27.5 -66 39.5v5c12 6.66699 18 18.667 18 36v330h-71c-5.33301 0 -10.666 -3.66699 -15.999 -11l-7 -11l-14 8l63 95h45v87c0 25.333 -3.33301 42.333 -10 51l4 2c7.33301 -2 15.166 -6.83301 23.499 -14.5
s14.5 -16.5 18.5 -26.5h2c6.66699 17.333 17 33.166 31 47.499s29.667 23.833 47 28.5l3 -2c-10.667 -18.667 -16 -41 -16 -67v-106h113c8 0 14.667 4 20 12zM290.002 70.999v212l-26 17c-12 8 -27.667 17.667 -47 29l-13 -11v-195c16.667 -12 44.667 -30 84 -54z" />
    <glyph glyph-name="afii10050" unicode="&#x490;" horiz-adv-x="498" 
d="M183 759c23.333 -1.33301 48.168 -4.50391 74.501 -9.50391s55.166 -9.16699 86.499 -12.5c26 -2.66699 49.667 -4.16699 71 -4.5s40.5 2.83398 57.5 9.50098s31.5 18.167 43.5 34.5s21.667 39.833 29 70.5l20 -4c-13.333 -33.333 -24.666 -64.5 -33.999 -93.5
s-21 -53.833 -35 -74.5s-31.833 -36.167 -53.5 -46.5s-51.5 -13.5 -89.5 -9.5c-5.33301 0 -9 0.333008 -11 1v-513c22.667 -4 34.667 -6 36 -6c10 0 22.667 10 38 30l16 -11c-20 -24 -38 -46.667 -54 -68s-30.333 -41.333 -43 -60c-20.667 8.66699 -40 15.834 -58 21.501
s-34.667 10.167 -50 13.5c-32.667 7.33301 -68.667 11 -108 11c-22.667 0 -40.834 -2.83301 -54.501 -8.5s-28.834 -15.5 -45.501 -29.5l-14 16l87 80c21.333 19.333 37.833 41.333 49.5 66s17.5 50.334 17.5 77.001v74h-13c-49.333 0 -81.333 -15 -96 -45l-11 2
c2.66699 52 14.834 89.833 36.501 113.5s48.5 35.5 80.5 35.5h3v58c0 26.667 7.83301 51.334 23.5 74.001s42.5 46 80.5 70c1.33301 0.666992 3 1.66699 5 3c1.33301 1.33301 2.83301 2.5 4.5 3.5s3.83398 2.16699 6.50098 3.5c-30.667 4.66699 -59.167 10.5 -85.5 17.5
s-50.333 10.167 -72 9.5s-40.334 -8.16699 -56.001 -22.5s-28.167 -40.5 -37.5 -78.5l-19 7c4 22 11.5 44.833 22.5 68.5s24.167 45 39.5 64s32.5 34.5 51.5 46.5s39.167 17.333 60.5 16zM275.002 582.996l-0.000976562 -279c0 -17.333 -2.16699 -33.333 -6.5 -48
s-11 -28.667 -20 -42s-20.667 -26.833 -35 -40.5s-31.5 -28.5 -51.5 -44.5c10 2 19.5 3.66699 28.5 5s18.167 2 27.5 2c4 0 10.333 -1 19 -3l28 -6.5c10 -2.33301 20.167 -5 30.5 -8s19.5 -5.5 27.5 -7.5v513c-2.66699 0.666992 -5.16699 1.16699 -7.5 1.5
s-5.16602 0.833008 -8.49902 1.5c-21.333 -6 -32 -20.667 -32 -44z" />
    <glyph glyph-name="afii10098" unicode="&#x491;" horiz-adv-x="358" 
d="M384 605c-7.33301 -30 -20.8291 -60.832 -40.4961 -92.499s-41.5 -58.167 -65.5 -79.5l-66 46c-18.667 13.333 -34.667 27.666 -48 42.999l-4 -2v-421c22.667 -14.667 39.667 -22 51 -22l2 -3l-78 -74l-46.5 34c-15.667 11.333 -31.834 22.333 -48.501 33v4
c12 8 17.667 23.667 17 47v361l40 25.5l45 27c15.333 9 30.666 18.5 45.999 28.5s29.666 20 42.999 30c20 -18.667 38.167 -33.5 54.5 -44.5s30.166 -18.167 41.499 -21.5c18.667 29.333 31 58.333 37 87z" />
    <glyph glyph-name="endash" unicode="&#x2013;" horiz-adv-x="467" 
d="M413 445l13.999 -8l-65 -104c-8.66699 0 -56.667 3.5 -144 10.5s-134.333 10.5 -141 10.5c-5.33301 0 -10.666 -3.66699 -15.999 -11l-7 -11l-14 8l63 102c8 0.666992 55.5 -2.5 142.5 -9.5s133.833 -10.5 140.5 -10.5c8 0 14.667 4 20 12z" />
    <glyph glyph-name="emdash" unicode="&#x2014;" horiz-adv-x="795" 
d="M741 439l13.998 -8.00098l-65 -104c-8.66699 0 -38.667 1 -90 3s-124.666 5.33301 -219.999 10l-218 10.5c-50 2.33301 -78.333 3.5 -85 3.5c-5.33301 0 -10.666 -3.66699 -15.999 -11l-7 -11l-14 8l63 102c8 0.666992 37.5 -0.166016 88.5 -2.49902l219.5 -10.5
c95.333 -4.66699 168 -8 218 -10s78.333 -3 85 -3c8 0 14.667 4 20 12z" />
    <glyph glyph-name="quoteleft" unicode="&#x2018;" horiz-adv-x="187" 
d="M162 789c-40.667 -24 -61 -52.667 -61 -86c0 -20 15.667 -42.667 47 -68l-66 -64c-20 14.667 -34.5 28.667 -43.5 42s-13.5 31.333 -13.5 54c0 12.667 3 25.5 9 38.5s14.5 25.333 25.5 37s24 22.5 39 32.5s31.5 18.333 49.5 25z" />
    <glyph glyph-name="quoteright" unicode="&#x2019;" horiz-adv-x="187" 
d="M162 704c0 -12.667 -3 -25.5 -9 -38.5s-14.5 -25.333 -25.5 -37s-24 -22.5 -39 -32.5s-31.5 -18.333 -49.5 -25l-14 11c40.667 24 61 52.667 61 86c0 20 -15.667 42.667 -47 68l66 64c38 -27.333 57 -59.333 57 -96z" />
    <glyph glyph-name="quotesinglbase" unicode="&#x201a;" horiz-adv-x="187" 
d="M162 24c0 -12.667 -3 -25.501 -9 -38.501s-14.5 -25.333 -25.5 -37s-24 -22.5 -39 -32.5s-31.5 -18.333 -49.5 -25l-14 11c40.667 24 61 52.667 61 86c0 20 -15.667 42.667 -47 68l66 64c20 -15.333 34.5 -29.666 43.5 -42.999s13.5 -31 13.5 -53z" />
    <glyph glyph-name="quotedblleft" unicode="&#x201c;" horiz-adv-x="334" 
d="M309 789c-40.667 -24 -61.001 -52.666 -61.001 -85.999c0 -20 15.667 -42.667 47 -68l-66 -64c-19.333 13.333 -33.666 27.166 -42.999 41.499s-14 32.5 -14 54.5c0 12.667 3 25.5 9 38.5s14.5 25.333 25.5 37s24 22.5 39 32.5s31.5 18.333 49.5 25zM161.999 789.001
c-40.667 -24 -61 -52.668 -61 -86.001c0 -20 15.667 -42.667 47 -68l-66 -64c-20 14.667 -34.5 28.834 -43.5 42.501s-13.5 31.5 -13.5 53.5c0 12.667 3 25.5 9 38.5s14.5 25.333 25.5 37s24 22.5 39 32.5s31.5 18.333 49.5 25z" />
    <glyph glyph-name="quotedblright" unicode="&#x201d;" horiz-adv-x="334" 
d="M309 704c0 -12.667 -3.00098 -25.499 -9.00098 -38.499s-14.5 -25.333 -25.5 -37s-24 -22.5 -39 -32.5s-31.5 -18.333 -49.5 -25l-14 11c40.667 24 61 52.667 61 86c0 20 -15.667 42.667 -47 68l66 64c18.667 -14.667 32.834 -28.834 42.501 -42.501
s14.5 -31.5 14.5 -53.5zM161.999 704.001c0 -12.667 -2.99902 -25.5 -8.99902 -38.5s-14.5 -25.333 -25.5 -37s-24 -22.5 -39 -32.5s-31.5 -18.333 -49.5 -25l-14 11c40.667 24 61 52.667 61 86c0 20 -15.667 42.667 -47 68l66 64c19.333 -14 33.666 -28 42.999 -42
s14 -32 14 -54z" />
    <glyph glyph-name="quotedblbase" unicode="&#x201e;" horiz-adv-x="334" 
d="M309 24c0 -12.667 -3 -25.501 -9 -38.501s-14.5 -25.333 -25.5 -37s-24 -22.5 -39 -32.5s-31.5 -18.333 -49.5 -25l-14 11c40.667 24 61 52.667 61 86c0 20 -15.667 42.667 -47 68l66 64c20 -15.333 34.5 -29.666 43.5 -42.999s13.5 -31 13.5 -53zM162 23.999
c0 -12.667 -3 -25.499 -9 -38.499s-14.5 -25.333 -25.5 -37s-24 -22.5 -39 -32.5s-31.5 -18.333 -49.5 -25l-14 11c40.667 24 61 52.667 61 86c0 20 -15.667 42.667 -47 68l66 64c20 -14 34.5 -27.833 43.5 -41.5s13.5 -31.834 13.5 -54.501z" />
    <glyph glyph-name="dagger" unicode="&#x2020;" horiz-adv-x="516" 
d="M486 589l-66.9971 -112.999c-32.667 6.66699 -73.334 10.334 -122.001 11.001v-31c0 -123.333 1.5 -226 4.5 -308s7.16699 -145 12.5 -189c-15.333 -11.333 -31 -24.833 -47 -40.5s-32.667 -33.834 -50 -54.501l-11 7c8 78.667 12 273.667 12 585v30
c-71.333 -3.33301 -131.333 -13.333 -180 -30l-8 7l58 101c14.667 -1.33301 32.5 -2.33301 53.5 -3s45.833 -1.33398 74.5 -2.00098c-3.33301 65.333 -13.333 112 -30 140v4c50 24 97.667 56.667 143 98l11 -8c-22.667 -23.333 -36.334 -101.333 -41.001 -234
c79.333 2 138.666 14 177.999 36z" />
    <glyph glyph-name="daggerdbl" unicode="&#x2021;" horiz-adv-x="516" 
d="M486 249l-66.9971 -112.999c-19.333 3.33301 -38.833 5.83301 -58.5 7.5s-39.167 2.83398 -58.5 3.50098c3.33301 -88.667 7.33301 -151.334 12 -188.001c-15.333 -11.333 -31 -24.833 -47 -40.5s-32.667 -33.834 -50 -54.501l-11 7c3.33301 30 5.83301 67.833 7.5 113.5
s2.83398 99.5 3.50098 161.5c-70 -2.66699 -129.667 -12.667 -179 -30l-8 7l58 101c15.333 -1.33301 33.666 -2.33301 54.999 -3s46.333 -1.33398 75 -2.00098v236v30c-71.333 -3.33301 -131.333 -13.333 -180 -30l-8 7l58 101c14.667 -1.33301 32.5 -2.33301 53.5 -3
s45.833 -1.33398 74.5 -2.00098c-3.33301 65.333 -13.333 112 -30 140v4c46.667 22.667 94.334 55.334 143.001 98.001l11 -8c-22.667 -23.333 -36.334 -101.333 -41.001 -234c79.333 2 138.666 14 177.999 36l9 -6l-67 -113
c-32.667 6.66699 -73.334 10.334 -122.001 11.001v-31c0 -50.667 0.166992 -95.667 0.5 -135s0.833008 -73 1.5 -101c79.333 2 138.666 14 177.999 36z" />
    <glyph glyph-name="bullet" unicode="&#x2022;" horiz-adv-x="524" 
d="M269 402l-83 99.999l45.5 57.5c13 17 23.167 32.167 30.5 45.5c8.66699 -13.333 20.167 -29.166 34.5 -47.499l50.5 -62.5zM454 374.999l-50.5 -52l-36.5 -40l-75 92l78 92l51 -57c14 -15.333 25 -27 33 -35zM246 374.999l-84.001 -100
c-13.333 16.667 -27.666 33.167 -42.999 49.5l-49 50.5c42 42 73 75 93 99zM268.999 347.999l76.001 -90.999c-16.667 -19.333 -31.834 -38.5 -45.501 -57.5s-26.167 -37.167 -37.5 -54.5c-10 15.333 -21.333 31.666 -34 48.999s-26.667 35.333 -42 54z" />
    <glyph glyph-name="ellipsis" unicode="&#x2026;" horiz-adv-x="638" 
d="M608 63c-20 -18 -44.667 -41.666 -74 -70.999l-72 71l32 30c12 11.333 25.333 24.666 40 39.999zM392 63.001c-20 -18 -44.667 -41.666 -74 -70.999l-72 71l32 30c12 11.333 25.333 24.666 40 39.999zM176 63.002c-20 -18 -44.667 -41.666 -74 -70.999l-72 71l32 30
c12 11.333 25.333 24.666 40 39.999z" />
    <glyph glyph-name="perthousand" unicode="&#x2030;" horiz-adv-x="891" 
d="M851 82c-16 -8.66699 -35.166 -19.668 -57.499 -33.001s-47.833 -29.666 -76.5 -48.999c-32.667 13.333 -55.834 30.166 -69.501 50.499s-20.5 49.5 -20.5 87.5v130c18.667 9.33301 39.167 21 61.5 35l72.5 47c36 -17.333 60 -35.666 72 -54.999c12 -20 18 -53 18 -99
v-114zM581.001 81.999c-16 -8.66699 -35.166 -19.668 -57.499 -33.001s-47.833 -29.666 -76.5 -48.999c-32.667 13.333 -55.834 30.166 -69.501 50.499s-20.5 49.5 -20.5 87.5v130c18.667 9.33301 39.167 21 61.5 35l72.5 47c36 -17.333 60 -35.666 72 -54.999
c12 -20 18 -53 18 -99v-114zM451.002 589.998h50l-345 -608h-51zM264.002 321.998c-16 -8.66699 -35.166 -19.668 -57.499 -33.001s-47.833 -29.666 -76.5 -48.999c-32.667 13.333 -55.834 30.166 -69.501 50.499s-20.5 49.5 -20.5 87.5v130
c18.667 9.33301 39.167 21 61.5 35l72.5 47c36 -17.333 60 -35.666 72 -54.999c12 -20 18 -53 18 -99v-114zM778.003 52.9971l0.000976562 131.999c0 36.667 -5 62.667 -15 78c-8.66699 16 -28.334 29 -59.001 39l-5 -5v-149c0 -28.667 5 -50.667 15 -66
s29.667 -26.666 59 -33.999zM508.004 52.9961l0.000976562 131.999c0 36.667 -5 62.667 -15 78c-8.66699 16 -28.334 29 -59.001 39l-5 -5v-149c0 -28.667 5 -50.667 15 -66s29.667 -26.666 59 -33.999zM192.005 292.995l0.000976562 131.999c0 36.667 -5 62.667 -15 78
c-8.66699 16 -28.334 29 -59.001 39l-6 -5v-149c0 -28.667 5 -50.667 15 -66s29.667 -26.666 59 -33.999z" />
    <glyph glyph-name="guilsinglleft" unicode="&#x2039;" horiz-adv-x="387" 
d="M286 59c-41.333 107.333 -116.668 180.999 -226.001 220.999v17c63.333 22.667 112 52.334 146 89.001s60.667 80.667 80 132l41 -22c-7.33301 -27.333 -15.166 -51.5 -23.499 -72.5s-16.833 -39.167 -25.5 -54.5c-16.667 -30.667 -43 -56.667 -79 -78v-5
c34 -20 60.667 -46.333 80 -79s35.333 -74.667 48 -126z" />
    <glyph glyph-name="guilsinglright" unicode="&#x203a;" horiz-adv-x="387" 
d="M327 280c-109.333 -40 -184.668 -113.666 -226.001 -220.999l-41 22c12.667 51.333 28.667 93.333 48 126s46 59 80 79v5c-36 21.333 -62.333 47.333 -79 78c-8.66699 15.333 -17.167 33.5 -25.5 54.5s-16.166 45.167 -23.499 72.5l41 22
c19.333 -51.333 46 -95.333 80 -132s82.667 -66.334 146 -89.001v-17z" />
    <glyph glyph-name="Euro" unicode="&#x20ac;" horiz-adv-x="557" 
d="M543 99c-24.667 -34 -52.001 -60.335 -82.001 -79.002c-29.333 -18.667 -70 -28 -122 -28c-74 0 -134.167 20.5 -180.5 61.5s-72.833 98.833 -79.5 173.5h-69l23 45h44c0.666992 11.333 1.33398 21 2.00098 29s1.66699 14.667 3 20h-72l23 46h64
c26 64.667 77.667 123.667 155 177l85 58c77.333 -25.333 131.666 -38 162.999 -38c7.33301 0 15.666 6.66699 24.999 20l12 -9c-13.333 -19.333 -26.666 -37.166 -39.999 -53.499s-26.666 -31.5 -39.999 -45.5c-74 12.667 -134.667 30.667 -182 54
c-55.333 -51.333 -88.333 -105.666 -99 -162.999h305l-23 -46h-285v-1v-28.5c0 -7.66699 0.333008 -14.167 1 -19.5h307l-23 -45h-277c23.333 -109.333 98.333 -164 225 -164c48 0 92.667 16.333 134 49z" />
    <glyph glyph-name="afii61352" unicode="&#x2116;" horiz-adv-x="967" 
d="M692 104c-5.33301 -7.33301 -14.001 -17.998 -26.001 -31.998l-34.5 -42.5c-11 -13.667 -20.5 -26.167 -28.5 -37.5c-38 28 -86.667 50.667 -146 68v6c46 30.667 69 70.334 69 119.001v173l-170 -77v-174c22.667 -4 34.334 -6 35.001 -6c10.667 0 23.667 10 39 30l16 -11
c-64.667 -83.333 -97.334 -126 -98.001 -128c-58.667 25.333 -129.334 38 -212.001 38c-22 0 -40.333 -2.66699 -55 -8c-13.333 -5.33301 -29.333 -15.333 -48 -30l-14 16l85 77c50.667 46.667 76 90.667 76 132v109h-11c-49.333 0 -81.333 -15 -96 -45l-9 4
c4.66699 50 17 87 37 111s45.333 36 76 36h3v144c-20.667 14.667 -38 26.5 -52 35.5s-24.667 15.5 -32 19.5c-15.333 8 -27.666 12 -36.999 12c-8 0 -20.333 -7.33301 -37 -22l-13 14l126 106l157 -113l24.5 17.5c9.66699 7 16.5 11.833 20.5 14.5v12c0 24 -3 45.667 -9 65
v2l22 -3c4 -16 6 -34.333 6 -55v-8l90 66c28.667 -5.33301 55 -13.833 79 -25.5s44.667 -26.667 62 -45s30.833 -40 40.5 -65s14.5 -53.5 14.5 -85.5v-212c0 -28.667 -4 -53.334 -12 -74.001c-7.33301 -20.667 -16.333 -36.334 -27 -47.001
c-4.66699 -5.33301 -10.834 -11.5 -18.501 -18.5s-17.167 -15.167 -28.5 -24.5v-3c24.667 -9.33301 48.334 -16.833 71.001 -22.5s44.334 -9.83398 65.001 -12.501zM355.999 394.002l169.999 78.001v10c0 58 -14.167 100.167 -42.5 126.5s-67.166 43.166 -116.499 50.499
l-11 -9v-256zM355.998 301.003l170 78v73l-170 -77v-74zM336.998 637.003l-41 -30v-318c0 -62 -40 -118 -120 -168l3 -4c25.333 7.33301 43 11 53 11c13.333 0 48.333 -5.66699 105 -17v526zM942.998 401.003c-0.666992 -16.667 -1.16797 -32.668 -1.50098 -48.001
s-0.5 -30 -0.5 -44c-17.333 -5.33301 -35.666 -11.5 -54.999 -18.5s-40.333 -15.167 -63 -24.5s-42.5 -17.833 -59.5 -25.5s-31.167 -14.834 -42.5 -21.501c0.666992 18.667 1.16699 35.834 1.5 51.501s0.5 29.834 0.5 42.501c54 32.667 127.333 62 220 88zM922.997 468.002
c-16 -8.66699 -35.165 -19.666 -57.498 -32.999s-47.833 -29.666 -76.5 -48.999c-32.667 13.333 -55.834 30.166 -69.501 50.499s-20.5 49.5 -20.5 87.5v130c18.667 9.33301 39.167 21 61.5 35l72.5 47c37.333 -16.667 61.666 -33.334 72.999 -50.001s17 -47 17 -91v-127z
M849.999 439.003v145.001c0 35.333 -4.66699 58.666 -14 69.999c-8.66699 11.333 -28.667 22.666 -60 33.999l-5 -5v-149c0 -28.667 5 -50.667 15 -66s29.667 -26.666 59 -33.999z" />
    <glyph glyph-name="trademark" unicode="&#x2122;" horiz-adv-x="763" 
d="M669 446v-27.999h-101v28h19c6.66699 0 10 3.33301 10 10v193l-78 -196c-2.66699 -8.66699 -5.66699 -20.334 -9 -35.001h-23l-87 223v-185c0 -6.66699 4 -10 12 -10h15v-28h-84v28h15c6 0 9 3.33301 9 10v213c0 6.66699 -3.33301 10 -10 10h-14v28h81l81 -210l81 210h83
v-28h-15c-7.33301 0 -11 -3.33301 -11 -10v-213c0 -6.66699 4 -10 12 -10h14zM314 707.001l2 -77h-28c-2.66699 18.667 -6.16699 31.167 -10.5 37.5s-11.833 9.5 -22.5 9.5h-46v-221c0 -6.66699 3.33301 -10 10 -10h18v-28h-103v28h19c6.66699 0 10 3.33301 10 10v221h-45
c-12 0 -20 -3 -24 -9s-7.66699 -18.667 -11 -38h-28l2 77h257z" />
    </font>
</defs>
</svg>
